<?xml version="1.0" encoding="UTF-8" standalone="no"?>
<svg xmlns="http://www.w3.org/2000/svg" width="379" height="212.3125" viewBox="0 0 379 212.3125"><rect x="0" y="0" width="379" height="212.3125" fill="#ffeb3b"/><g transform="translate(189.5, 106.15625) scale(0.4825289778714436) translate(-189.8, -96)"><g transform="translate(-28, 0) matrix(1, 0, 0, 1, 0, 0)"><svg xmlns="http://www.w3.org/2000/svg" version="1.1" viewBox="0 0 1080 1080" width="200" height="200" overflow="visible" shape-rendering="geometricPrecision">
  
  <g id="Shadow_Effect" class="Shadow_Effect">
    
  </g>
  <g id="Layer_1">
    
  </g>
  <g id="Shine_Effect">
    <g id="Shine_Effect1" data-name="Shine_Effect">
      
    </g>
  </g>
<g id="stamp-shield-group" shape-rendering="geometricPrecision"><path d="M920.9,891.3h0c-18.9-57.1-55.8-162.6-108.9-288.1-83.8-202.9-189.1-459.2-298.7-534.9-77.2-57.9-145.2-37.6-195,27.9-29.6,39-56.1,98.1-76.2,151.1-21.2,51.2-41.8,116.4-59.9,200.9-80.7,378.5,47.4,611.7,47.4,611.7,0,0,56.5,1.7,153-4.3,47.1-3,77-12.7,94.3-21h-.2c11.7-5.5,16.8-19.1,12-30.9-5.6-13.5-16-55.4-21.6-80.7l133.5-20c25.1,76.1,46.4,139.2,46.4,139.2-4.6,3.9,102.2,11,176.7-21,30.7-13.2,54.6-29.1,72.3-43.5,25.3-20.6,35.1-55.1,24.8-86.4ZM448,730.9c0-6.6,0-13.3.3-20.1h.1c1.4-50.5,11.2-105.8,24.1-157.9,21.9,44.9,47,100.8,64.8,153.4-27,5.4-61.3,13.5-89.3,24.6Z" fill="none" stroke="#ff430a" stroke-width="90" stroke-linejoin="round" stroke-linecap="round"/></g><g id="stamp-group" shape-rendering="geometricPrecision"><path d="M920.9,891.3h0c-18.9-57.1-55.8-162.6-108.9-288.1-83.8-202.9-189.1-459.2-298.7-534.9-77.2-57.9-145.2-37.6-195,27.9-29.6,39-56.1,98.1-76.2,151.1-21.2,51.2-41.8,116.4-59.9,200.9-80.7,378.5,47.4,611.7,47.4,611.7,0,0,56.5,1.7,153-4.3,47.1-3,77-12.7,94.3-21h-.2c11.7-5.5,16.8-19.1,12-30.9-5.6-13.5-16-55.4-21.6-80.7l133.5-20c25.1,76.1,46.4,139.2,46.4,139.2-4.6,3.9,102.2,11,176.7-21,30.7-13.2,54.6-29.1,72.3-43.5,25.3-20.6,35.1-55.1,24.8-86.4ZM448,730.9c0-6.6,0-13.3.3-20.1h.1c1.4-50.5,11.2-105.8,24.1-157.9,21.9,44.9,47,100.8,64.8,153.4-27,5.4-61.3,13.5-89.3,24.6Z" fill="none" stroke="#fff176" stroke-width="60" stroke-linejoin="round" stroke-linecap="round"/></g></svg></g><g transform="translate(84.44, 0) matrix(1, 0, 0, 1, 0, 0)"><svg xmlns="http://www.w3.org/2000/svg" version="1.1" viewBox="0 0 1080 1080" width="200" height="200" overflow="visible" shape-rendering="geometricPrecision">
  <!-- Generator: Adobe Illustrator 29.3.1, SVG Export Plug-In . SVG Version: 2.1.0 Build 151)  -->
  <g id="Shadow_Effect" class="Shadow_Effect">
    
  </g>
  <g id="BASE">
    
  </g>
<g id="stamp-shield-group" shape-rendering="geometricPrecision"><path d="M881.5,705.2h0c-87.3-108.2-240-131.2-240-131.2,0,0,223-57.9,219.1-216.5-4.8-196.7-218.7-306.1-435.8-316.7-135.6-6.7-225.5,31.6-225.5,31.6,0,0-.4,2.1-1,6-8.3,23.8-44.9,146.8-24.4,409.6,27,343.8,146.3,514.4,183.1,559.5,8.2,11.8,13.2,17.9,13.2,17.9h.4s226.8,16.8,388.5-58c161.9-74.7,209.6-193.9,122.3-302.2h0ZM429.7,565.4c-3.4-46.8-2-85.8-.6-107.8h0c109,.7,130.5,24.2,131,46.9.5,26-76,45.3-125.7,59.6-1.6.4-3.2.9-4.7,1.3h0ZM493.1,795.4c-23.6-41.5-38.9-86.7-48.8-130.6,71.4,7.6,178.4,26.4,182.6,71,3.3,35.5-66.8,52-133.8,59.6h0Z" fill="none" stroke="#ff430a" stroke-width="90" stroke-linejoin="round" stroke-linecap="round"/></g><g id="stamp-group" shape-rendering="geometricPrecision"><path d="M881.5,705.2h0c-87.3-108.2-240-131.2-240-131.2,0,0,223-57.9,219.1-216.5-4.8-196.7-218.7-306.1-435.8-316.7-135.6-6.7-225.5,31.6-225.5,31.6,0,0-.4,2.1-1,6-8.3,23.8-44.9,146.8-24.4,409.6,27,343.8,146.3,514.4,183.1,559.5,8.2,11.8,13.2,17.9,13.2,17.9h.4s226.8,16.8,388.5-58c161.9-74.7,209.6-193.9,122.3-302.2h0ZM429.7,565.4c-3.4-46.8-2-85.8-.6-107.8h0c109,.7,130.5,24.2,131,46.9.5,26-76,45.3-125.7,59.6-1.6.4-3.2.9-4.7,1.3h0ZM493.1,795.4c-23.6-41.5-38.9-86.7-48.8-130.6,71.4,7.6,178.4,26.4,182.6,71,3.3,35.5-66.8,52-133.8,59.6h0Z" fill="none" stroke="#fff176" stroke-width="60" stroke-linejoin="round" stroke-linecap="round"/></g></svg></g><g transform="translate(201.6, 0) matrix(1, 0, 0, 1, 0, 0)"><svg xmlns="http://www.w3.org/2000/svg" version="1.1" viewBox="0 0 1080 1080" width="200" height="200" overflow="visible" shape-rendering="geometricPrecision">
  <!-- Generator: Adobe Illustrator 29.3.1, SVG Export Plug-In . SVG Version: 2.1.0 Build 151)  -->
  <g id="Shadow_Effect" class="Shadow_Effect">
    
  </g>
  <g id="BASE">
    
  </g>
<g id="stamp-shield-group" shape-rendering="geometricPrecision"><path d="M711.1,749.2c-40.9,38-79.9,74-116.9,79.1s-92-32.9-111-108c-10.5-41.3-8.7-103.2,7-137,20-42.8,53.2-48.7,69.6-19.9,29.4,51.2,18.1,128,23.1,202.4.8,11,11.3,17.8,19.6,12.7l210.4-114.3c8.2-5,14.6-13.5,17.3-23.5,11.7-39.4,49.5-167.7-1-353.4C774,49.5,530-15.9,355.2,89.3c-121.1,73.1-244,311.9-188,606,56,294.1,280,398.7,466,383.5s334.6-144.2,333-189.5c-.7-29-58-94-97-120s-115.9-67.4-139-39.4l-19,19.3h0Z" fill="none" stroke="#ff430a" stroke-width="90" stroke-linejoin="round" stroke-linecap="round"/></g><g id="stamp-group" shape-rendering="geometricPrecision"><path d="M711.1,749.2c-40.9,38-79.9,74-116.9,79.1s-92-32.9-111-108c-10.5-41.3-8.7-103.2,7-137,20-42.8,53.2-48.7,69.6-19.9,29.4,51.2,18.1,128,23.1,202.4.8,11,11.3,17.8,19.6,12.7l210.4-114.3c8.2-5,14.6-13.5,17.3-23.5,11.7-39.4,49.5-167.7-1-353.4C774,49.5,530-15.9,355.2,89.3c-121.1,73.1-244,311.9-188,606,56,294.1,280,398.7,466,383.5s334.6-144.2,333-189.5c-.7-29-58-94-97-120s-115.9-67.4-139-39.4l-19,19.3h0Z" fill="none" stroke="#fff176" stroke-width="60" stroke-linejoin="round" stroke-linecap="round"/></g></svg></g><g transform="translate(-28, 0) matrix(1, 0, 0, 1, 18, 0)"><svg xmlns="http://www.w3.org/2000/svg" version="1.1" viewBox="0 0 1080 1080" width="200" height="200" overflow="visible" shape-rendering="geometricPrecision">
  
  <g id="Shadow_Effect" class="Shadow_Effect">
    <path class="shadow-effect" style="display:inline" fill="none" fill-opacity="1" d="M779.2,874.1h0C707.2,707.2,454.1-168.4,206.8,118.8,2.3,411.7,40.2,923.1,122.6,1034.3c0,0,53.7,1.6,145.3-4.1,44.7-2.9,73.2-12.1,89.6-20h-.2c11.1-5.2,16-18.1,11.4-29.4-5.3-12.8-15.2-52.6-20.5-76.6l126.8-19c23.8,72.3,44.1,132.2,44.1,132.2,32.1,18.4,301-17.6,260.1-143.4ZM330,721.7c0-6.3,0-12.6.3-19.1h0c1.3-48,10.6-100.5,22.9-150,20.8,42.7,44.7,95.8,61.6,145.7-25.7,5.1-58.2,12.8-84.8,23.4Z" stroke="#ff430a" stroke-width="60" stroke-linejoin="round" stroke-linecap="round" shape-rendering="geometricPrecision"/>
  </g>
  <g id="Layer_1">
    <path d="M920.9,891.3h0c-18.9-57.1-55.8-162.6-108.9-288.1-83.8-202.9-189.1-459.2-298.7-534.9-77.2-57.9-145.2-37.6-195,27.9-29.6,39-56.1,98.1-76.2,151.1-21.2,51.2-41.8,116.4-59.9,200.9-80.7,378.5,47.4,611.7,47.4,611.7,0,0,56.5,1.7,153-4.3,47.1-3,77-12.7,94.3-21h-.2c11.7-5.5,16.8-19.1,12-30.9-5.6-13.5-16-55.4-21.6-80.7l133.5-20c25.1,76.1,46.4,139.2,46.4,139.2-4.6,3.9,102.2,11,176.7-21,30.7-13.2,54.6-29.1,72.3-43.5,25.3-20.6,35.1-55.1,24.8-86.4ZM448,730.9c0-6.6,0-13.3.3-20.1h.1c1.4-50.5,11.2-105.8,24.1-157.9,21.9,44.9,47,100.8,64.8,153.4-27,5.4-61.3,13.5-89.3,24.6Z" style="display:none"/>
  </g>
  <g id="Shine_Effect">
    <g id="Shine_Effect1" data-name="Shine_Effect">
      <path class="shine-effect" style="display:none" fill="#ffffff" fill-opacity="1" d="M269,217.5S334.1,47.3,426.1,52c52.6,2.7,152.5,33.1,308.6,401C576.6,160.8,482.2,110.3,427.5,110c-79.3-.3-158.4,107.5-158.4,107.5h0Z"/>
    </g>
  </g>
</svg></g><g transform="translate(84.44, 0) matrix(1, 0, 0, 1, 18, 0)"><svg xmlns="http://www.w3.org/2000/svg" version="1.1" viewBox="0 0 1080 1080" width="200" height="200" overflow="visible" shape-rendering="geometricPrecision">
  <!-- Generator: Adobe Illustrator 29.3.1, SVG Export Plug-In . SVG Version: 2.1.0 Build 151)  -->
  <g id="Shadow_Effect" class="Shadow_Effect">
    <path d="M764.7,697.6h0c-82.9-102.8-228-124.6-228-124.6,516.1-188.8-18.2-637.9-420.1-476.5-85.8,234,15,815.8,162.4,943.4,85.8,27.1,689.8-52.4,485.6-342.2h0ZM335.5,564.8c-3.2-44.5-1.9-81.5-.6-102.4h0c103.5.7,124,23,124.4,44.6.7,25.4-77.6,44.5-123.9,57.9h0ZM395.8,783.3c-22.4-39.4-37-82.4-46.4-124.1,160.3,7.5,269.7,98.8,46.4,124.1Z" class="shadow-effect" style="display:inline" fill="none" fill-opacity="1" stroke="#ff430a" stroke-width="60" stroke-linejoin="round" stroke-linecap="round" shape-rendering="geometricPrecision"/>
  </g>
  <g id="BASE">
    <path d="M881.5,705.2h0c-87.3-108.2-240-131.2-240-131.2,0,0,223-57.9,219.1-216.5-4.8-196.7-218.7-306.1-435.8-316.7-135.6-6.7-225.5,31.6-225.5,31.6,0,0-.4,2.1-1,6-8.3,23.8-44.9,146.8-24.4,409.6,27,343.8,146.3,514.4,183.1,559.5,8.2,11.8,13.2,17.9,13.2,17.9h.4s226.8,16.8,388.5-58c161.9-74.7,209.6-193.9,122.3-302.2h0ZM429.7,565.4c-3.4-46.8-2-85.8-.6-107.8h0c109,.7,130.5,24.2,131,46.9.5,26-76,45.3-125.7,59.6-1.6.4-3.2.9-4.7,1.3h0ZM493.1,795.4c-23.6-41.5-38.9-86.7-48.8-130.6,71.4,7.6,178.4,26.4,182.6,71,3.3,35.5-66.8,52-133.8,59.6h0Z" style="display:none"/>
  </g>
</svg></g><g transform="translate(201.6, 0) matrix(1, 0, 0, 1, 18, 0)"><svg xmlns="http://www.w3.org/2000/svg" version="1.1" viewBox="0 0 1080 1080" width="200" height="200" overflow="visible" shape-rendering="geometricPrecision">
  <!-- Generator: Adobe Illustrator 29.3.1, SVG Export Plug-In . SVG Version: 2.1.0 Build 151)  -->
  <g id="Shadow_Effect" class="Shadow_Effect">
    <path d="M585.3,738.5c-38.9,36.1-75.9,70.3-111.1,75.1-35.2,4.8-87.4-31.3-105.5-102.6-10-39.2-8.3-98,6.6-130.2,19-40.7,50.5-46.3,66.1-18.9,27.9,48.6,17.2,121.6,21.9,192.3.8,10.5,10.7,16.9,18.6,12.1l199.9-108.6c7.8-4.8,13.9-12.8,16.4-22.3,11.1-37.4,47-159.3-1-335.7C645.1,73.7,413.3,11.6,247.2,111.6,132.2,181,15.4,407.9,68.6,687.3c53.2,279.4,266,378.8,442.7,364.3s317.9-137,316.4-180c-.7-27.5-55.1-89.3-92.1-114-37.1-24.7-110.1-64-132.1-37.4l-18,18.3h0Z" class="shadow-effect" style="display:inline" fill="none" fill-opacity="1" stroke="#ff430a" stroke-width="60" stroke-linejoin="round" stroke-linecap="round" shape-rendering="geometricPrecision"/>
  </g>
  <g id="BASE">
    <path d="M711.1,749.2c-40.9,38-79.9,74-116.9,79.1s-92-32.9-111-108c-10.5-41.3-8.7-103.2,7-137,20-42.8,53.2-48.7,69.6-19.9,29.4,51.2,18.1,128,23.1,202.4.8,11,11.3,17.8,19.6,12.7l210.4-114.3c8.2-5,14.6-13.5,17.3-23.5,11.7-39.4,49.5-167.7-1-353.4C774,49.5,530-15.9,355.2,89.3c-121.1,73.1-244,311.9-188,606,56,294.1,280,398.7,466,383.5s334.6-144.2,333-189.5c-.7-29-58-94-97-120s-115.9-67.4-139-39.4l-19,19.3h0Z" style="display:none"/>
  </g>
</svg></g><g transform="translate(-28, 0) matrix(1, 0, 0, 1, 18, 0)"><svg xmlns="http://www.w3.org/2000/svg" version="1.1" viewBox="0 0 1080 1080" width="200" height="200" overflow="visible" shape-rendering="geometricPrecision">
  
  <g id="Shadow_Effect" class="Shadow_Effect">
    <path class="shadow-effect" style="display:inline" fill="#fff176" fill-opacity="1" d="M779.2,874.1h0C707.2,707.2,454.1-168.4,206.8,118.8,2.3,411.7,40.2,923.1,122.6,1034.3c0,0,53.7,1.6,145.3-4.1,44.7-2.9,73.2-12.1,89.6-20h-.2c11.1-5.2,16-18.1,11.4-29.4-5.3-12.8-15.2-52.6-20.5-76.6l126.8-19c23.8,72.3,44.1,132.2,44.1,132.2,32.1,18.4,301-17.6,260.1-143.4ZM330,721.7c0-6.3,0-12.6.3-19.1h0c1.3-48,10.6-100.5,22.9-150,20.8,42.7,44.7,95.8,61.6,145.7-25.7,5.1-58.2,12.8-84.8,23.4Z" stroke="#fff176" stroke-width="30" stroke-linejoin="round" stroke-linecap="round" shape-rendering="geometricPrecision"/>
  </g>
  <g id="Layer_1">
    <path d="M920.9,891.3h0c-18.9-57.1-55.8-162.6-108.9-288.1-83.8-202.9-189.1-459.2-298.7-534.9-77.2-57.9-145.2-37.6-195,27.9-29.6,39-56.1,98.1-76.2,151.1-21.2,51.2-41.8,116.4-59.9,200.9-80.7,378.5,47.4,611.7,47.4,611.7,0,0,56.5,1.7,153-4.3,47.1-3,77-12.7,94.3-21h-.2c11.7-5.5,16.8-19.1,12-30.9-5.6-13.5-16-55.4-21.6-80.7l133.5-20c25.1,76.1,46.4,139.2,46.4,139.2-4.6,3.9,102.2,11,176.7-21,30.7-13.2,54.6-29.1,72.3-43.5,25.3-20.6,35.1-55.1,24.8-86.4ZM448,730.9c0-6.6,0-13.3.3-20.1h.1c1.4-50.5,11.2-105.8,24.1-157.9,21.9,44.9,47,100.8,64.8,153.4-27,5.4-61.3,13.5-89.3,24.6Z" style="display:none"/>
  </g>
  <g id="Shine_Effect">
    <g id="Shine_Effect1" data-name="Shine_Effect">
      <path class="shine-effect" style="display:none" fill="#ffffff" fill-opacity="1" d="M269,217.5S334.1,47.3,426.1,52c52.6,2.7,152.5,33.1,308.6,401C576.6,160.8,482.2,110.3,427.5,110c-79.3-.3-158.4,107.5-158.4,107.5h0Z"/>
    </g>
  </g>
</svg></g><g transform="translate(84.44, 0) matrix(1, 0, 0, 1, 18, 0)"><svg xmlns="http://www.w3.org/2000/svg" version="1.1" viewBox="0 0 1080 1080" width="200" height="200" overflow="visible" shape-rendering="geometricPrecision">
  <!-- Generator: Adobe Illustrator 29.3.1, SVG Export Plug-In . SVG Version: 2.1.0 Build 151)  -->
  <g id="Shadow_Effect" class="Shadow_Effect">
    <path d="M764.7,697.6h0c-82.9-102.8-228-124.6-228-124.6,516.1-188.8-18.2-637.9-420.1-476.5-85.8,234,15,815.8,162.4,943.4,85.8,27.1,689.8-52.4,485.6-342.2h0ZM335.5,564.8c-3.2-44.5-1.9-81.5-.6-102.4h0c103.5.7,124,23,124.4,44.6.7,25.4-77.6,44.5-123.9,57.9h0ZM395.8,783.3c-22.4-39.4-37-82.4-46.4-124.1,160.3,7.5,269.7,98.8,46.4,124.1Z" class="shadow-effect" style="display:inline" fill="#fff176" fill-opacity="1" stroke="#fff176" stroke-width="30" stroke-linejoin="round" stroke-linecap="round" shape-rendering="geometricPrecision"/>
  </g>
  <g id="BASE">
    <path d="M881.5,705.2h0c-87.3-108.2-240-131.2-240-131.2,0,0,223-57.9,219.1-216.5-4.8-196.7-218.7-306.1-435.8-316.7-135.6-6.7-225.5,31.6-225.5,31.6,0,0-.4,2.1-1,6-8.3,23.8-44.9,146.8-24.4,409.6,27,343.8,146.3,514.4,183.1,559.5,8.2,11.8,13.2,17.9,13.2,17.9h.4s226.8,16.8,388.5-58c161.9-74.7,209.6-193.9,122.3-302.2h0ZM429.7,565.4c-3.4-46.8-2-85.8-.6-107.8h0c109,.7,130.5,24.2,131,46.9.5,26-76,45.3-125.7,59.6-1.6.4-3.2.9-4.7,1.3h0ZM493.1,795.4c-23.6-41.5-38.9-86.7-48.8-130.6,71.4,7.6,178.4,26.4,182.6,71,3.3,35.5-66.8,52-133.8,59.6h0Z" style="display:none"/>
  </g>
</svg></g><g transform="translate(201.6, 0) matrix(1, 0, 0, 1, 18, 0)"><svg xmlns="http://www.w3.org/2000/svg" version="1.1" viewBox="0 0 1080 1080" width="200" height="200" overflow="visible" shape-rendering="geometricPrecision">
  <!-- Generator: Adobe Illustrator 29.3.1, SVG Export Plug-In . SVG Version: 2.1.0 Build 151)  -->
  <g id="Shadow_Effect" class="Shadow_Effect">
    <path d="M585.3,738.5c-38.9,36.1-75.9,70.3-111.1,75.1-35.2,4.8-87.4-31.3-105.5-102.6-10-39.2-8.3-98,6.6-130.2,19-40.7,50.5-46.3,66.1-18.9,27.9,48.6,17.2,121.6,21.9,192.3.8,10.5,10.7,16.9,18.6,12.1l199.9-108.6c7.8-4.8,13.9-12.8,16.4-22.3,11.1-37.4,47-159.3-1-335.7C645.1,73.7,413.3,11.6,247.2,111.6,132.2,181,15.4,407.9,68.6,687.3c53.2,279.4,266,378.8,442.7,364.3s317.9-137,316.4-180c-.7-27.5-55.1-89.3-92.1-114-37.1-24.7-110.1-64-132.1-37.4l-18,18.3h0Z" class="shadow-effect" style="display:inline" fill="#fff176" fill-opacity="1" stroke="#fff176" stroke-width="30" stroke-linejoin="round" stroke-linecap="round" shape-rendering="geometricPrecision"/>
  </g>
  <g id="BASE">
    <path d="M711.1,749.2c-40.9,38-79.9,74-116.9,79.1s-92-32.9-111-108c-10.5-41.3-8.7-103.2,7-137,20-42.8,53.2-48.7,69.6-19.9,29.4,51.2,18.1,128,23.1,202.4.8,11,11.3,17.8,19.6,12.7l210.4-114.3c8.2-5,14.6-13.5,17.3-23.5,11.7-39.4,49.5-167.7-1-353.4C774,49.5,530-15.9,355.2,89.3c-121.1,73.1-244,311.9-188,606,56,294.1,280,398.7,466,383.5s334.6-144.2,333-189.5c-.7-29-58-94-97-120s-115.9-67.4-139-39.4l-19,19.3h0Z" style="display:none"/>
  </g>
</svg></g><g transform="translate(-28, 0) matrix(1, 0, 0, 1, 0, 0)"><svg xmlns="http://www.w3.org/2000/svg" version="1.1" viewBox="0 0 1080 1080" width="200" height="200" overflow="visible" shape-rendering="geometricPrecision">
  
  <g id="Shadow_Effect" class="Shadow_Effect">
    
  </g>
  <g id="Layer_1">
    <path d="M920.9,891.3h0c-18.9-57.1-55.8-162.6-108.9-288.1-83.8-202.9-189.1-459.2-298.7-534.9-77.2-57.9-145.2-37.6-195,27.9-29.6,39-56.1,98.1-76.2,151.1-21.2,51.2-41.8,116.4-59.9,200.9-80.7,378.5,47.4,611.7,47.4,611.7,0,0,56.5,1.7,153-4.3,47.1-3,77-12.7,94.3-21h-.2c11.7-5.5,16.8-19.1,12-30.9-5.6-13.5-16-55.4-21.6-80.7l133.5-20c25.1,76.1,46.4,139.2,46.4,139.2-4.6,3.9,102.2,11,176.7-21,30.7-13.2,54.6-29.1,72.3-43.5,25.3-20.6,35.1-55.1,24.8-86.4ZM448,730.9c0-6.6,0-13.3.3-20.1h.1c1.4-50.5,11.2-105.8,24.1-157.9,21.9,44.9,47,100.8,64.8,153.4-27,5.4-61.3,13.5-89.3,24.6Z" fill="none" stroke="#fff176" stroke-width="60" stroke-linejoin="round" stroke-linecap="round"/>
  </g>
  <g id="Shine_Effect">
    <g id="Shine_Effect1" data-name="Shine_Effect">
      
    </g>
  </g>
</svg></g><g transform="translate(84.44, 0) matrix(1, 0, 0, 1, 0, 0)"><svg xmlns="http://www.w3.org/2000/svg" version="1.1" viewBox="0 0 1080 1080" width="200" height="200" overflow="visible" shape-rendering="geometricPrecision">
  <!-- Generator: Adobe Illustrator 29.3.1, SVG Export Plug-In . SVG Version: 2.1.0 Build 151)  -->
  <g id="Shadow_Effect" class="Shadow_Effect">
    
  </g>
  <g id="BASE">
    <path d="M881.5,705.2h0c-87.3-108.2-240-131.2-240-131.2,0,0,223-57.9,219.1-216.5-4.8-196.7-218.7-306.1-435.8-316.7-135.6-6.7-225.5,31.6-225.5,31.6,0,0-.4,2.1-1,6-8.3,23.8-44.9,146.8-24.4,409.6,27,343.8,146.3,514.4,183.1,559.5,8.2,11.8,13.2,17.9,13.2,17.9h.4s226.8,16.8,388.5-58c161.9-74.7,209.6-193.9,122.3-302.2h0ZM429.7,565.4c-3.4-46.8-2-85.8-.6-107.8h0c109,.7,130.5,24.2,131,46.9.5,26-76,45.3-125.7,59.6-1.6.4-3.2.9-4.7,1.3h0ZM493.1,795.4c-23.6-41.5-38.9-86.7-48.8-130.6,71.4,7.6,178.4,26.4,182.6,71,3.3,35.5-66.8,52-133.8,59.6h0Z" fill="none" stroke="#fff176" stroke-width="60" stroke-linejoin="round" stroke-linecap="round"/>
  </g>
</svg></g><g transform="translate(201.6, 0) matrix(1, 0, 0, 1, 0, 0)"><svg xmlns="http://www.w3.org/2000/svg" version="1.1" viewBox="0 0 1080 1080" width="200" height="200" overflow="visible" shape-rendering="geometricPrecision">
  <!-- Generator: Adobe Illustrator 29.3.1, SVG Export Plug-In . SVG Version: 2.1.0 Build 151)  -->
  <g id="Shadow_Effect" class="Shadow_Effect">
    
  </g>
  <g id="BASE">
    <path d="M711.1,749.2c-40.9,38-79.9,74-116.9,79.1s-92-32.9-111-108c-10.5-41.3-8.7-103.2,7-137,20-42.8,53.2-48.7,69.6-19.9,29.4,51.2,18.1,128,23.1,202.4.8,11,11.3,17.8,19.6,12.7l210.4-114.3c8.2-5,14.6-13.5,17.3-23.5,11.7-39.4,49.5-167.7-1-353.4C774,49.5,530-15.9,355.2,89.3c-121.1,73.1-244,311.9-188,606,56,294.1,280,398.7,466,383.5s334.6-144.2,333-189.5c-.7-29-58-94-97-120s-115.9-67.4-139-39.4l-19,19.3h0Z" fill="none" stroke="#fff176" stroke-width="60" stroke-linejoin="round" stroke-linecap="round"/>
  </g>
</svg></g><g transform="translate(-28, 0) matrix(1, 0, 0, 1, 0, 0)"><svg xmlns="http://www.w3.org/2000/svg" version="1.1" viewBox="0 0 1080 1080" width="200" height="200" overflow="visible" shape-rendering="geometricPrecision">
  
  <g id="Shadow_Effect" class="Shadow_Effect">
    <path class="shadow-effect" style="display:none" fill="#000000" fill-opacity="1" d="M779.2,874.1h0C707.2,707.2,454.1-168.4,206.8,118.8,2.3,411.7,40.2,923.1,122.6,1034.3c0,0,53.7,1.6,145.3-4.1,44.7-2.9,73.2-12.1,89.6-20h-.2c11.1-5.2,16-18.1,11.4-29.4-5.3-12.8-15.2-52.6-20.5-76.6l126.8-19c23.8,72.3,44.1,132.2,44.1,132.2,32.1,18.4,301-17.6,260.1-143.4ZM330,721.7c0-6.3,0-12.6.3-19.1h0c1.3-48,10.6-100.5,22.9-150,20.8,42.7,44.7,95.8,61.6,145.7-25.7,5.1-58.2,12.8-84.8,23.4Z"/>
  </g>
  <g id="Layer_1">
    <path d="M920.9,891.3h0c-18.9-57.1-55.8-162.6-108.9-288.1-83.8-202.9-189.1-459.2-298.7-534.9-77.2-57.9-145.2-37.6-195,27.9-29.6,39-56.1,98.1-76.2,151.1-21.2,51.2-41.8,116.4-59.9,200.9-80.7,378.5,47.4,611.7,47.4,611.7,0,0,56.5,1.7,153-4.3,47.1-3,77-12.7,94.3-21h-.2c11.7-5.5,16.8-19.1,12-30.9-5.6-13.5-16-55.4-21.6-80.7l133.5-20c25.1,76.1,46.4,139.2,46.4,139.2-4.6,3.9,102.2,11,176.7-21,30.7-13.2,54.6-29.1,72.3-43.5,25.3-20.6,35.1-55.1,24.8-86.4ZM448,730.9c0-6.6,0-13.3.3-20.1h.1c1.4-50.5,11.2-105.8,24.1-157.9,21.9,44.9,47,100.8,64.8,153.4-27,5.4-61.3,13.5-89.3,24.6Z" fill="#ff430a" shape-rendering="geometricPrecision"/>
  </g>
  <g id="Shine_Effect">
    <g id="Shine_Effect1" data-name="Shine_Effect">
      <path class="shine-effect" style="display:none" fill="#ffffff" fill-opacity="1" d="M269,217.5S334.1,47.3,426.1,52c52.6,2.7,152.5,33.1,308.6,401C576.6,160.8,482.2,110.3,427.5,110c-79.3-.3-158.4,107.5-158.4,107.5h0Z"/>
    </g>
  </g>
</svg></g><g transform="translate(84.44, 0) matrix(1, 0, 0, 1, 0, 0)"><svg xmlns="http://www.w3.org/2000/svg" version="1.1" viewBox="0 0 1080 1080" width="200" height="200" overflow="visible" shape-rendering="geometricPrecision">
  <!-- Generator: Adobe Illustrator 29.3.1, SVG Export Plug-In . SVG Version: 2.1.0 Build 151)  -->
  <g id="Shadow_Effect" class="Shadow_Effect">
    <path d="M764.7,697.6h0c-82.9-102.8-228-124.6-228-124.6,516.1-188.8-18.2-637.9-420.1-476.5-85.8,234,15,815.8,162.4,943.4,85.8,27.1,689.8-52.4,485.6-342.2h0ZM335.5,564.8c-3.2-44.5-1.9-81.5-.6-102.4h0c103.5.7,124,23,124.4,44.6.7,25.4-77.6,44.5-123.9,57.9h0ZM395.8,783.3c-22.4-39.4-37-82.4-46.4-124.1,160.3,7.5,269.7,98.8,46.4,124.1Z" class="shadow-effect" style="display:none" fill="#000000" fill-opacity="1"/>
  </g>
  <g id="BASE">
    <path d="M881.5,705.2h0c-87.3-108.2-240-131.2-240-131.2,0,0,223-57.9,219.1-216.5-4.8-196.7-218.7-306.1-435.8-316.7-135.6-6.7-225.5,31.6-225.5,31.6,0,0-.4,2.1-1,6-8.3,23.8-44.9,146.8-24.4,409.6,27,343.8,146.3,514.4,183.1,559.5,8.2,11.8,13.2,17.9,13.2,17.9h.4s226.8,16.8,388.5-58c161.9-74.7,209.6-193.9,122.3-302.2h0ZM429.7,565.4c-3.4-46.8-2-85.8-.6-107.8h0c109,.7,130.5,24.2,131,46.9.5,26-76,45.3-125.7,59.6-1.6.4-3.2.9-4.7,1.3h0ZM493.1,795.4c-23.6-41.5-38.9-86.7-48.8-130.6,71.4,7.6,178.4,26.4,182.6,71,3.3,35.5-66.8,52-133.8,59.6h0Z" fill="#ff430a" shape-rendering="geometricPrecision"/>
  </g>
</svg></g><g transform="translate(201.6, 0) matrix(1, 0, 0, 1, 0, 0)"><svg xmlns="http://www.w3.org/2000/svg" version="1.1" viewBox="0 0 1080 1080" width="200" height="200" overflow="visible" shape-rendering="geometricPrecision">
  <!-- Generator: Adobe Illustrator 29.3.1, SVG Export Plug-In . SVG Version: 2.1.0 Build 151)  -->
  <g id="Shadow_Effect" class="Shadow_Effect">
    <path d="M585.3,738.5c-38.9,36.1-75.9,70.3-111.1,75.1-35.2,4.8-87.4-31.3-105.5-102.6-10-39.2-8.3-98,6.6-130.2,19-40.7,50.5-46.3,66.1-18.9,27.9,48.6,17.2,121.6,21.9,192.3.8,10.5,10.7,16.9,18.6,12.1l199.9-108.6c7.8-4.8,13.9-12.8,16.4-22.3,11.1-37.4,47-159.3-1-335.7C645.1,73.7,413.3,11.6,247.2,111.6,132.2,181,15.4,407.9,68.6,687.3c53.2,279.4,266,378.8,442.7,364.3s317.9-137,316.4-180c-.7-27.5-55.1-89.3-92.1-114-37.1-24.7-110.1-64-132.1-37.4l-18,18.3h0Z" class="shadow-effect" style="display:none" fill="#000000" fill-opacity="1"/>
  </g>
  <g id="BASE">
    <path d="M711.1,749.2c-40.9,38-79.9,74-116.9,79.1s-92-32.9-111-108c-10.5-41.3-8.7-103.2,7-137,20-42.8,53.2-48.7,69.6-19.9,29.4,51.2,18.1,128,23.1,202.4.8,11,11.3,17.8,19.6,12.7l210.4-114.3c8.2-5,14.6-13.5,17.3-23.5,11.7-39.4,49.5-167.7-1-353.4C774,49.5,530-15.9,355.2,89.3c-121.1,73.1-244,311.9-188,606,56,294.1,280,398.7,466,383.5s334.6-144.2,333-189.5c-.7-29-58-94-97-120s-115.9-67.4-139-39.4l-19,19.3h0Z" fill="#ff430a" shape-rendering="geometricPrecision"/>
  </g>
</svg></g></g></svg>