<?xml version="1.0" encoding="UTF-8" standalone="no"?>
<svg xmlns="http://www.w3.org/2000/svg" width="583" height="327.94" viewBox="0 0 583 327.94"><path fill="#ffeb3b" d="M0 0h583v328H0z"/><g><g transform="translate(291.5, 163.96875) scale(0.8086130136986301) translate(-189.8, -96) translate(-28, 0) matrix(1, 0, 0, 1, 0, 0)"><svg xmlns="http://www.w3.org/2000/svg" width="200" height="200" overflow="visible" shape-rendering="geometricPrecision" viewBox="0 0 1080 1080"><g><path fill="none" stroke="#ff740a" stroke-linecap="round" stroke-linejoin="round" stroke-width="150" d="M921 891c-19-57-56-162-109-288-84-203-189-459-299-535-77-58-145-37-195 28-29 39-56 98-76 151q-32 76-60 201c-81 379 48 612 48 612s56 2 153-4c47-3 77-13 94-21h0q17-11 12-31c-6-14-16-56-22-81l134-20 46 139c-5 4 102 11 177-21q45-21 72-43c25-21 35-55 25-87M448 731v-20h0q4-78 25-158c21 45 47 101 64 153-27 6-61 14-89 25"/></g><g><path fill="none" stroke="#fff27c" stroke-linecap="round" stroke-linejoin="round" stroke-width="50" d="M921 891c-19-57-56-162-109-288-84-203-189-459-299-535-77-58-145-37-195 28-29 39-56 98-76 151q-32 76-60 201c-81 379 48 612 48 612s56 2 153-4c47-3 77-13 94-21h0q17-11 12-31c-6-14-16-56-22-81l134-20 46 139c-5 4 102 11 177-21q45-21 72-43c25-21 35-55 25-87M448 731v-20h0q4-78 25-158c21 45 47 101 64 153-27 6-61 14-89 25"/></g></svg></g><g transform="translate(291.5, 163.96875) scale(0.8086130136986301) translate(-189.8, -96) translate(84.44, 0) matrix(1, 0, 0, 1, 0, 0)"><svg xmlns="http://www.w3.org/2000/svg" width="200" height="200" overflow="visible" shape-rendering="geometricPrecision" viewBox="0 0 1080 1080"><g><path fill="none" stroke="#ff740a" stroke-linecap="round" stroke-linejoin="round" stroke-width="150" d="M882 705c-88-108-240-131-240-131s223-58 219-216C856 161 642 51 425 41c-136-7-226 31-226 31l-1 6c-8 24-45 147-24 410 27 344 146 514 183 560l13 17h1s226 17 388-58c162-74 210-193 122-302ZM430 565c-4-46-2-85-1-107h0c109 0 131 24 131 46 1 26-76 46-126 60zm63 230q-34-63-49-130c72 7 179 26 183 71 3 35-67 52-134 59"/></g><g><path fill="none" stroke="#fff27c" stroke-linecap="round" stroke-linejoin="round" stroke-width="50" d="M882 705c-88-108-240-131-240-131s223-58 219-216C856 161 642 51 425 41c-136-7-226 31-226 31l-1 6c-8 24-45 147-24 410 27 344 146 514 183 560l13 17h1s226 17 388-58c162-74 210-193 122-302ZM430 565c-4-46-2-85-1-107h0c109 0 131 24 131 46 1 26-76 46-126 60zm63 230q-34-63-49-130c72 7 179 26 183 71 3 35-67 52-134 59"/></g></svg></g><g transform="translate(291.5, 163.96875) scale(0.8086130136986301) translate(-189.8, -96) translate(201.6, 0) matrix(1, 0, 0, 1, 0, 0)"><svg xmlns="http://www.w3.org/2000/svg" width="200" height="200" overflow="visible" shape-rendering="geometricPrecision" viewBox="0 0 1080 1080"><g><path fill="none" stroke="#ff740a" stroke-linecap="round" stroke-linejoin="round" stroke-width="150" d="M711 749c-41 38-80 74-117 79s-92-33-111-108c-10-41-8-103 7-137 20-42 53-48 70-20 29 52 18 128 23 203 1 11 11 18 20 13l210-115q13-8 17-23c12-40 50-168-1-354C774 50 530-16 355 89c-121 73-244 312-188 606s280 399 466 384 335-144 333-190c0-29-58-94-97-120s-116-67-139-39z"/></g><g><path fill="none" stroke="#fff27c" stroke-linecap="round" stroke-linejoin="round" stroke-width="50" d="M711 749c-41 38-80 74-117 79s-92-33-111-108c-10-41-8-103 7-137 20-42 53-48 70-20 29 52 18 128 23 203 1 11 11 18 20 13l210-115q13-8 17-23c12-40 50-168-1-354C774 50 530-16 355 89c-121 73-244 312-188 606s280 399 466 384 335-144 333-190c0-29-58-94-97-120s-116-67-139-39z"/></g></svg></g><g transform="translate(291.5, 163.96875) scale(0.8086130136986301) translate(-189.8, -96) translate(-28, 0) matrix(1, 0, 0, 1, 17, 0)"><svg xmlns="http://www.w3.org/2000/svg" width="200" height="200" overflow="visible" shape-rendering="geometricPrecision" viewBox="0 0 1080 1080"><g class="Shadow_Effect"><path fill="none" stroke="#ff740a" stroke-linecap="round" stroke-linejoin="round" stroke-width="125" d="M779 874C707 707 454-168 207 119 2 412 40 923 123 1034c0 0 53 2 145-4q66-6 89-20h0c11-5 16-18 12-29-6-13-16-53-21-77l127-19 44 132c32 19 301-17 260-143M330 722v-19h0c2-48 11-101 23-150 21 42 45 95 62 145-26 5-58 13-85 24" class="shadow-effect"/></g></svg></g><g transform="translate(291.5, 163.96875) scale(0.8086130136986301) translate(-189.8, -96) translate(84.44, 0) matrix(1, 0, 0, 1, 17, 0)"><svg xmlns="http://www.w3.org/2000/svg" width="200" height="200" overflow="visible" shape-rendering="geometricPrecision" viewBox="0 0 1080 1080"><g class="Shadow_Effect"><path fill="none" stroke="#ff740a" stroke-linecap="round" stroke-linejoin="round" stroke-width="125" d="M765 698c-83-103-228-125-228-125 516-189-18-638-420-476-86 234 15 815 162 943 86 27 690-52 486-342M336 565c-4-45-2-82-1-103h0c103 1 124 23 124 45 1 25-77 45-124 58Zm60 218q-33-60-47-124c161 8 270 99 47 124" class="shadow-effect"/></g></svg></g><g transform="translate(291.5, 163.96875) scale(0.8086130136986301) translate(-189.8, -96) translate(201.6, 0) matrix(1, 0, 0, 1, 17, 0)"><svg xmlns="http://www.w3.org/2000/svg" width="200" height="200" overflow="visible" shape-rendering="geometricPrecision" viewBox="0 0 1080 1080"><g class="Shadow_Effect"><path fill="none" stroke="#ff740a" stroke-linecap="round" stroke-linejoin="round" stroke-width="125" d="M585 739c-39 36-76 70-111 75-35 4-87-32-105-103-10-39-9-98 6-130 19-41 51-47 66-19 28 48 18 121 22 192 1 11 11 17 19 12l200-108q12-8 16-23c11-37 47-159-1-335C645 74 413 12 247 112 132 181 15 408 69 687c53 280 266 379 442 365s318-137 317-180c-1-28-55-90-92-114-38-25-111-64-133-38z" class="shadow-effect"/></g></svg></g><g transform="translate(291.5, 163.96875) scale(0.8086130136986301) translate(-189.8, -96) translate(-28, 0) matrix(1, 0, 0, 1, 17, 0)"><svg xmlns="http://www.w3.org/2000/svg" width="200" height="200" overflow="visible" shape-rendering="geometricPrecision" viewBox="0 0 1080 1080"><g class="Shadow_Effect"><path fill="#fff27c" stroke="#fff27c" stroke-linecap="round" stroke-linejoin="round" stroke-width="25" d="M779 874C707 707 454-168 207 119 2 412 40 923 123 1034c0 0 53 2 145-4q66-6 89-20h0c11-5 16-18 12-29-6-13-16-53-21-77l127-19 44 132c32 19 301-17 260-143M330 722v-19h0c2-48 11-101 23-150 21 42 45 95 62 145-26 5-58 13-85 24" class="shadow-effect"/></g></svg></g><g transform="translate(291.5, 163.96875) scale(0.8086130136986301) translate(-189.8, -96) translate(84.44, 0) matrix(1, 0, 0, 1, 17, 0)"><svg xmlns="http://www.w3.org/2000/svg" width="200" height="200" overflow="visible" shape-rendering="geometricPrecision" viewBox="0 0 1080 1080"><g class="Shadow_Effect"><path fill="#fff27c" stroke="#fff27c" stroke-linecap="round" stroke-linejoin="round" stroke-width="25" d="M765 698c-83-103-228-125-228-125 516-189-18-638-420-476-86 234 15 815 162 943 86 27 690-52 486-342M336 565c-4-45-2-82-1-103h0c103 1 124 23 124 45 1 25-77 45-124 58Zm60 218q-33-60-47-124c161 8 270 99 47 124" class="shadow-effect"/></g></svg></g><g transform="translate(291.5, 163.96875) scale(0.8086130136986301) translate(-189.8, -96) translate(201.6, 0) matrix(1, 0, 0, 1, 17, 0)"><svg xmlns="http://www.w3.org/2000/svg" width="200" height="200" overflow="visible" shape-rendering="geometricPrecision" viewBox="0 0 1080 1080"><g class="Shadow_Effect"><path fill="#fff27c" stroke="#fff27c" stroke-linecap="round" stroke-linejoin="round" stroke-width="25" d="M585 739c-39 36-76 70-111 75-35 4-87-32-105-103-10-39-9-98 6-130 19-41 51-47 66-19 28 48 18 121 22 192 1 11 11 17 19 12l200-108q12-8 16-23c11-37 47-159-1-335C645 74 413 12 247 112 132 181 15 408 69 687c53 280 266 379 442 365s318-137 317-180c-1-28-55-90-92-114-38-25-111-64-133-38z" class="shadow-effect"/></g></svg></g><g transform="translate(291.5, 163.96875) scale(0.8086130136986301) translate(-189.8, -96) translate(-28, 0) matrix(1, 0, 0, 1, 0, 0)"><svg xmlns="http://www.w3.org/2000/svg" width="200" height="200" overflow="visible" shape-rendering="geometricPrecision" viewBox="0 0 1080 1080"><g><path fill="none" stroke="#fff27c" stroke-linecap="round" stroke-linejoin="round" stroke-width="50" d="M921 891c-19-57-56-162-109-288-84-203-189-459-299-535-77-58-145-37-195 28-29 39-56 98-76 151q-32 76-60 201c-81 379 48 612 48 612s56 2 153-4c47-3 77-13 94-21h0q17-11 12-31c-6-14-16-56-22-81l134-20 46 139c-5 4 102 11 177-21q45-21 72-43c25-21 35-55 25-87M448 731v-20h0q4-78 25-158c21 45 47 101 64 153-27 6-61 14-89 25"/></g></svg></g><g transform="translate(291.5, 163.96875) scale(0.8086130136986301) translate(-189.8, -96) translate(84.44, 0) matrix(1, 0, 0, 1, 0, 0)"><svg xmlns="http://www.w3.org/2000/svg" width="200" height="200" overflow="visible" shape-rendering="geometricPrecision" viewBox="0 0 1080 1080"><g><path fill="none" stroke="#fff27c" stroke-linecap="round" stroke-linejoin="round" stroke-width="50" d="M882 705c-88-108-240-131-240-131s223-58 219-216C856 161 642 51 425 41c-136-7-226 31-226 31l-1 6c-8 24-45 147-24 410 27 344 146 514 183 560l13 17h1s226 17 388-58c162-74 210-193 122-302ZM430 565c-4-46-2-85-1-107h0c109 0 131 24 131 46 1 26-76 46-126 60zm63 230q-34-63-49-130c72 7 179 26 183 71 3 35-67 52-134 59"/></g></svg></g><g transform="translate(291.5, 163.96875) scale(0.8086130136986301) translate(-189.8, -96) translate(201.6, 0) matrix(1, 0, 0, 1, 0, 0)"><svg xmlns="http://www.w3.org/2000/svg" width="200" height="200" overflow="visible" shape-rendering="geometricPrecision" viewBox="0 0 1080 1080"><g><path fill="none" stroke="#fff27c" stroke-linecap="round" stroke-linejoin="round" stroke-width="50" d="M711 749c-41 38-80 74-117 79s-92-33-111-108c-10-41-8-103 7-137 20-42 53-48 70-20 29 52 18 128 23 203 1 11 11 18 20 13l210-115q13-8 17-23c12-40 50-168-1-354C774 50 530-16 355 89c-121 73-244 312-188 606s280 399 466 384 335-144 333-190c0-29-58-94-97-120s-116-67-139-39z"/></g></svg></g><g transform="translate(291.5, 163.96875) scale(0.8086130136986301) translate(-189.8, -96) translate(-28, 0) matrix(1, 0, 0, 1, 0, 0)"><svg xmlns="http://www.w3.org/2000/svg" width="200" height="200" overflow="visible" shape-rendering="geometricPrecision" viewBox="0 0 1080 1080"><g><path fill="#ff430a" d="M921 891c-19-57-56-162-109-288-84-203-189-459-299-535-77-58-145-37-195 28-29 39-56 98-76 151q-32 76-60 201c-81 379 48 612 48 612s56 2 153-4c47-3 77-13 94-21q17-11 12-31c-6-14-16-56-22-81l134-20 46 139c-5 4 102 11 177-21q45-21 72-43c25-21 35-55 25-87M448 731v-20q4-78 25-158c21 45 47 101 64 153-27 6-61 14-89 25"/></g></svg></g><g transform="translate(291.5, 163.96875) scale(0.8086130136986301) translate(-189.8, -96) translate(84.44, 0) matrix(1, 0, 0, 1, 0, 0)"><svg xmlns="http://www.w3.org/2000/svg" width="200" height="200" overflow="visible" shape-rendering="geometricPrecision" viewBox="0 0 1080 1080"><g><path fill="#ff430a" d="M882 705c-88-108-240-131-240-131s223-58 219-216C856 161 642 51 425 41c-136-7-226 31-226 31l-1 6c-8 24-45 147-24 410 27 344 146 514 183 560l13 17h1s226 17 388-58c162-74 210-193 122-302ZM430 565c-4-46-2-85-1-107 109 0 131 24 131 46 1 26-76 46-126 60zm63 230q-34-63-49-130c72 7 179 26 183 71 3 35-67 52-134 59"/></g></svg></g><g transform="translate(291.5, 163.96875) scale(0.8086130136986301) translate(-189.8, -96) translate(201.6, 0) matrix(1, 0, 0, 1, 0, 0)"><svg xmlns="http://www.w3.org/2000/svg" width="200" height="200" overflow="visible" shape-rendering="geometricPrecision" viewBox="0 0 1080 1080"><g><path fill="#ff430a" d="M711 749c-41 38-80 74-117 79s-92-33-111-108c-10-41-8-103 7-137 20-42 53-48 70-20 29 52 18 128 23 203 1 11 11 18 20 13l210-115q13-8 17-23c12-40 50-168-1-354C774 50 530-16 355 89c-121 73-244 312-188 606s280 399 466 384 335-144 333-190c0-29-58-94-97-120s-116-67-139-39z"/></g></svg></g></g></svg>