<?xml version="1.0" encoding="UTF-8"?>
<svg id="Layer_1" xmlns="http://www.w3.org/2000/svg" version="1.1" viewBox="0 0 1080 380">
  <!-- Generator: Adobe Illustrator 29.3.1, SVG Export Plug-In . SVG Version: 2.1.0 Build 151)  -->
  <path d="M591.8,61.4c-6.3-5.3-13.4-14.8-22-14.7-14.1,4.2-26.9,11.2-39.6,18.6-53.8,28.5-108.6,55.8-159,90.3-.5-.1-.9-.2-1.2.1-.3.3-.3.6-.2,1.1-.2.2-.5.5-.7.8,0,0,0,0,0,0,1.9,8.7,11.6,16.3,19.2,20.7,14.1-1.4,26.5-12.1,39.6-17.6,1-.5,2.1-1,3.1-1.6-4.2,23.7-5,48-5.6,72,.2,10.9-1.1,22.1,2,32.7,8.7,17.2,24,31.8,40.3,41.7,10.6,5.9,5.5-13.8,6.6-19.4,0-21.1-.2-42.1,0-63.2-.4-21,2.7-42.3-.5-63-1.7-6.5-5.9-11.8-10.5-16.7,7.8-3.8,15.7-7.5,23.6-11.1,20.1-9.2,40.5-17.6,61.2-25.3,19.5-7.7,40.4-12.1,58.4-23.2,1-7.1-10.1-16.7-14.7-22ZM389.2,176.2c-.2,0-.3,0-.5,0,.2,0,.4,0,.6-.1,0,0,0,0,0,.1,0,0,0,0,0,0,0,0-.1,0-.2,0Z"/>
  <path d="M495,263.2c-28.4-18.8-31.6-33.8-9.3-60.1-13.4-.5-23.7-11.1-31-21.4-8.1-15.8,14.3-27.3,24.8-35.2,18.5-10.6,46.8-30.9,68.6-23.5,7.2,4.9,16.8,11.7,18.6,20.4-.2.2-.5.2-.8.2,3.4,1.5-18.3,5.7-20.6,7.6-20.9,8.3-40.4,19.4-59.5,31.2,17-3.3,34.2-6.7,50.7-11.8,6.9-2.1,15.3-10,22.1-4.4,4.9,4.3,12.7,9.6,13.4,16.2,0,0,0,0,.1.1-26.5,15.9-52.6,32.9-70.1,59.3,19.1-5.1,37.4-13.3,54.4-23.5,7.7,1.3,14.7,10.7,19,17.1,2.9,3.6-10.2,6.6-12.6,8.8-20.7,9.4-44.2,26.7-67.8,19Z"/>
  <path d="M593.1,266.4c-11.6-.2-19.9-10.6-27-18.6-11.8-12.6-3.7-32.1,6.6-43-42.4-22.4-20.9-54.5,13.6-69.8,13-5.8,38.4-22.5,50.6-10,1,.9,6.2,6,3.7,6.1.4.4.8.8,1.3,1.2-24.7,13.9-52.2,29.2-67.8,54.3,8.5-.4,17-1.5,25.4-2.6,20.7-12.6,36.7-24.9,53.6.2.3.3,3,4.3,1.8,4.9-7.9,4.2-15.1,9.8-22.6,14.7-12.9,9.1-24.7,19.9-35,32,18.2-5.8,35.2-14.6,52.1-23.5,9.9,1,22.3,16.4,27.5,24.7.2.3,1.4,2.9.5,3.3-9.2,4.1-18.9,7.3-28.5,10.6-18.3,5.7-36.4,14.4-55.7,15.6Z"/>
  <path d="M1044.1,175.2c0-3.6-.2-7.1-1-10.6-1.1-4.9-2.5-9.6-4.7-14.1-9.9-20.8-24-39.6-40.3-55.8-8.4-8.4-18.3-15.7-29.1-20.7-8.3-3.8-17.1-6.5-26.1-8.2-18-3.5-36.8-2.9-54.8,0-18.9,3.1-37.4,8.7-54.8,16.6-16.8,7.5-32.9,17.3-47,29.1-14.4,12.1-27,26.4-35.5,43.3-.1,1.8.1,3.5.8,5.1.5,1.2.9,2.4,1.4,3.6,1.4,3,2.9,6,4.6,8.9,2,3.5,4.2,6.9,6.5,10.2-2.6,6-4.7,12.2-5.5,18.7-1.3,9.4-.3,18.8,3.3,27.6,2.5,6.2,6,12,9.7,17.5,4.5,6.6,9.8,12.8,15.6,18.4,8.2,7.8,17.6,14,28,18.4,16.8,7.2,35,10.1,53.2,10.1,2.2,0,4.5,0,6.7-.1,9.6-.4,19.3-1,28.7-3,9.8-2.1,19.5-4.6,29-7.8,9.2-3,18.1-6.8,26.9-11.1,8.6-4.2,16.8-8.8,24.7-14.2,7.9-5.4,15.3-11.3,22.7-17.3,3.6-2.9,7.2-5.7,10.4-9.1,3.2-3.3,6.2-6.7,9-10.3,5.3-7,10-14.7,13.3-22.9,1.4-3.6,2.6-7.3,3.7-11,1-3.7,1.1-7.5,1-11.3ZM1002.6,144.6c-.5,3.5-1.3,7-2.3,10.5-2,7-5,13.7-8.5,20.2-3.2,5.7-6.9,11.2-10.7,16.6-2,2.8-3.9,5.6-6.1,8.2-2.2,2.5-4.5,4.9-6.9,7.2-7,6.8-14.8,12.7-22.9,18-7.9,5.3-16.1,10.2-24.7,14.4-8.4,4.1-17.1,7.9-26,10.9-8.9,2.9-17.9,5.2-27,7.3-4.1.9-8.3,1.6-12.4,2.2-9.5,1.3-19.2,1.7-28.8,1.1-9-.5-17.8-1.6-26.4-4.2-5.5-1.8-10.7-4-15.7-6.8-1.7-1-3.3-2.1-4.9-3.3-.5-.4-1.1-.9-1.6-1.3,0,0,0,0,0-.1-.4-1-.8-1.9-1.2-2.9-.6-1.8-1.2-3.5-1.7-5.4-1-4.2-1.4-8.4-1.5-12.7,0-6.6.8-13.3,2.6-19.7.5-1.6,1-3.2,1.6-4.7,2.1,2.3,4.2,4.6,6.5,6.7,2,2,4.2,3.8,6.5,5.5,1.4,1.1,3,1.8,4.7,2.2,1.2.1,1.9-.4,2.2-1.6.4-.8.8-1.5,1.2-2.3,6.4-11.3,14.6-21.4,23.9-30.3,13.7-13.1,29.6-24,46.5-32.6,16.1-8.2,33.2-14.4,50.8-18.4,7.9-1.7,15.8-3,23.8-3.7,17.8-1.6,35.9-.8,53.1,4.2,2.1.7,4.3,1.4,6.3,2.3,0,.7,0,1.4,0,2,0,3.6,0,7.1-.5,10.6Z"/>
  <path d="M656.7,325.4c-.7-.4-1.4-.8-2.1-1.2-1.9-1.1-3.8-2.1-5.8-3-4-1.9-8.2-3.6-12.4-5.2-9.1-3.6-18.2-6.9-27.6-9.4-6.3-1.7-12.7-3.1-19.1-4.3-9.3-1.7-18.6-3.1-28-4-4.8-.5-9.6-.7-14.3-1.4-4.6-.6-9.1-1-13.7-1-7.1.1-14.1.7-21.1,1.8-3.3.5-6.5,1.2-9.7,2.1-.3,0-.7.2-1,.2-.6-1.3-1.2-2.5-1.7-3.7-1.9-4-3.7-8.1-5.8-12.1.2-.2.4-.4.6-.6,1.7-1.7,3.7-3.1,5.8-4.3,4.3-2.4,9-4,13.8-5.3,4.7-1.3,9.6-2.1,14.4-2.9,4.3-.7,8.6-1.7,13-2.3,4.5-.7,9.1-.8,13.6-.8,4.7,0,9.5,0,14.2.2,9.4.4,18.8,1.3,28.2,2.6,4.6.7,9.3,1.5,13.9,2.3,4.6.8,9.2,1.7,13.7,2.9,7.9,2.1,15.7,5.3,23,9.2.1,0,.2-.1.4-.2,1.1-.3,2.2,1.3,2.7,2.1,0,0,0,0,0,0,.8,1,1.5,2.1,2.1,3.2.8,1.7,1.6,3.3,2.2,5.1,1.7,4.5,2.9,9.1,3.9,13.8.8,4,1.5,8.2,1.5,12.3,0,.5,0,6.1-1.9,5.5-.2,0-.4.1-.6.1-.8,0-1.6-.9-2.3-1.9ZM656.4,298c-1.1-2.7-2.2-5.5-3.3-8.2-.2-.4-.5-.7-.7-1.1,1.3,3.1,2.7,6.2,4,9.3Z"/>
  <g>
    <path d="M436.2,216c-21.9-34.3-66.7-31.8-102-25.5,27.7-24.8,53.9-51.5,78.2-79.6,8.3-10,18.3-15.8,7.3-28.5-15.6-20.6-39-42.8-67-35.1-40.7,9.4-74.6,36.2-108.7,58.9-22.8,20.7-116.5,87.3-99.4,119.6,21.2,33.5,47.1,32.7,82.1,24.3,50.6-14.2,102.8-19.5,154.7-26.8-24,13.8-49.1,25.5-74.5,36.1-.3.2-.5.3-.8.5-.8.4-1.6.8-2.4,1.1-1.5.6-2.9,1.2-4.4,1.8-2.6,1-5.3,2-7.9,2.9-.4.1-.8.3-1.1.4,0,0,0,0,0,0,0,0,0,0,0,0-1.5.6-3,1.3-4.5,1.9,3.3,5.6,6.4,11.4,8.7,17.6,3.9,7.4,10.2,14.2,17.4,18.7,1.1-.5,2.2-1,3.3-1.5,0,0,0,0,0,0,0,0,0,0,0,0,.1,0,.2,0,.3-.1,0,0,0,0,0,0,1.8-.8,3.7-1.7,5.5-2.5,0,0,0,0,0,0,0,0,0,0,0,0,0,0,.2,0,.2-.1,0,0-.1,0-.2,0,.7-.3,1.4-.6,2-1,.2-.1.3-.2.5-.3.5-.3,1.1-.5,1.6-.8.2,0,.4-.2.6-.2,6.8-3.3,13.4-6.7,20.2-10,4.1-2,8.2-3.9,12.2-5.9.8-.4,1.5-.8,2.3-1.1,1.6-.9,3.1-1.8,4.7-2.7,3.6-1.9,7.4-3.6,11-5.7,3.4-2,6.9-4,10.4-5.8.8-.5,1.7-1.1,2.5-1.6,0,0,0,0,0,0,.5-.3,1-.7,1.5-1,1.4-.9,2.9-1.9,4.2-2.8.3-.9.8-1.8,1.8-2.3,0,0,0,0,0,0,.2-.1.5-.2.7-.3,0,0,0,0,.1,0,.2,0,.5,0,.7-.1,0,0,0,0,.1,0,.3,0,.5,0,.8,0,0,0,0,0,0,0,.3,0,.5.1.8.2.2,0,.3.2.5.3,17.3-9.6,32.6-20.6,38.7-32.3,1.5-3.7-.7-7.6-2.9-10.6ZM199.4,219.6c49.5-45.1,104.2-85.6,163.1-117.6,2.5-1.2,5.1-2.4,7.7-3.5-19.7,27.6-43.1,52.4-64.1,78.9.3,0,.6.1.8.2-3.3,3.1,9,13.2,11.8,15.5-40.2,7-80.3,14.1-119.3,26.5Z"/>
    <path d="M228.4,334.9c.2,0,.4-.1.6-.2,0,0,0,0-.1,0-.1,0-.3,0-.5.1Z"/>
    <path d="M269.9,299c-3.7-5.4-7.9-10.7-12.7-15.3-1.1-1-2.3-2.3-3.7-3.2-4,1.5-8.1,2.9-12.1,4.4-5.5,1.9-11,3.9-16.7,5.3-.2,0-.3.1-.5.2-3,1.1-5.9,2.2-8.9,3.2-3.6,1.2-7.2,2.1-10.9,3.2-8.8,2.6-17.5,5.5-26.4,8.1-8.2,2.4-16.4,4.6-24.8,6.5-6.2,1.4-12.7,2.6-19.1,3.8-6.4,1.2-12.8,2.3-19.3,3.1-8.5,1-17,1.4-25.6,1.5-8,0-16.3-.8-24-3.1-3.6-1.2-7-2.6-10.3-4.4-.9-.5-1.7-1.1-2.5-1.6,0-.1,0-.2-.1-.3-.5-1.4-.9-2.7-1.3-4.1-.5-2.4-.8-4.9-1.1-7.3-.2-1.8-.6-3.7-.6-5.6,0-9,2.2-17.7,5.1-26.1.8-2.1,1.6-4.2,2.4-6.4.7-1.8,1.2-3.6,2-5.4,1.7-4.1,3.7-8.2,5.9-12.1,2.6-4.6,5.7-8.9,8.6-13.3,5.1-7.4,10.7-14.5,16.5-21.4,2.9-3.5,5.9-7.1,8.9-10.5,2.9-3.3,6-6.5,9.1-9.6,6.3-6.5,12.8-12.9,19.3-19.2,3.4-3.2,6.7-6.5,10.2-9.7,3.3-3,6.7-6,10-9,6.9-6.1,14.1-11.9,21.4-17.6,3.6-2.8,7.2-5.5,10.7-8.5,1.6-1.3,3.2-2.7,4.6-4.2.5-.5.9-1.1,1.1-1.8.2-.4.3-.9.4-1.4,0,0,0-.1.2-.2.5-.3-2-3.9-2.6-3.5,0,0,0,0-.1,0-.3,0-.7,0-1,0-.3,0-.6,0-.9,0-.9,0-1.7.3-2.5.6-2.3.9-4.4,2-6.6,3.2-4.6,2.5-9,5.3-13.4,8.2-3.8,2.4-7.6,5-11.3,7.6-3.8,2.6-7.6,5.2-11.4,7.8-3.6,2.6-7.1,5.2-10.6,7.9-3.7,2.8-7.4,5.6-11,8.6-6.9,5.8-13.7,11.8-20.1,18.2-6.2,6.3-12.5,12.6-18.2,19.3-5.9,6.9-11.4,14.2-16.5,21.8-2.5,3.7-4.7,7.5-7,11.4-2.3,3.7-4.4,7.5-6.5,11.3-1.6,2.8-3.1,5.6-4.3,8.6-1.4,3.5-2.6,7.1-3.6,10.7-1,3.6-1.8,7.2-2.4,10.9-.4,2.6-.5,5.3-1,7.9-.7,3.7,0,7.6.7,11.2.8,4.1,2.1,8.2,3.8,12,3.2,7.1,7.6,13.7,12.5,19.7,5,6.1,10.5,11.7,16.8,16.4,8.1,6.1,17.5,10.3,27.1,13.4,4.9,1.6,9.9,2.8,15,3.8.7.1,1.4.3,2.1.4,8.4-.4,16.8-1,25.2-2,4.4-.5,8.7-.9,13.1-1.5,4.3-.5,8.7-1.3,13-1.8,2.1-.3,4.2-.6,6.3-.9-.1,0-.2,0-.4,0,.2,0,.5,0,.7-.1,0,0,0,0-.1,0,0,0,0,0,.1,0,0,0,0,0,0,0,0,0,0,0,0,0,0,0,0,0,0,0,0,0,0,0,0,0,0,0,0,0,0,0,4.9-.9,9.8-1.6,14.7-2.4,3.6-.6,7.2-1.5,10.7-2.3,3.7-.8,7.4-1.7,11-2.7,3.5-1,7.1-2,10.6-2.9,3.7-1,7.4-1.9,11-3.1,0,0,.1,0,.2,0,0,0,0,0,0,0,0,0,0,0,0,0,7.4-2.3,14.8-4.5,22.2-6.9,3.9-1.2,7.7-2.6,11.6-4,1.2-.6,2.4-1.1,3.7-1.7,2-.9,3.9-1.8,5.9-2.8,1-.5,2.1-1,3.1-1.5,0,0,0,0,0,0,.5.2,1,.4,1.5.5,2.4,0,1.3-3.6.8-4.8-1.9-5.2-4.8-10-8-14.5Z"/>
    <path d="M320.9,300.1s0,0,0,0h0s0,0,0,0Z"/>
  </g>
  <path d="M679,116.5c-2-.9-14.7-12.3-10.8-13.5.4-.3.6-.8.8-1.3.2-.5.3-1.1.4-1.6-.5-1.4-5.9-11.3-2.2-10.2-2.7-3.5-3.5-7.3,1.9-3.3,1.9.3,22.5,22.5,13.6,18.9-.2.1-.6,0-.9,0,0,0-.2,0-.2,0,.2.7,1.3,2.5,0,2.6.1.5.2,1.1.3,1.6,0,.4.2,1.1-.1,1.5,0,0,0,0,0,0-.1.2-.4.2-.8.1-.3,0-.5-.2-.8-.3-.1,2.3,4.4,8.9-1,5.6Z"/>
  <g>
    <path d="M679.2,97.9c1.4,1.6,2.9,3.4,3.8,5.3-3.2-7.3-5.4-9-6.9-8.7,1.1,1.1,2.1,2.2,3.1,3.3Z"/>
    <path d="M803,241.4c-4.2-5.9-9.1-11.3-14.2-16.4-6.9-6.8-14.2-13.5-22.8-18.1-1.2-.8-2.4-1.1-3.6-1.2-1.7-1.7-3.3-3.4-4.9-5.2-2.8-4.2-5.8-8.2-9-12.1-3.8-5-8-9.8-13.3-13.4-5.6-3.9-13.6-7.4-20.1-3.6-1.2.8-2,2.4-2.3,3.8,0,1.6,1,3.2,1.7,4.5,2.6,4.6,5.5,9,8.5,13.4,4.7,7.4,9.3,14.8,14.7,21.6-4.8,2.4-9.6,5-14.2,7.8-11.1,6-22.3,11.6-32.5,19-.4-13.8-1.8-27.6-2.6-41.3-1-20.7-1.6-41.3-2.4-62-.3-8.4-.4-16.8-.9-25.2-.2-5.2-1.5-10.3-5.1-14.3-2.2-.3-4.3-.7-6.5-1,.2-.4.4-.9.7-1.5.5-.8,1.1-1.6,1.9-1.8-3-2.7-6.1-6.3-10.1-7.2-3.5,0-4.1,5.4-4.9,8-3.3,16.1-3.9,32.6-4.9,48.9-1.3,24-1.4,48.1-1.1,72.2-.1,10.2.2,20.7,3.8,30.3,1.8,5.1,4.4,9.9,6,15.1,3.7,10.4,19.7,25.3,29.3,30.5,6.6,3.6,13.7-1.2,19.8-3.7,8.3-4.2,16.5-8.5,25.2-11.8,17.7-6.7,35.5-13.4,53.5-19.1,4.9-1.6,10.2-2.2,15-4.3,1.9-2.9-3.1-9.5-4.8-12.1Z"/>
  </g>
</svg>