<?xml version="1.0" encoding="UTF-8"?>
<svg id="Layer_1" xmlns="http://www.w3.org/2000/svg" version="1.1" xmlns:xlink="http://www.w3.org/1999/xlink" viewBox="0 0 914.7 338.7">
  <!-- Generator: Adobe Illustrator 29.3.1, SVG Export Plug-In . SVG Version: 2.1.0 Build 151)  -->
  <defs>
    <style>
      .st0 {
        fill: url(#linear-gradient2);
      }

      .st1 {
        fill: #fff;
      }

      .st2 {
        fill: url(#linear-gradient1);
      }

      .st3 {
        fill: none;
      }

      .st4 {
        isolation: isolate;
      }

      .st5 {
        fill: url(#linear-gradient4);
      }

      .st6 {
        fill: url(#linear-gradient3);
      }

      .st7 {
        fill: url(#linear-gradient);
      }
    </style>
    <linearGradient id="linear-gradient" x1="297.8" y1="44.8" x2="311" y2="412.8" gradientTransform="translate(-47.6 0) skewX(8.7)" gradientUnits="userSpaceOnUse">
      <stop offset="0" stop-color="#1e003b"/>
      <stop offset=".1" stop-color="#22033f"/>
      <stop offset=".3" stop-color="#2e0d4e"/>
      <stop offset=".4" stop-color="#431f66"/>
      <stop offset=".6" stop-color="#5f3788"/>
      <stop offset=".8" stop-color="#8455b3"/>
      <stop offset=".9" stop-color="#b07ae7"/>
      <stop offset="1" stop-color="#c58cff"/>
    </linearGradient>
    <linearGradient id="linear-gradient1" x1="157.7" y1="98.4" x2="169.5" y2="427.4" xlink:href="#linear-gradient"/>
    <linearGradient id="linear-gradient2" x1="722.9" y1="32.7" x2="737.2" y2="430.9" gradientTransform="matrix(1,0,0,1,0,0)" xlink:href="#linear-gradient"/>
    <linearGradient id="linear-gradient3" x1="434.7" y1="89" x2="443.4" y2="331.8" gradientTransform="matrix(1,0,0,1,0,0)" xlink:href="#linear-gradient"/>
    <linearGradient id="linear-gradient4" x1="434.2" y1="218.8" x2="450.1" y2="385.5" gradientTransform="translate(-.8 -12.3) rotate(1.7) scale(1 1) skewX(-.3)" gradientUnits="userSpaceOnUse">
      <stop offset="0" stop-color="#2b0052"/>
      <stop offset=".1" stop-color="#2f0455"/>
      <stop offset=".2" stop-color="#3b1360"/>
      <stop offset=".4" stop-color="#502b72"/>
      <stop offset=".5" stop-color="#6d4d8a"/>
      <stop offset=".7" stop-color="#9278aa"/>
      <stop offset=".8" stop-color="#bfadd1"/>
      <stop offset="1" stop-color="#f4eafe"/>
      <stop offset="1" stop-color="#f5ebff"/>
    </linearGradient>
  </defs>
  <path class="st7" d="M350.3,214.3s0,0,0,0c0,0,0,0,0,0,0,0,0,0,0-.1.5-1.5.9-3,1-4.7,0-1.3,0-2.7,0-4,0-.8-.3-1.6-.6-2.3-.4-1-1-1.9-1.6-2.8-.5-.9-1.1-1.7-1.7-2.6-1.2-1.7-2.5-3.3-4-4.8-2.6-2.7-5.3-5.5-8.4-7.6-1.8-1.2-3.9-2.2-5.9-2.8-3.6-1-7.3-1.3-10.8-1.3-6.6,0-13.2,1-19.4,2.5-3.6.8-7.3,1.7-10.7,2.9,0,0,0,0-.1,0-21.5,4.3-67.9,13.8-77.1,10.1-4.5-1.8-4.4-10.5,5.2-31.8,8.7-19.4,20-34.5,29.5-45.1,7.6-7.8,15.8-14.9,24.6-21.4,11.8-8.8,24.3-16.8,38.2-22.5,4.9-1.9,9.9-3.5,15.1-4.5,5.4-1,11.1-1.5,16.9-.8.6,3.1.7,6.1.6,9.1-.2,4.1-.8,8.1-1.7,12-1.6,6.7-4,13.2-6.9,19.3-2.9,6.3-6.4,12.3-10.1,18.1-3.9,6.2-8.5,11.9-13.1,17.7-2.3,2.9-4.8,5.6-7.2,8.5-1,1.3-2,2.5-2.9,3.9-.4.6-.7,1.2-.9,1.9,0,.3-.1.5-.1.8,0,.5.3,1,.7,1.5.6.9,1.4,1.7,2.2,2.4.8.7,1.6,1.4,2.5,2.1.9.7,2,1.4,3,1.4.5,0,1-.1,1.5-.3,1.2-.4,2.4-1,3.4-1.7,2.4-1.5,4.6-3.4,6.7-5.2,2.7-2.4,5.4-4.7,8-7.1,2.7-2.6,5.2-5.4,7.7-8.1,2.4-2.7,4.8-5.3,7.1-8.1,2.3-2.9,4.5-5.8,6.5-8.9,4.1-6,7.7-12.3,10.4-19.2,2.3-6,4.1-12.4,3.6-19.2-.3-3.6-1.1-7.4-2.9-10.8-2.3-4.4-5.5-8.2-9.1-11.7-5.6-5.5-11.8-10.5-18.7-14-2.9-1.5-6-2.6-9.1-3.2-7.7-1.3-15.2-.6-22.3,1.1-7,1.7-13.7,3.9-20.2,6.6-14.2,5.9-27.2,13.9-39,23.4-11.6,9.3-22.2,19.7-31.5,31.2-8.7,10.8-16.6,22.5-21.2,36-1.1,3.1-2.1,6.4-2.6,9.7-.3,2-.4,4.1-.5,6.2,0,2.2,0,4.4.3,6.7.1.9.2,1.8.4,2.6.2.9.5,1.8.8,2.7.4,1.2.9,2.6,1.6,4,.7,1.5,1.5,3,2.4,4.4,3.3,5.3,7.7,9.7,12.5,13.7,2.6,2.2,5.4,4.3,8.3,5.9.6.4,1.1.8,1.7,1.2,3.7,2.4,7.9,4,12.1,5,1.4.2,2.8.3,4.2.3,2.7,0,5.3-.3,7.9-.5,5.6-.4,11-1.4,16.4-2.4,13.3-2.4,26.4-5.6,39.5-8.8,7.8-1.7,15.4-3.7,23.4-4.6,3.7-.8,7.7-1.2,11.7-1.1-3.4,3.3-12.5,10.6-34.6,21.7-15.3,7.7-34.5,15.4-55.6,22.6l28.4,29.1c.5-.2,1.1-.4,1.6-.6,56-21.3,76.3-37.8,80.9-49.8.7-1.2,1.3-2.4,1.7-3.8Z"/>
  <path class="st2" d="M124.8,266.8c-32.1,4.5-52.7,1.3-57.1-15-8-29.6,46.6-100.2,120.3-143.1-.4-2.8-2.9-5.1-2.9-5.1,0,0-67.7,33.1-110.9,91-25.9,34.6-24.8,58.3-6.1,77.5,20.4,21,61.5,45.9,188.2,0l-29-29.3c-33.1,10.6-69.7,19.4-102.3,24Z"/>
  <path class="st0" d="M893.8,196.6c-2.2-4.3-6.5-12-17.1-21.6s-20.3-14.7-20.3-14.7c0,0-48.3-.2-95.3,18-14.6,5.6-28,12.9-39.4,22,3.8-6.6,7.8-12.9,11.6-18.3,8.4-11.8,21.9-29.8,25.6-34.7.6-.8.6-1.8.2-2.7-2.2-4.1-8.8-15.6-16.1-17.6-2.1-1.1-25.9-11.8-111.7,26.1,12.3-13.1,23.7-29.6,27.4-48.4,9.1-46.6-16.2-60.3-16.2-60.3l-22.4,31.4s10,17.5-1.4,41.6c-8.2,17.3-21.2,33.2-28,40.8-.7-3.2-1.2-6.6-1.4-10.2-1.9-31.7,14.5-68.1,17.6-74.5.3-.6.2-1.3-.3-1.7-2-1.9-7.3-6.7-12-9.5-5.9-3.5-14.8-5.5-14.8-5.5,0,0-28.7,32.8-19.9,89.7,11,71,69,93.5,69,93.5l-2.2-36.8c0-.8-.5-1.5-1.2-1.9-2.9-1.4-11.1-5.9-19-14.1,19.3-6.4,68.4-22.4,89.3-26,3.5-.6,6.9-1.1,10-1.5-12.4,15.4-25.3,33.7-33.8,49.1-13,23.7-19.5,43.5-20,45.2h-.1c0,0,0,.1,0,.1,0,0,0,0,0,0h0s24.3,20.6,24.3,20.6c.6.5,1.4.5,2,0,6.5-5.4,34.5-28.6,63-40.6,56.9-24,142.8-25,156.4-26.7,1.1-.1-3.1-10-3.6-11.1Z"/>
  <path class="st6" d="M410.5,174.2c-1.7-8.3-14.8-23.7-20.1-18.5,0,0-3.7,2.7-3.8,30.5,0,21,2.6,29.7,2.6,29.7,0,0,2.8,5,7,7.9,5.3,3.7,7.8,3.4,8.4,2.3.7-1.1,7.5-43.5,5.8-51.8ZM310.5,170.4c-.4.3-.5.8-.3,1.2.9,1.6,3.2,5.2,6.4,5.3,2.8.2,16.8-3.8,33.5-8.9-1.6,7.3-4.7,25.2.6,41.6,6.9,21.2,19.5,28.7,19.5,28.7,0,0,7.8-2.3,13.1-5.4s8.8-6.5,8.8-6.5c0,0-1.7-3.8-4.8-1.9s4.2.6,1.8-.4c-2.4-1-11.6-1.6-12-25.9s0-33.3,1.3-39.4c28.9-10,49.4-20,54.3-22.4.6-.3.9-1.1.5-1.7-1.2-2.1-4.4-7-9.8-12-4.3-4-9.4-6.2-11.2-6.9-.4-.2-.9-.2-1.3,0-4.1,1.5-26.9,9.9-46.6,19.9-16.3,8.2-48.9,31.3-53.8,34.8ZM503.8,139.6c11.1-20.2,23-41.1,26.5-47.3.6-1.1,2-1.7,3.2-1.3,4.6,1.4,15.3,5.6,16.4,15.2,1.2,10.2,2.5,35.1,3.2,51.9,5.4-1.1,8.5-1.4,10.5-1.8.6-.1,1.1.5.9,1.1l-1.6,6.2c-.2.6-.7,1-1.2,1.1-1.3.3-4.1,1-8.2,2.2,0,.2,0,.5,0,.7.5,15.1-1.3,42.8-1.3,42.8,0,0-9.5-1.6-16.2-9.1-4.3-4.8-4.5-21.2-4.9-27.2-6.1,2.2-13.1,4.8-20.9,7.9-3.3,9.9-6.4,20.8-7.8,25.4-.4,1.5-1.3,2.8-2.5,3.7l-17.1,13.4c-1,.8-2.5.8-3.5,0l-9.3-7.6c-1-.8-1.4-2.2-.8-3.4,1-2.4,3-6.8,5.5-12.5-26,15.9-54.2,35.4-54.2,35.4,0,0-7.7-5.7-10.5-10.6-1.2-2.1-2.3-3.6-2.8-4.6-.3-.6-.3-1.3,0-1.9h-.1c0,0,0,0,.3-.3,0-.2.2-.3.3-.5,5-7.3,40-58.7,54.6-77.7-17.1,7.1-38.9,21.9-44.7,25.8-.8.5-1.8.3-2.2-.6l-4.2-8.4c-.3-.6-.2-1.3.3-1.9,3.2-3.6,16.7-17.7,36.6-29.6,20.2-12.1,41.8-18.5,46.6-19.8.4-.2.7-.3,1-.3,3.4.3,9.8,9.7,9.8,9.7,1.1,1.1,1.3,2.8.6,4.2-3.2,6.5-12.6,20.6-30.1,38.3-12.5,12.6-24.5,24.8-32.5,32.9,9.5-4.6,25.2-11.7,43.8-17.4,5.8-12.6,12.1-25.5,17-34.5ZM515.9,166.3c5-1.2,10-2.4,14.7-3.4-.6-14.5.3-32.7.8-36.2-1.3,3.3-9.9,25.1-15.5,39.7Z"/>
  <g>
    <path class="st5" d="M265,312.4c-.9,0-1.7-.3-2.3-.9-.6-.6-.9-1.4-.9-2.3l.2-47.1c0-1.6,1.2-2.9,2.7-3.2l341.2-51.3c.2,0,.3,0,.5,0,.9,0,1.7.3,2.3.9.6.6.9,1.4.9,2.3l-.2,47.1c0,1.6-1.2,2.9-2.7,3.2l-341.2,51.3c-.2,0-.3,0-.5,0Z"/>
    <path class="st1" d="M606.4,208.6c1.2,0,2.2,1,2.2,2.2l-.2,47.1c0,1.1-.8,2-1.9,2.2l-341.2,51.3c-.1,0-.2,0-.3,0-1.2,0-2.2-1-2.2-2.2l.2-47.1c0-1.1.8-2,1.9-2.2l341.2-51.3c.1,0,.2,0,.3,0M606.4,206.6c-.2,0-.4,0-.6,0l-341.2,51.3c-2.1.3-3.6,2.1-3.6,4.2l-.2,47.1c0,1.1.4,2.2,1.2,3,.8.8,1.9,1.2,3,1.2s.4,0,.6,0l341.2-51.3c2.1-.3,3.6-2.1,3.6-4.2l.2-47.1c0-1.1-.4-2.2-1.2-3-.8-.8-1.9-1.2-3-1.2h0Z"/>
  </g>
  <g class="st4">
    <g class="st4">
      <path class="st1" d="M277.7,286.6c-.8-8.1,4.5-15.2,13-16.4,3.7-.5,6.8.2,7.7.5l-.4,6.6c-2-.4-4-.7-6.5-.4-4.3.6-6.9,3-6.5,7.3.4,3.6,2.6,5.3,5.5,4.9.4,0,.7-.1,1-.3l.4-6.5,6.8-1-.7,9.7c-1.3,1.3-4.4,3.4-8.8,4-6.6,1-10.9-1.8-11.5-8.4Z"/>
      <path class="st1" d="M302.5,269l11.6-1.7c1.7-.2,6.3-.9,6.9,4.7.4,4.1-1.8,7.9-5.2,9.3l5.2,8.5-7.7,1.1-4.6-7.6-.6,8.3-7.1,1.1,1.6-23.7ZM310.8,278.3c2.4-.4,3.5-1.6,3.4-3.2-.2-1.7-1.5-1.5-2.1-1.4l-2.8.4-.3,4.5,1.8-.3Z"/>
      <path class="st1" d="M329.6,265l9.6-1.4,5.2,22.7-7.1,1.1-.8-3.6-6.9,1-1.2,3.9-7.1,1.1,8.4-24.7ZM335.3,277.9c-.3-1.5-.5-2.5-.7-3.5-.2-1.1-.4-2-.6-3.7h-.2c-.6,2.2-.4,1.5-1.1,4-.3.9-.7,2.2-1.2,3.8l3.7-.6Z"/>
      <path class="st1" d="M347.8,262.3l16.2-2.4-.5,7.1-9,1.3-.2,2.8,8.1-1.2-.4,6-8,1.2-.5,7.8-7.1,1.1,1.6-23.7Z"/>
      <path class="st1" d="M366.8,259.4l16.2-2.4-.5,7.1-9,1.3-.2,2.8,8.1-1.2-.4,6-8,1.2-.5,7.8-7.1,1.1,1.6-23.7Z"/>
      <path class="st1" d="M385.8,256.6l7.1-1.1-1.6,23.7-7.1,1.1,1.6-23.7Z"/>
      <path class="st1" d="M401,261.4l-6.2.9.5-7.1,19.4-2.9-.5,7.1-6.1.9-1.1,16.6-7.1,1.1,1.1-16.6Z"/>
      <path class="st1" d="M417.2,252l7.1-1.1-1.6,23.7-7.1,1.1,1.6-23.7Z"/>
      <path class="st1" d="M433.7,249.5l10.6-1.6c5.7-.8,9.1,1,9.7,7.5.8,8.2-3.6,15-11.6,16.2l-10.3,1.5,1.6-23.7ZM442.2,264.9c3.1-.5,4.8-3.3,4.5-6.8-.2-2.3-1.2-3.5-3.5-3.1l-2.8.4-.6,9.9,2.5-.4Z"/>
      <path class="st1" d="M457.5,246l16.2-2.4-.4,6-9,1.3-.2,3.2,8.7-1.3-.4,5.3-8.7,1.3-.2,3.2,9.2-1.4-.4,6-16.4,2.4,1.6-23.7Z"/>
      <path class="st1" d="M474.9,265.5l.4-6.6c3.1,1,5.9,1.6,7.9,1.3,1.6-.2,2.5-.9,2.4-1.8,0-1-1.5-1.4-3.5-1.8-1.3-.3-2.5-.7-3.5-1.4-1.4-.9-2.5-2.2-2.8-4.5-.5-4.7,3.2-8.5,9.4-9.5,2.2-.3,4.4-.2,6.9.8l-.4,6.3c-2.4-1.1-4.1-1.6-5.9-1.4-1.5.2-2.6,1.1-2.5,2,0,.6.7,1.1,1.5,1.5.8.3,2.1.6,3,.9,3.5.9,4.8,2,5.1,4.8.5,5.1-3.2,9-10,10-2.7.4-5.6.3-8-.7Z"/>
      <path class="st1" d="M496.5,240.2l7.1-1.1-1.6,23.7-7.1,1.1,1.6-23.7Z"/>
      <path class="st1" d="M505.6,252.7c-.8-8.1,4.5-15.2,13-16.4,3.7-.5,6.8.2,7.7.5l-.4,6.6c-2-.4-4-.7-6.5-.4-4.3.6-6.9,3-6.5,7.3.4,3.6,2.6,5.3,5.5,4.9.4,0,.7-.1,1-.3l.4-6.5,6.8-1-.7,9.7c-1.3,1.3-4.4,3.4-8.9,4-6.6,1-10.9-1.8-11.5-8.4Z"/>
      <path class="st1" d="M530.4,235.1l7.5-1.1c2.8,5.9,5,10.7,5.4,12.2h.2c-.1-2.2-.2-4.5.4-13.1l7.1-1.1-1.6,23.7-7.5,1.1c-1.3-2.9-4.5-9.9-5.3-12.2h-.2c0,2.1.2,4.6-.4,13.1l-7.1,1.1,1.6-23.7Z"/>
      <path class="st1" d="M554.8,231.5l16.2-2.4-.4,6-9,1.3-.2,3.2,8.7-1.3-.4,5.3-8.7,1.3-.2,3.2,9.2-1.4-.4,6-16.4,2.4,1.6-23.7Z"/>
      <path class="st1" d="M574.3,228.6l11.6-1.7c1.7-.2,6.3-.9,6.9,4.7.4,4.1-1.8,7.9-5.2,9.3l5.2,8.5-7.7,1.1-4.6-7.6-.6,8.3-7.1,1.1,1.6-23.7ZM582.6,237.9c2.4-.4,3.5-1.6,3.4-3.2-.2-1.7-1.5-1.5-2.1-1.4l-2.8.4-.3,4.5,1.8-.3Z"/>
    </g>
  </g>
  <path class="st3" d="M522.5,61.8c-.3-1.4-.9-2.8-1.7-4-1.6-2.6-3.6-5-5.7-7.2-3.6-3.7-7.9-6.7-12.9-8-5.3-1.4-10.7-1.6-16.2-1.1-6,.5-12.1,1.7-17.9,3.4-5.4,1.6-10.6,3.3-15.8,5.5-2.4,1-4.7,2.1-7,3.2-1.1.5-2.1,1.1-3.2,1.5,0,0,0,0,0,0-1.4.2-.1,2.5.2,3.1.7,1.4,1.5,2.7,2.5,3.9-2.5,1.4-4.9,2.9-7.2,4.6-1.4,1-2.7,2-4,3.1-1.1.9-2.1,1.9-3,2.9-1.2,1.2-2.3,2.5-3.4,3.8-.8.8-1.5,1.7-2.2,2.7-1.1,1.8-2.2,3.8-2.1,6,0,1.2.4,2.2.9,3.3,1,2.1,2.6,4,4.1,5.7,1.6,1.7,3.4,3.4,5.5,4.5,1.8,1,3.6,1.7,5.6,2.1,2.9.7,6,.9,9,.9s1.9,0,2.8,0c4-.2,8-.7,12-1.5,7.4-1.4,14.6-3.7,21.6-6.5,3.8-1.5,7.6-3.2,11.2-5.1,3.6-1.9,7.2-3.7,10.5-6,3-2,6-4.3,8.8-6.6,2.7-2.3,5.1-4.9,6.8-8.1.4-.8.8-1.6,1-2.5.2-1.1.2-2.3,0-3.4ZM511.5,59.2c-1.3,2.5-2.9,4.8-4.8,6.8-2.5,2.8-5.4,5.1-8.4,7.2-3.3,2.3-6.6,4.4-10.2,6.3-6.9,3.6-14.2,6.5-21.7,8.7h0s0,0,0,0c-5.6,1.6-11.4,3-17.2,3.7-5.8.7-11.8.9-17.5-.3-.9-.2-1.7-.5-2.6-.8,0,0,0,0,0,0-.1-2.4.6-4.6,1.6-6.8.7-1.5,1.5-2.8,2.6-4.1,1.5-1.7,3.2-3.2,4.9-4.6,2.7-2.2,5.4-4.2,8.4-6.1.9-.6,1.9-1.2,2.8-1.8,1.2,1.3,2.6,2.6,4,3.6.5.4,1.1.8,1.8,1,.4.2.7.2,1,0,.4-.5,1.1-.8,1.6-1.1.5-.3,1.1-.6,1.6-.9,2.2-1.3,4.5-2.3,6.8-3.4,4.9-2.1,9.9-4.1,15-5.6,1.4-.4,2.8-.8,4.2-1.1,3.2-.8,6.5-1.5,9.8-2,3.2-.6,6.4-1,9.6-1.1,2.5-.1,5.1-.2,7.6,0-.2.8-.5,1.6-.9,2.3Z"/>
</svg>