<?xml version="1.0" encoding="UTF-8"?>
<svg id="Layer_1" xmlns="http://www.w3.org/2000/svg" version="1.1" xmlns:xlink="http://www.w3.org/1999/xlink" viewBox="0 0 914.7 338.7">
  <!-- Generator: Adobe Illustrator 29.3.1, SVG Export Plug-In . SVG Version: 2.1.0 Build 151)  -->
  <defs>
    <style>
      .st0 {
        fill: #fff;
        font-family: Massilia-BlackOblique, Massilia;
        font-size: 33.8px;
        font-style: oblique;
        font-weight: 800;
        letter-spacing: 0em;
      }

      .st1 {
        fill: url(#linear-gradient);
      }

      .st2 {
        opacity: .5;
      }
    </style>
    <linearGradient id="linear-gradient" x1="448" y1="24" x2="448" y2="465" gradientUnits="userSpaceOnUse">
      <stop offset="0" stop-color="#2b0052"/>
      <stop offset=".1" stop-color="#2f0455"/>
      <stop offset=".2" stop-color="#3b1360"/>
      <stop offset=".4" stop-color="#502b72"/>
      <stop offset=".5" stop-color="#6d4d8a"/>
      <stop offset=".7" stop-color="#9278aa"/>
      <stop offset=".8" stop-color="#bfadd1"/>
      <stop offset="1" stop-color="#f4eafe"/>
      <stop offset="1" stop-color="#f5ebff"/>
    </linearGradient>
  </defs>
  <path class="st1" d="M399.8,171.1c-1.7-8.1-14.4-23.1-19.6-18,0,0-3.6,2.7-3.7,29.7,0,20.5,2.6,28.9,2.6,28.9,0,0,2.7,4.9,6.8,7.7,5.1,3.6,7.6,3.3,8.2,2.2.7-1.1,7.3-42.3,5.7-50.4ZM302.5,167.5c-.4.3-.5.7-.3,1.1.9,1.5,3.1,5,6.2,5.2,2.7.2,16.4-3.7,32.6-8.7-1.6,7.1-4.5,24.5.6,40.5,6.7,20.7,19,27.9,19,27.9,0,0,7.6-2.2,12.8-5.2s8.6-6.3,8.6-6.3c0,0-1.6-3.7-4.7-1.8s-13.3,5.3-15.6,4.3c-2.3-1-4.4-4.9-.7-28.2,3.2-19.7,6.3-34.1,7.6-40,28.1-9.7,48.1-19.4,52.8-21.8.6-.3.8-1.1.5-1.6-1.2-2.1-4.3-6.9-9.5-11.7-4.2-3.9-9.2-6.1-10.9-6.8-.4-.2-.8-.2-1.2,0-3.9,1.4-26.2,9.7-45.4,19.3-15.9,8-47.6,30.5-52.4,33.9ZM490.6,137.5c10.8-19.6,22.4-40,25.8-46,.6-1.1,1.9-1.6,3.1-1.3,4.5,1.3,14.9,5.4,16,14.8,1.2,9.9,2.4,34.1,3.1,50.5,5.2-1.1,8.3-1.4,10.2-1.8.6-.1,1.1.5.9,1l-1.5,6c-.2.5-.7.9-1.2,1.1-1.3.3-4,1-8,2.1,0,.2,0,.5,0,.7.5,14.7-.3,33.8-.3,33.8,0,0-9.3-1.6-15.8-8.9-4.2-4.7-5.4-12.8-5.7-18.5-6,2.1-12.8,4.7-20.4,7.7-3.2,9.6-6.3,20.2-7.5,24.8-.4,1.4-1.3,2.7-2.4,3.6l-16.7,13.1c-1,.8-2.4.8-3.4,0l-9-7.4c-1-.8-1.3-2.2-.8-3.3,1-2.3,2.9-6.7,5.3-12.1-25.3,15.5-52.8,34.4-52.8,34.4,0,0-7.5-5.5-10.3-10.3-1.2-2-2.3-3.5-2.7-4.5-.3-.6-.3-1.2,0-1.8h-.1c0,0,0,0,.3-.3,0-.2.2-.3.3-.5,4.9-7.1,39-57.1,53.2-75.6-16.7,6.9-37.9,21.3-43.5,25.1-.7.5-1.8.2-2.2-.6l-4.1-8.2c-.3-.6-.2-1.3.2-1.8,3.2-3.5,16.3-17.2,35.6-28.8,19.7-11.8,40.7-18,45.3-19.3.4-.2.7-.3.9-.3,3.3.3,9.5,9.5,9.5,9.5,1.1,1.1,1.2,2.7.6,4.1-3.1,6.4-12.3,20.1-29.3,37.3-12.2,12.3-23.8,24.1-31.6,32.1,9.2-4.5,24.5-11.4,42.6-16.9,5.7-12.3,11.7-24.8,16.6-33.6ZM502.4,163.5c4.9-1.2,9.7-2.3,14.4-3.3-.5-14.2.3-31.9.7-35.3-1.3,3.2-9.6,24.5-15.1,38.6ZM335.9,212.4s0,0,0,0c0,0,0,0,0,0,0,0,0,0,0-.2.7-1.5,1.5-3.2,1.8-4.9.3-1.4.5-2.8.6-4.2,0-.8-.1-1.6-.3-2.4-.2-1-.7-2-1.2-3-.4-.9-.8-1.8-1.3-2.7-1-1.7-2.1-3.4-3.4-5-2.2-2.8-4.7-5.8-7.6-7.9-1.7-1.3-3.7-2.3-5.7-2.9-3.6-1-7.4-1.3-11.1-1.3-6.9,0-13.9,1.1-20.6,2.6-3.9.9-7.8,1.8-11.6,3,0,0,0,0-.1,0-23,4.4-73,14.4-81.9,10.5-4.4-1.9-2.9-10.9,10.4-33.1,12.1-20.2,26.3-35.9,37.9-47,9.1-8.1,18.9-15.5,29-22.3,13.7-9.1,28-17.5,43.4-23.4,5.4-2,10.8-3.7,16.5-4.7,5.8-1,11.8-1.6,17.7-.8.2,3.2-.2,6.3-.8,9.5-.9,4.3-2.1,8.4-3.6,12.5-2.7,7-6.3,13.7-10.2,20-4,6.6-8.6,12.8-13.4,18.8-5.1,6.5-10.8,12.4-16.4,18.4-2.9,3-5.9,5.9-8.8,8.8-1.3,1.3-2.5,2.6-3.6,4.1-.5.6-.9,1.3-1.2,2-.1.3-.2.6-.2.8,0,.5.2,1,.5,1.5.4.9,1.2,1.7,1.9,2.5.7.8,1.5,1.5,2.3,2.2.8.7,1.8,1.4,2.9,1.5.5,0,1.1-.1,1.6-.3,1.3-.4,2.6-1.1,3.8-1.8,2.8-1.6,5.3-3.5,7.9-5.4,3.2-2.4,6.4-4.8,9.5-7.4,3.2-2.7,6.3-5.6,9.3-8.5,2.9-2.8,5.9-5.5,8.7-8.5,2.8-3,5.6-6.1,8.2-9.2,5.2-6.3,10-12.8,13.9-19.9,3.4-6.2,6.2-12.9,6.8-20,.3-3.7,0-7.7-1.3-11.2-1.7-4.6-4.4-8.5-7.6-12.2-4.9-5.7-10.6-10.9-17.2-14.6-2.8-1.6-5.9-2.7-9-3.3-7.8-1.4-15.7-.6-23.4,1.1-7.5,1.7-14.9,4.1-22.1,6.9-15.7,6.2-30.6,14.5-44.3,24.3-13.5,9.7-26.2,20.5-37.8,32.4-10.8,11.2-20.9,23.4-27.8,37.4-1.6,3.3-3.2,6.6-4.3,10.1-.7,2.1-1.1,4.3-1.5,6.4-.4,2.3-.7,4.6-.8,7,0,.9,0,1.8,0,2.7,0,.9.2,1.9.4,2.8.2,1.3.5,2.7,1,4.1.5,1.5,1.1,3.1,1.8,4.5,2.6,5.5,6.5,10.1,10.8,14.3,2.4,2.3,4.9,4.5,7.7,6.2.5.4,1.1.9,1.6,1.3,3.5,2.5,7.6,4.2,11.8,5.2,1.4.2,2.9.3,4.3.3,2.8,0,5.6-.3,8.3-.5,5.9-.4,11.7-1.4,17.5-2.5,14.3-2.5,28.4-5.8,42.5-9.1,8.4-1.7,16.7-3.8,25.2-4.8,4-.8,8.2-1.3,12.3-1.2-4.1,3.4-14.7,11-39.5,22.5-17.2,8-38.4,16.1-61.5,23.5l25,30.3c.6-.2,1.2-.4,1.8-.6,61.7-22.2,85.5-39.3,92.2-51.8.9-1.2,1.7-2.5,2.4-3.9ZM412.7,87.6c-.5-1-.8-2.1-.9-3.2-.1-2.1.9-4.1,2-5.8.6-1,1.3-1.8,2.1-2.6,1.1-1.2,2.2-2.5,3.3-3.7.9-1,1.9-2,2.9-2.8,1.3-1,2.6-2,3.9-3,2.3-1.6,4.6-3.1,7-4.5-.9-1.2-1.7-2.5-2.4-3.8-.3-.6-1.5-2.8-.2-3,0,0,0,0,0,0,1.1-.4,2.1-1,3.1-1.5,2.3-1,4.5-2.1,6.8-3.1,5-2.1,10.1-3.9,15.4-5.4,5.7-1.7,11.5-2.9,17.4-3.3,5.3-.4,10.6-.3,15.7,1.1,4.8,1.3,9.1,4.2,12.5,7.8,2.1,2.2,4,4.5,5.6,7,.7,1.2,1.4,2.5,1.7,3.9.2,1.1.3,2.3,0,3.4-.2.9-.6,1.6-1,2.4-1.6,3.1-4,5.6-6.6,7.9-2.7,2.3-5.6,4.5-8.5,6.5-3.3,2.2-6.8,4-10.2,5.8-3.6,1.9-7.2,3.5-10.9,5-6.8,2.7-13.8,4.9-21,6.3-3.8.7-7.7,1.3-11.6,1.4-.9,0-1.8,0-2.7,0-3,0-5.9-.2-8.8-.9-1.9-.5-3.7-1.1-5.4-2.1-2-1.1-3.8-2.7-5.3-4.4-1.5-1.7-3-3.5-4-5.5ZM417.8,90s0,0,0,0c.8.3,1.7.6,2.5.8,5.6,1.2,11.4,1,17,.3,5.7-.7,11.3-2,16.8-3.6,0,0,0,0,0,0h0c7.3-2.2,14.4-4.9,21.1-8.5,3.5-1.8,6.7-3.9,9.9-6.1,2.9-2.1,5.7-4.3,8.2-7,1.8-2,3.4-4.2,4.6-6.7.3-.7.6-1.5.8-2.3-2.5-.2-5-.1-7.4,0-3.1.2-6.2.6-9.3,1.1-3.2.6-6.4,1.2-9.5,2-1.4.4-2.7.7-4.1,1.1-5,1.5-9.9,3.4-14.6,5.5-2.2,1-4.5,2-6.6,3.3-.5.3-1.1.6-1.6.9-.5.3-1.2.6-1.5,1.1-.3.2-.7.2-1,0-.6-.3-1.2-.6-1.7-1-1.4-1-2.7-2.2-3.9-3.5-.9.6-1.8,1.2-2.7,1.7-2.8,1.8-5.6,3.7-8.1,5.9-1.7,1.4-3.3,2.9-4.8,4.5-1.1,1.2-1.9,2.5-2.6,4-1,2.1-1.6,4.3-1.5,6.6ZM600.2,84.3s0,0-.1,0c0,0,0,0,0,0,0,0,0,0,0,0ZM595.9,81.1c0,0-.1,0-.2-.1,0,0,.1,0,.2.1,0,0,0,0,0,0ZM92.7,266.9c-34.2,4.7-55.1,1.3-57.1-15.6-3.6-30.7,64.4-104.2,148-148.9,0-2.9-2.2-5.3-2.2-5.3,0,0-75.8,34.4-130,94.7-32.4,36-35.1,60.7-18.7,80.7,17.9,21.8,56.8,47.8,196,0l-25.6-30.5c-36.2,11-75.7,20.2-110.4,25ZM873.1,193c-2.2-4.2-7.8-13.9-17-21-12-9.2-26.9-12.6-26.9-12.6,0,0-40.9,2.7-86.7,20.4-14.2,5.5-26.5,11.2-37.1,16.8,3.7-6.4,7.6-12.6,11.3-17.8,8.2-11.5,21.3-29,24.9-33.7.6-.7.6-1.8.2-2.6-2.1-4-8.6-15.1-15.7-17.1-2.1-1.1-25.2-11.5-108.7,25.4,12-12.7,23-28.8,26.6-47.1,8.9-45.4-15.8-58.7-15.8-58.7l-21.8,30.6s9.8,17-1.3,40.5c-7.9,16.8-20.7,32.3-27.3,39.7-.7-3.1-1.2-6.4-1.4-9.9-1.8-30.9,14.1-66.2,17.1-72.5.3-.6.2-1.3-.3-1.7-1.9-1.8-7.1-6.6-11.7-9.3-5.8-3.4-14.4-5.3-14.4-5.3,0,0-27.9,31.9-19.3,87.3,10.7,69.1,67.1,91,67.1,91l-2.1-35.8c0-.8-.5-1.5-1.2-1.8-2.8-1.4-10.8-5.7-18.4-13.8,18.8-6.3,66.6-21.8,86.9-25.3,3.4-.6,6.7-1.1,9.8-1.5-12.1,15-24.6,32.7-32.9,47.8-12.6,23.1-19,42.3-19.5,44h-.1c0,0,0,.1,0,.1,0,0,0,0,0,0h0s23.7,20,23.7,20c.6.5,1.4.5,1.9,0,6.3-5.2,42.4-34.6,70.8-44.6,52.1-18.2,124.9-27.7,138.1-29.3,1-.1,1.6-1.4,1.1-2.3ZM573.5,266.5l-302.5,53.1-1.5-57.8,302.5-53.1,1.5,57.8Z"/>
  <g class="st2">
    <path d="M399.8,171.1c-1.7-8.1-14.4-23.1-19.6-18,0,0-3.6,2.7-3.7,29.7,0,20.5,2.6,28.9,2.6,28.9,0,0,2.7,4.9,6.8,7.7,5.1,3.6,7.6,3.3,8.2,2.2.7-1.1,7.3-42.3,5.7-50.4ZM302.5,167.5c-.4.3-.5.7-.3,1.1.9,1.5,3.1,5,6.2,5.2,2.7.2,16.4-3.7,32.6-8.7-1.6,7.1-4.5,24.5.6,40.5,6.7,20.7,19,27.9,19,27.9,0,0,7.6-2.2,12.8-5.2s8.6-6.3,8.6-6.3c0,0-1.6-3.7-4.7-1.8s-13.3,5.3-15.6,4.3c-2.3-1-4.4-4.9-.7-28.2,3.2-19.7,6.3-34.1,7.6-40,28.1-9.7,48.1-19.4,52.8-21.8.6-.3.8-1.1.5-1.6-1.2-2.1-4.3-6.9-9.5-11.7-4.2-3.9-9.2-6.1-10.9-6.8-.4-.2-.8-.2-1.2,0-3.9,1.4-26.2,9.7-45.4,19.3-15.9,8-47.6,30.5-52.4,33.9ZM490.6,137.5c10.8-19.6,22.4-40,25.8-46,.6-1.1,1.9-1.6,3.1-1.3,4.5,1.3,14.9,5.4,16,14.8,1.2,9.9,2.4,34.1,3.1,50.5,5.2-1.1,8.3-1.4,10.2-1.8.6-.1,1.1.5.9,1l-1.5,6c-.2.5-.7.9-1.2,1.1-1.3.3-4,1-8,2.1,0,.2,0,.5,0,.7.5,14.7-.3,33.8-.3,33.8,0,0-9.3-1.6-15.8-8.9-4.2-4.7-5.4-12.8-5.7-18.5-6,2.1-12.8,4.7-20.4,7.7-3.2,9.6-6.3,20.2-7.5,24.8-.4,1.4-1.3,2.7-2.4,3.6l-16.7,13.1c-1,.8-2.4.8-3.4,0l-9-7.4c-1-.8-1.3-2.2-.8-3.3,1-2.3,2.9-6.7,5.3-12.1-25.3,15.5-52.8,34.4-52.8,34.4,0,0-7.5-5.5-10.3-10.3-1.2-2-2.3-3.5-2.7-4.5-.3-.6-.3-1.2,0-1.8h-.1c0,0,0,0,.3-.3,0-.2.2-.3.3-.5,4.9-7.1,39-57.1,53.2-75.6-16.7,6.9-37.9,21.3-43.5,25.1-.7.5-1.8.2-2.2-.6l-4.1-8.2c-.3-.6-.2-1.3.2-1.8,3.2-3.5,16.3-17.2,35.6-28.8,19.7-11.8,40.7-18,45.3-19.3.4-.2.7-.3.9-.3,3.3.3,9.5,9.5,9.5,9.5,1.1,1.1,1.2,2.7.6,4.1-3.1,6.4-12.3,20.1-29.3,37.3-12.2,12.3-23.8,24.1-31.6,32.1,9.2-4.5,24.5-11.4,42.6-16.9,5.7-12.3,11.7-24.8,16.6-33.6ZM502.4,163.5c4.9-1.2,9.7-2.3,14.4-3.3-.5-14.2.3-31.9.7-35.3-1.3,3.2-9.6,24.5-15.1,38.6ZM335.9,212.4s0,0,0,0c0,0,0,0,0,0,0,0,0,0,0-.2.7-1.5,1.5-3.2,1.8-4.9.3-1.4.5-2.8.6-4.2,0-.8-.1-1.6-.3-2.4-.2-1-.7-2-1.2-3-.4-.9-.8-1.8-1.3-2.7-1-1.7-2.1-3.4-3.4-5-2.2-2.8-4.7-5.8-7.6-7.9-1.7-1.3-3.7-2.3-5.7-2.9-3.6-1-7.4-1.3-11.1-1.3-6.9,0-13.9,1.1-20.6,2.6-3.9.9-7.8,1.8-11.6,3,0,0,0,0-.1,0-23,4.4-73,14.4-81.9,10.5-4.4-1.9-2.9-10.9,10.4-33.1,12.1-20.2,26.3-35.9,37.9-47,9.1-8.1,18.9-15.5,29-22.3,13.7-9.1,28-17.5,43.4-23.4,5.4-2,10.8-3.7,16.5-4.7,5.8-1,11.8-1.6,17.7-.8.2,3.2-.2,6.3-.8,9.5-.9,4.3-2.1,8.4-3.6,12.5-2.7,7-6.3,13.7-10.2,20-4,6.6-8.6,12.8-13.4,18.8-5.1,6.5-10.8,12.4-16.4,18.4-2.9,3-5.9,5.9-8.8,8.8-1.3,1.3-2.5,2.6-3.6,4.1-.5.6-.9,1.3-1.2,2-.1.3-.2.6-.2.8,0,.5.2,1,.5,1.5.4.9,1.2,1.7,1.9,2.5.7.8,1.5,1.5,2.3,2.2.8.7,1.8,1.4,2.9,1.5.5,0,1.1-.1,1.6-.3,1.3-.4,2.6-1.1,3.8-1.8,2.8-1.6,5.3-3.5,7.9-5.4,3.2-2.4,6.4-4.8,9.5-7.4,3.2-2.7,6.3-5.6,9.3-8.5,2.9-2.8,5.9-5.5,8.7-8.5,2.8-3,5.6-6.1,8.2-9.2,5.2-6.3,10-12.8,13.9-19.9,3.4-6.2,6.2-12.9,6.8-20,.3-3.7,0-7.7-1.3-11.2-1.7-4.6-4.4-8.5-7.6-12.2-4.9-5.7-10.6-10.9-17.2-14.6-2.8-1.6-5.9-2.7-9-3.3-7.8-1.4-15.7-.6-23.4,1.1-7.5,1.7-14.9,4.1-22.1,6.9-15.7,6.2-30.6,14.5-44.3,24.3-13.5,9.7-26.2,20.5-37.8,32.4-10.8,11.2-20.9,23.4-27.8,37.4-1.6,3.3-3.2,6.6-4.3,10.1-.7,2.1-1.1,4.3-1.5,6.4-.4,2.3-.7,4.6-.8,7,0,.9,0,1.8,0,2.7,0,.9.2,1.9.4,2.8.2,1.3.5,2.7,1,4.1.5,1.5,1.1,3.1,1.8,4.5,2.6,5.5,6.5,10.1,10.8,14.3,2.4,2.3,4.9,4.5,7.7,6.2.5.4,1.1.9,1.6,1.3,3.5,2.5,7.6,4.2,11.8,5.2,1.4.2,2.9.3,4.3.3,2.8,0,5.6-.3,8.3-.5,5.9-.4,11.7-1.4,17.5-2.5,14.3-2.5,28.4-5.8,42.5-9.1,8.4-1.7,16.7-3.8,25.2-4.8,4-.8,8.2-1.3,12.3-1.2-4.1,3.4-14.7,11-39.5,22.5-17.2,8-38.4,16.1-61.5,23.5l25,30.3c.6-.2,1.2-.4,1.8-.6,61.7-22.2,85.5-39.3,92.2-51.8.9-1.2,1.7-2.5,2.4-3.9ZM412.7,87.6c-.5-1-.8-2.1-.9-3.2-.1-2.1.9-4.1,2-5.8.6-1,1.3-1.8,2.1-2.6,1.1-1.2,2.2-2.5,3.3-3.7.9-1,1.9-2,2.9-2.8,1.3-1,2.6-2,3.9-3,2.3-1.6,4.6-3.1,7-4.5-.9-1.2-1.7-2.5-2.4-3.8-.3-.6-1.5-2.8-.2-3,0,0,0,0,0,0,1.1-.4,2.1-1,3.1-1.5,2.3-1,4.5-2.1,6.8-3.1,5-2.1,10.1-3.9,15.4-5.4,5.7-1.7,11.5-2.9,17.4-3.3,5.3-.4,10.6-.3,15.7,1.1,4.8,1.3,9.1,4.2,12.5,7.8,2.1,2.2,4,4.5,5.6,7,.7,1.2,1.4,2.5,1.7,3.9.2,1.1.3,2.3,0,3.4-.2.9-.6,1.6-1,2.4-1.6,3.1-4,5.6-6.6,7.9-2.7,2.3-5.6,4.5-8.5,6.5-3.3,2.2-6.8,4-10.2,5.8-3.6,1.9-7.2,3.5-10.9,5-6.8,2.7-13.8,4.9-21,6.3-3.8.7-7.7,1.3-11.6,1.4-.9,0-1.8,0-2.7,0-3,0-5.9-.2-8.8-.9-1.9-.5-3.7-1.1-5.4-2.1-2-1.1-3.8-2.7-5.3-4.4-1.5-1.7-3-3.5-4-5.5ZM417.8,90s0,0,0,0c.8.3,1.7.6,2.5.8,5.6,1.2,11.4,1,17,.3,5.7-.7,11.3-2,16.8-3.6,0,0,0,0,0,0h0c7.3-2.2,14.4-4.9,21.1-8.5,3.5-1.8,6.7-3.9,9.9-6.1,2.9-2.1,5.7-4.3,8.2-7,1.8-2,3.4-4.2,4.6-6.7.3-.7.6-1.5.8-2.3-2.5-.2-5-.1-7.4,0-3.1.2-6.2.6-9.3,1.1-3.2.6-6.4,1.2-9.5,2-1.4.4-2.7.7-4.1,1.1-5,1.5-9.9,3.4-14.6,5.5-2.2,1-4.5,2-6.6,3.3-.5.3-1.1.6-1.6.9-.5.3-1.2.6-1.5,1.1-.3.2-.7.2-1,0-.6-.3-1.2-.6-1.7-1-1.4-1-2.7-2.2-3.9-3.5-.9.6-1.8,1.2-2.7,1.7-2.8,1.8-5.6,3.7-8.1,5.9-1.7,1.4-3.3,2.9-4.8,4.5-1.1,1.2-1.9,2.5-2.6,4-1,2.1-1.6,4.3-1.5,6.6ZM600.2,84.3s0,0-.1,0c0,0,0,0,0,0,0,0,0,0,0,0ZM595.9,81.1c0,0-.1,0-.2-.1,0,0,.1,0,.2.1,0,0,0,0,0,0ZM92.7,266.9c-34.2,4.7-55.1,1.3-57.1-15.6-3.6-30.7,64.4-104.2,148-148.9,0-2.9-2.2-5.3-2.2-5.3,0,0-75.8,34.4-130,94.7-32.4,36-35.1,60.7-18.7,80.7,17.9,21.8,56.8,47.8,196,0l-25.6-30.5c-36.2,11-75.7,20.2-110.4,25ZM873.1,193c-2.2-4.2-7.8-13.9-17-21-12-9.2-26.9-12.6-26.9-12.6,0,0-40.9,2.7-86.7,20.4-14.2,5.5-26.5,11.2-37.1,16.8,3.7-6.4,7.6-12.6,11.3-17.8,8.2-11.5,21.3-29,24.9-33.7.6-.7.6-1.8.2-2.6-2.1-4-8.6-15.1-15.7-17.1-2.1-1.1-25.2-11.5-108.7,25.4,12-12.7,23-28.8,26.6-47.1,8.9-45.4-15.8-58.7-15.8-58.7l-21.8,30.6s9.8,17-1.3,40.5c-7.9,16.8-20.7,32.3-27.3,39.7-.7-3.1-1.2-6.4-1.4-9.9-1.8-30.9,14.1-66.2,17.1-72.5.3-.6.2-1.3-.3-1.7-1.9-1.8-7.1-6.6-11.7-9.3-5.8-3.4-14.4-5.3-14.4-5.3,0,0-27.9,31.9-19.3,87.3,10.7,69.1,67.1,91,67.1,91l-2.1-35.8c0-.8-.5-1.5-1.2-1.8-2.8-1.4-10.8-5.7-18.4-13.8,18.8-6.3,66.6-21.8,86.9-25.3,3.4-.6,6.7-1.1,9.8-1.5-12.1,15-24.6,32.7-32.9,47.8-12.6,23.1-19,42.3-19.5,44h-.1c0,0,0,.1,0,.1,0,0,0,0,0,0h0s23.7,20,23.7,20c.6.5,1.4.5,1.9,0,6.3-5.2,42.4-34.6,70.8-44.6,52.1-18.2,124.9-27.7,138.1-29.3,1-.1,1.6-1.4,1.1-2.3ZM573.8,266.4l-303.2,53.2-1.5-57.8,303.2-53.2,1.5,57.8Z"/>
  </g>
  <text class="st0" transform="translate(287 299.5) rotate(-10) scale(1 1) skewX(-2.2)"><tspan x="0" y="0">GRAFFITI STUDIO</tspan></text>
</svg>