<?xml version="1.0" encoding="UTF-8"?>
<svg id="Layer_1" xmlns="http://www.w3.org/2000/svg" version="1.1" xmlns:xlink="http://www.w3.org/1999/xlink" viewBox="0 0 914.7 338.7">
  <!-- Generator: Adobe Illustrator 29.3.1, SVG Export Plug-In . SVG Version: 2.1.0 Build 151)  -->
  <defs>
    <style>
      .st0 {
        fill: url(#linear-gradient2);
      }

      .st1, .st2 {
        fill: #fff;
      }

      .st3 {
        fill: url(#linear-gradient1);
      }

      .st2 {
        font-family: Massilia-BlackOblique, Massilia;
        font-size: 33.8px;
        font-style: oblique;
        font-weight: 800;
      }

      .st2, .st4 {
        isolation: isolate;
      }

      .st5 {
        fill: url(#linear-gradient);
      }

      .st6 {
        opacity: .5;
      }
    </style>
    <linearGradient id="linear-gradient" x1="448" y1="316" x2="448" y2="-125" gradientTransform="translate(0 340) scale(1 -1)" gradientUnits="userSpaceOnUse">
      <stop offset="0" stop-color="#2b0052"/>
      <stop offset="0" stop-color="#2f0455"/>
      <stop offset=".2" stop-color="#3b1360"/>
      <stop offset=".4" stop-color="#502b72"/>
      <stop offset=".5" stop-color="#6d4d8a"/>
      <stop offset=".7" stop-color="#9278aa"/>
      <stop offset=".8" stop-color="#bfadd1"/>
      <stop offset="1" stop-color="#f4eafe"/>
      <stop offset="1" stop-color="#f5ebff"/>
    </linearGradient>
    <linearGradient id="linear-gradient1" x1="436" y1="420" x2="436" y2="861.1" gradientUnits="userSpaceOnUse">
      <stop offset="0" stop-color="#2b0052"/>
      <stop offset=".1" stop-color="#2f0455"/>
      <stop offset=".2" stop-color="#3b1360"/>
      <stop offset=".4" stop-color="#502b72"/>
      <stop offset=".5" stop-color="#6d4d8a"/>
      <stop offset=".7" stop-color="#9278aa"/>
      <stop offset=".8" stop-color="#bfadd1"/>
      <stop offset="1" stop-color="#f4eafe"/>
      <stop offset="1" stop-color="#f5ebff"/>
    </linearGradient>
    <linearGradient id="linear-gradient2" x1="1390" y1="420" x2="1390" y2="861.1" xlink:href="#linear-gradient1"/>
  </defs>
  <path class="st5" d="M399.8,171.1c-1.7-8.1-14.4-23.1-19.6-18,0,0-3.6,2.7-3.7,29.7,0,20.5,2.6,28.9,2.6,28.9,0,0,2.7,4.9,6.8,7.7,5.1,3.6,7.6,3.3,8.2,2.2.7-1.1,7.3-42.3,5.7-50.4h0ZM302.5,167.5c-.4.3-.5.7-.3,1.1.9,1.5,3.1,5,6.2,5.2,2.7.2,16.4-3.7,32.6-8.7-1.6,7.1-4.5,24.5.6,40.5,6.7,20.7,19,27.9,19,27.9,0,0,7.6-2.2,12.8-5.2s8.6-6.3,8.6-6.3c0,0-1.6-3.7-4.7-1.8s-13.3,5.3-15.6,4.3c-2.3-1-4.4-4.9-.7-28.2,3.2-19.7,6.3-34.1,7.6-40,28.1-9.7,48.1-19.4,52.8-21.8.6-.3.8-1.1.5-1.6-1.2-2.1-4.3-6.9-9.5-11.7-4.2-3.9-9.2-6.1-10.9-6.8-.4-.2-.8-.2-1.2,0-3.9,1.4-26.2,9.7-45.4,19.3-15.9,8-47.6,30.5-52.4,33.9h0ZM490.6,137.5c10.8-19.6,22.4-40,25.8-46,.6-1.1,1.9-1.6,3.1-1.3,4.5,1.3,14.9,5.4,16,14.8,1.2,9.9,2.4,34.1,3.1,50.5,5.2-1.1,8.3-1.4,10.2-1.8.6-.1,1.1.5.9,1l-1.5,6c-.2.5-.7.9-1.2,1.1-1.3.3-4,1-8,2.1v.7c.5,14.7-.3,33.8-.3,33.8,0,0-9.3-1.6-15.8-8.9-4.2-4.7-5.4-12.8-5.7-18.5-6,2.1-12.8,4.7-20.4,7.7-3.2,9.6-6.3,20.2-7.5,24.8-.4,1.4-1.3,2.7-2.4,3.6l-16.7,13.1c-1,.8-2.4.8-3.4,0l-9-7.4c-1-.8-1.3-2.2-.8-3.3,1-2.3,2.9-6.7,5.3-12.1-25.3,15.5-52.8,34.4-52.8,34.4,0,0-7.5-5.5-10.3-10.3-1.2-2-2.3-3.5-2.7-4.5-.3-.6-.3-1.2,0-1.8h-.1l.3-.3c0-.2.2-.3.3-.5,4.9-7.1,39-57.1,53.2-75.6-16.7,6.9-37.9,21.3-43.5,25.1-.7.5-1.8.2-2.2-.6l-4.1-8.2c-.3-.6-.2-1.3.2-1.8,3.2-3.5,16.3-17.2,35.6-28.8,19.7-11.8,40.7-18,45.3-19.3.4-.2.7-.3.9-.3,3.3.3,9.5,9.5,9.5,9.5,1.1,1.1,1.2,2.7.6,4.1-3.1,6.4-12.3,20.1-29.3,37.3-12.2,12.3-23.8,24.1-31.6,32.1,9.2-4.5,24.5-11.4,42.6-16.9,5.7-12.3,11.7-24.8,16.6-33.6h-.2ZM502.4,163.5c4.9-1.2,9.7-2.3,14.4-3.3-.5-14.2.3-31.9.7-35.3-1.3,3.2-9.6,24.5-15.1,38.6ZM335.9,212.4h0v-.2c.7-1.5,1.5-3.2,1.8-4.9.3-1.4.5-2.8.6-4.2,0-.8-.1-1.6-.3-2.4-.2-1-.7-2-1.2-3-.4-.9-.8-1.8-1.3-2.7-1-1.7-2.1-3.4-3.4-5-2.2-2.8-4.7-5.8-7.6-7.9-1.7-1.3-3.7-2.3-5.7-2.9-3.6-1-7.4-1.3-11.1-1.3-6.9,0-13.9,1.1-20.6,2.6-3.9.9-7.8,1.8-11.6,3h-.1c-23,4.4-73,14.4-81.9,10.5-4.4-1.9-2.9-10.9,10.4-33.1,12.1-20.2,26.3-35.9,37.9-47,9.1-8.1,18.9-15.5,29-22.3,13.7-9.1,28-17.5,43.4-23.4,5.4-2,10.8-3.7,16.5-4.7,5.8-1,11.8-1.6,17.7-.8.2,3.2-.2,6.3-.8,9.5-.9,4.3-2.1,8.4-3.6,12.5-2.7,7-6.3,13.7-10.2,20-4,6.6-8.6,12.8-13.4,18.8-5.1,6.5-10.8,12.4-16.4,18.4-2.9,3-5.9,5.9-8.8,8.8-1.3,1.3-2.5,2.6-3.6,4.1-.5.6-.9,1.3-1.2,2-.1.3-.2.6-.2.8,0,.5.2,1,.5,1.5.4.9,1.2,1.7,1.9,2.5.7.8,1.5,1.5,2.3,2.2s1.8,1.4,2.9,1.5c.5,0,1.1-.1,1.6-.3,1.3-.4,2.6-1.1,3.8-1.8,2.8-1.6,5.3-3.5,7.9-5.4,3.2-2.4,6.4-4.8,9.5-7.4,3.2-2.7,6.3-5.6,9.3-8.5,2.9-2.8,5.9-5.5,8.7-8.5,2.8-3,5.6-6.1,8.2-9.2,5.2-6.3,10-12.8,13.9-19.9,3.4-6.2,6.2-12.9,6.8-20,.3-3.7,0-7.7-1.3-11.2-1.7-4.6-4.4-8.5-7.6-12.2-4.9-5.7-10.6-10.9-17.2-14.6-2.8-1.6-5.9-2.7-9-3.3-7.8-1.4-15.7-.6-23.4,1.1-7.5,1.7-14.9,4.1-22.1,6.9-15.7,6.2-30.6,14.5-44.3,24.3-13.5,9.7-26.2,20.5-37.8,32.4-10.8,11.2-20.9,23.4-27.8,37.4-1.6,3.3-3.2,6.6-4.3,10.1-.7,2.1-1.1,4.3-1.5,6.4-.4,2.3-.7,4.6-.8,7v2.7c0,.9.2,1.9.4,2.8.2,1.3.5,2.7,1,4.1.5,1.5,1.1,3.1,1.8,4.5,2.6,5.5,6.5,10.1,10.8,14.3,2.4,2.3,4.9,4.5,7.7,6.2.5.4,1.1.9,1.6,1.3,3.5,2.5,7.6,4.2,11.8,5.2,1.4.2,2.9.3,4.3.3,2.8,0,5.6-.3,8.3-.5,5.9-.4,11.7-1.4,17.5-2.5,14.3-2.5,28.4-5.8,42.5-9.1,8.4-1.7,16.7-3.8,25.2-4.8,4-.8,8.2-1.3,12.3-1.2-4.1,3.4-14.7,11-39.5,22.5-17.2,8-38.4,16.1-61.5,23.5l25,30.3c.6-.2,1.2-.4,1.8-.6,61.7-22.2,85.5-39.3,92.2-51.8.9-1.2,1.7-2.5,2.4-3.9v.5ZM412.7,87.6c-.5-1-.8-2.1-.9-3.2-.1-2.1.9-4.1,2-5.8.6-1,1.3-1.8,2.1-2.6,1.1-1.2,2.2-2.5,3.3-3.7.9-1,1.9-2,2.9-2.8,1.3-1,2.6-2,3.9-3,2.3-1.6,4.6-3.1,7-4.5-.9-1.2-1.7-2.5-2.4-3.8-.3-.6-1.5-2.8-.2-3h0c1.1-.4,2.1-1,3.1-1.5,2.3-1,4.5-2.1,6.8-3.1,5-2.1,10.1-3.9,15.4-5.4,5.7-1.7,11.5-2.9,17.4-3.3,5.3-.4,10.6-.3,15.7,1.1,4.8,1.3,9.1,4.2,12.5,7.8,2.1,2.2,4,4.5,5.6,7,.7,1.2,1.4,2.5,1.7,3.9.2,1.1.3,2.3,0,3.4-.2.9-.6,1.6-1,2.4-1.6,3.1-4,5.6-6.6,7.9-2.7,2.3-5.6,4.5-8.5,6.5-3.3,2.2-6.8,4-10.2,5.8-3.6,1.9-7.2,3.5-10.9,5-6.8,2.7-13.8,4.9-21,6.3-3.8.7-7.7,1.3-11.6,1.4h-2.7c-3,0-5.9-.2-8.8-.9-1.9-.5-3.7-1.1-5.4-2.1-2-1.1-3.8-2.7-5.3-4.4-1.5-1.7-3-3.5-4-5.5h.1ZM417.8,90h0c.8.3,1.7.6,2.5.8,5.6,1.2,11.4,1,17,.3,5.7-.7,11.3-2,16.8-3.6h0c7.3-2.2,14.4-4.9,21.1-8.5,3.5-1.8,6.7-3.9,9.9-6.1,2.9-2.1,5.7-4.3,8.2-7,1.8-2,3.4-4.2,4.6-6.7.3-.7.6-1.5.8-2.3-2.5-.2-5,0-7.4,0-3.1.2-6.2.6-9.3,1.1-3.2.6-6.4,1.2-9.5,2-1.4.4-2.7.7-4.1,1.1-5,1.5-9.9,3.4-14.6,5.5-2.2,1-4.5,2-6.6,3.3-.5.3-1.1.6-1.6.9s-1.2.6-1.5,1.1c-.3.2-.7.2-1,0-.6-.3-1.2-.6-1.7-1-1.4-1-2.7-2.2-3.9-3.5-.9.6-1.8,1.2-2.7,1.7-2.8,1.8-5.6,3.7-8.1,5.9-1.7,1.4-3.3,2.9-4.8,4.5-1.1,1.2-1.9,2.5-2.6,4-1,2.1-1.6,4.3-1.5,6.6h0ZM92.7,266.9c-34.2,4.7-55.1,1.3-57.1-15.6-3.6-30.7,64.4-104.2,148-148.9,0-2.9-2.2-5.3-2.2-5.3,0,0-75.8,34.4-130,94.7-32.4,36-35.1,60.7-18.7,80.7,17.9,21.8,56.8,47.8,196,0l-25.6-30.5c-36.2,11-75.7,20.2-110.4,25h0ZM873.1,193c-2.2-4.2-7.8-13.9-17-21-12-9.2-26.9-12.6-26.9-12.6,0,0-40.9,2.7-86.7,20.4-14.2,5.5-26.5,11.2-37.1,16.8,3.7-6.4,7.6-12.6,11.3-17.8,8.2-11.5,21.3-29,24.9-33.7.6-.7.6-1.8.2-2.6-2.1-4-8.6-15.1-15.7-17.1-2.1-1.1-25.2-11.5-108.7,25.4,12-12.7,23-28.8,26.6-47.1,8.9-45.4-15.8-58.7-15.8-58.7l-21.8,30.6s9.8,17-1.3,40.5c-7.9,16.8-20.7,32.3-27.3,39.7-.7-3.1-1.2-6.4-1.4-9.9-1.8-30.9,14.1-66.2,17.1-72.5.3-.6.2-1.3-.3-1.7-1.9-1.8-7.1-6.6-11.7-9.3-5.8-3.4-14.4-5.3-14.4-5.3,0,0-27.9,31.9-19.3,87.3,10.7,69.1,67.1,91,67.1,91l-2.1-35.8c0-.8-.5-1.5-1.2-1.8-2.8-1.4-10.8-5.7-18.4-13.8,18.8-6.3,66.6-21.8,86.9-25.3,3.4-.6,6.7-1.1,9.8-1.5-12.1,15-24.6,32.7-32.9,47.8-12.6,23.1-19,42.3-19.5,44h0c0,.1,23.7,20.1,23.7,20.1.6.5,1.4.5,1.9,0,6.3-5.2,42.4-34.6,70.8-44.6,52.1-18.2,124.9-27.7,138.1-29.3,1-.1,1.6-1.4,1.1-2.3h.1ZM573.5,266.5l-302.5,53.1-1.5-57.8,302.5-53.1,1.5,57.8Z"/>
  <g class="st6">
    <path d="M399.8,171.1c-1.7-8.1-14.4-23.1-19.6-18,0,0-3.6,2.7-3.7,29.7,0,20.5,2.6,28.9,2.6,28.9,0,0,2.7,4.9,6.8,7.7,5.1,3.6,7.6,3.3,8.2,2.2.7-1.1,7.3-42.3,5.7-50.4h0ZM302.5,167.5c-.4.3-.5.7-.3,1.1.9,1.5,3.1,5,6.2,5.2,2.7.2,16.4-3.7,32.6-8.7-1.6,7.1-4.5,24.5.6,40.5,6.7,20.7,19,27.9,19,27.9,0,0,7.6-2.2,12.8-5.2s8.6-6.3,8.6-6.3c0,0-1.6-3.7-4.7-1.8s-13.3,5.3-15.6,4.3c-2.3-1-4.4-4.9-.7-28.2,3.2-19.7,6.3-34.1,7.6-40,28.1-9.7,48.1-19.4,52.8-21.8.6-.3.8-1.1.5-1.6-1.2-2.1-4.3-6.9-9.5-11.7-4.2-3.9-9.2-6.1-10.9-6.8-.4-.2-.8-.2-1.2,0-3.9,1.4-26.2,9.7-45.4,19.3-15.9,8-47.6,30.5-52.4,33.9h0ZM490.6,137.5c10.8-19.6,22.4-40,25.8-46,.6-1.1,1.9-1.6,3.1-1.3,4.5,1.3,14.9,5.4,16,14.8,1.2,9.9,2.4,34.1,3.1,50.5,5.2-1.1,8.3-1.4,10.2-1.8.6-.1,1.1.5.9,1l-1.5,6c-.2.5-.7.9-1.2,1.1-1.3.3-4,1-8,2.1v.7c.5,14.7-.3,33.8-.3,33.8,0,0-9.3-1.6-15.8-8.9-4.2-4.7-5.4-12.8-5.7-18.5-6,2.1-12.8,4.7-20.4,7.7-3.2,9.6-6.3,20.2-7.5,24.8-.4,1.4-1.3,2.7-2.4,3.6l-16.7,13.1c-1,.8-2.4.8-3.4,0l-9-7.4c-1-.8-1.3-2.2-.8-3.3,1-2.3,2.9-6.7,5.3-12.1-25.3,15.5-52.8,34.4-52.8,34.4,0,0-7.5-5.5-10.3-10.3-1.2-2-2.3-3.5-2.7-4.5-.3-.6-.3-1.2,0-1.8h-.1l.3-.3c0-.2.2-.3.3-.5,4.9-7.1,39-57.1,53.2-75.6-16.7,6.9-37.9,21.3-43.5,25.1-.7.5-1.8.2-2.2-.6l-4.1-8.2c-.3-.6-.2-1.3.2-1.8,3.2-3.5,16.3-17.2,35.6-28.8,19.7-11.8,40.7-18,45.3-19.3.4-.2.7-.3.9-.3,3.3.3,9.5,9.5,9.5,9.5,1.1,1.1,1.2,2.7.6,4.1-3.1,6.4-12.3,20.1-29.3,37.3-12.2,12.3-23.8,24.1-31.6,32.1,9.2-4.5,24.5-11.4,42.6-16.9,5.7-12.3,11.7-24.8,16.6-33.6h-.2ZM502.4,163.5c4.9-1.2,9.7-2.3,14.4-3.3-.5-14.2.3-31.9.7-35.3-1.3,3.2-9.6,24.5-15.1,38.6ZM335.9,212.4h0v-.2c.7-1.5,1.5-3.2,1.8-4.9.3-1.4.5-2.8.6-4.2,0-.8-.1-1.6-.3-2.4-.2-1-.7-2-1.2-3-.4-.9-.8-1.8-1.3-2.7-1-1.7-2.1-3.4-3.4-5-2.2-2.8-4.7-5.8-7.6-7.9-1.7-1.3-3.7-2.3-5.7-2.9-3.6-1-7.4-1.3-11.1-1.3-6.9,0-13.9,1.1-20.6,2.6-3.9.9-7.8,1.8-11.6,3h-.1c-23,4.4-73,14.4-81.9,10.5-4.4-1.9-2.9-10.9,10.4-33.1,12.1-20.2,26.3-35.9,37.9-47,9.1-8.1,18.9-15.5,29-22.3,13.7-9.1,28-17.5,43.4-23.4,5.4-2,10.8-3.7,16.5-4.7,5.8-1,11.8-1.6,17.7-.8.2,3.2-.2,6.3-.8,9.5-.9,4.3-2.1,8.4-3.6,12.5-2.7,7-6.3,13.7-10.2,20-4,6.6-8.6,12.8-13.4,18.8-5.1,6.5-10.8,12.4-16.4,18.4-2.9,3-5.9,5.9-8.8,8.8-1.3,1.3-2.5,2.6-3.6,4.1-.5.6-.9,1.3-1.2,2-.1.3-.2.6-.2.8,0,.5.2,1,.5,1.5.4.9,1.2,1.7,1.9,2.5.7.8,1.5,1.5,2.3,2.2s1.8,1.4,2.9,1.5c.5,0,1.1-.1,1.6-.3,1.3-.4,2.6-1.1,3.8-1.8,2.8-1.6,5.3-3.5,7.9-5.4,3.2-2.4,6.4-4.8,9.5-7.4,3.2-2.7,6.3-5.6,9.3-8.5,2.9-2.8,5.9-5.5,8.7-8.5,2.8-3,5.6-6.1,8.2-9.2,5.2-6.3,10-12.8,13.9-19.9,3.4-6.2,6.2-12.9,6.8-20,.3-3.7,0-7.7-1.3-11.2-1.7-4.6-4.4-8.5-7.6-12.2-4.9-5.7-10.6-10.9-17.2-14.6-2.8-1.6-5.9-2.7-9-3.3-7.8-1.4-15.7-.6-23.4,1.1-7.5,1.7-14.9,4.1-22.1,6.9-15.7,6.2-30.6,14.5-44.3,24.3-13.5,9.7-26.2,20.5-37.8,32.4-10.8,11.2-20.9,23.4-27.8,37.4-1.6,3.3-3.2,6.6-4.3,10.1-.7,2.1-1.1,4.3-1.5,6.4-.4,2.3-.7,4.6-.8,7v2.7c0,.9.2,1.9.4,2.8.2,1.3.5,2.7,1,4.1.5,1.5,1.1,3.1,1.8,4.5,2.6,5.5,6.5,10.1,10.8,14.3,2.4,2.3,4.9,4.5,7.7,6.2.5.4,1.1.9,1.6,1.3,3.5,2.5,7.6,4.2,11.8,5.2,1.4.2,2.9.3,4.3.3,2.8,0,5.6-.3,8.3-.5,5.9-.4,11.7-1.4,17.5-2.5,14.3-2.5,28.4-5.8,42.5-9.1,8.4-1.7,16.7-3.8,25.2-4.8,4-.8,8.2-1.3,12.3-1.2-4.1,3.4-14.7,11-39.5,22.5-17.2,8-38.4,16.1-61.5,23.5l25,30.3c.6-.2,1.2-.4,1.8-.6,61.7-22.2,85.5-39.3,92.2-51.8.9-1.2,1.7-2.5,2.4-3.9v.5ZM412.7,87.6c-.5-1-.8-2.1-.9-3.2-.1-2.1.9-4.1,2-5.8.6-1,1.3-1.8,2.1-2.6,1.1-1.2,2.2-2.5,3.3-3.7.9-1,1.9-2,2.9-2.8,1.3-1,2.6-2,3.9-3,2.3-1.6,4.6-3.1,7-4.5-.9-1.2-1.7-2.5-2.4-3.8-.3-.6-1.5-2.8-.2-3h0c1.1-.4,2.1-1,3.1-1.5,2.3-1,4.5-2.1,6.8-3.1,5-2.1,10.1-3.9,15.4-5.4,5.7-1.7,11.5-2.9,17.4-3.3,5.3-.4,10.6-.3,15.7,1.1,4.8,1.3,9.1,4.2,12.5,7.8,2.1,2.2,4,4.5,5.6,7,.7,1.2,1.4,2.5,1.7,3.9.2,1.1.3,2.3,0,3.4-.2.9-.6,1.6-1,2.4-1.6,3.1-4,5.6-6.6,7.9-2.7,2.3-5.6,4.5-8.5,6.5-3.3,2.2-6.8,4-10.2,5.8-3.6,1.9-7.2,3.5-10.9,5-6.8,2.7-13.8,4.9-21,6.3-3.8.7-7.7,1.3-11.6,1.4h-2.7c-3,0-5.9-.2-8.8-.9-1.9-.5-3.7-1.1-5.4-2.1-2-1.1-3.8-2.7-5.3-4.4-1.5-1.7-3-3.5-4-5.5h.1ZM417.8,90h0c.8.3,1.7.6,2.5.8,5.6,1.2,11.4,1,17,.3,5.7-.7,11.3-2,16.8-3.6h0c7.3-2.2,14.4-4.9,21.1-8.5,3.5-1.8,6.7-3.9,9.9-6.1,2.9-2.1,5.7-4.3,8.2-7,1.8-2,3.4-4.2,4.6-6.7.3-.7.6-1.5.8-2.3-2.5-.2-5,0-7.4,0-3.1.2-6.2.6-9.3,1.1-3.2.6-6.4,1.2-9.5,2-1.4.4-2.7.7-4.1,1.1-5,1.5-9.9,3.4-14.6,5.5-2.2,1-4.5,2-6.6,3.3-.5.3-1.1.6-1.6.9s-1.2.6-1.5,1.1c-.3.2-.7.2-1,0-.6-.3-1.2-.6-1.7-1-1.4-1-2.7-2.2-3.9-3.5-.9.6-1.8,1.2-2.7,1.7-2.8,1.8-5.6,3.7-8.1,5.9-1.7,1.4-3.3,2.9-4.8,4.5-1.1,1.2-1.9,2.5-2.6,4-1,2.1-1.6,4.3-1.5,6.6h0ZM92.7,266.9c-34.2,4.7-55.1,1.3-57.1-15.6-3.6-30.7,64.4-104.2,148-148.9,0-2.9-2.2-5.3-2.2-5.3,0,0-75.8,34.4-130,94.7-32.4,36-35.1,60.7-18.7,80.7,17.9,21.8,56.8,47.8,196,0l-25.6-30.5c-36.2,11-75.7,20.2-110.4,25h0ZM873.1,193c-2.2-4.2-7.8-13.9-17-21-12-9.2-26.9-12.6-26.9-12.6,0,0-40.9,2.7-86.7,20.4-14.2,5.5-26.5,11.2-37.1,16.8,3.7-6.4,7.6-12.6,11.3-17.8,8.2-11.5,21.3-29,24.9-33.7.6-.7.6-1.8.2-2.6-2.1-4-8.6-15.1-15.7-17.1-2.1-1.1-25.2-11.5-108.7,25.4,12-12.7,23-28.8,26.6-47.1,8.9-45.4-15.8-58.7-15.8-58.7l-21.8,30.6s9.8,17-1.3,40.5c-7.9,16.8-20.7,32.3-27.3,39.7-.7-3.1-1.2-6.4-1.4-9.9-1.8-30.9,14.1-66.2,17.1-72.5.3-.6.2-1.3-.3-1.7-1.9-1.8-7.1-6.6-11.7-9.3-5.8-3.4-14.4-5.3-14.4-5.3,0,0-27.9,31.9-19.3,87.3,10.7,69.1,67.1,91,67.1,91l-2.1-35.8c0-.8-.5-1.5-1.2-1.8-2.8-1.4-10.8-5.7-18.4-13.8,18.8-6.3,66.6-21.8,86.9-25.3,3.4-.6,6.7-1.1,9.8-1.5-12.1,15-24.6,32.7-32.9,47.8-12.6,23.1-19,42.3-19.5,44h0c0,.1,23.7,20.1,23.7,20.1.6.5,1.4.5,1.9,0,6.3-5.2,42.4-34.6,70.8-44.6,52.1-18.2,124.9-27.7,138.1-29.3,1-.1,1.6-1.4,1.1-2.3h.1ZM573.8,266.4l-303.2,53.2-1.5-57.8,303.2-53.2,1.5,57.8h0Z"/>
  </g>
  <g class="st4">
    <text class="st2" transform="translate(287 299.5) rotate(-10) skewX(-2.2)"><tspan x="0" y="0">GRAFFITI STUDIO</tspan></text>
  </g>
  <path class="st3" d="M387.7,567.2c-1.7-8.1-14.4-23.1-19.6-18,0,0-3.6,2.7-3.7,29.7,0,20.5,2.6,28.9,2.6,28.9,0,0,2.7,4.9,6.8,7.7,5.1,3.6,7.6,3.3,8.2,2.2.7-1.1,7.3-42.3,5.7-50.4ZM290.4,563.6c-.4.3-.5.7-.3,1.1.9,1.5,3.1,5,6.2,5.2,2.7.2,16.4-3.7,32.6-8.7-1.6,7.1-4.5,24.5.6,40.5,6.7,20.7,19,27.9,19,27.9,0,0,7.6-2.2,12.8-5.2s8.6-6.3,8.6-6.3c0,0-1.6-3.7-4.7-1.8s-13.3,5.3-15.6,4.3c-2.3-1-4.4-4.9-.7-28.2,3.2-19.7,6.3-34.1,7.6-40,28.1-9.7,48.1-19.4,52.8-21.8.6-.3.8-1.1.5-1.6-1.2-2.1-4.3-6.9-9.5-11.7-4.2-3.9-9.2-6.1-10.9-6.8-.4-.2-.8-.2-1.2,0-3.9,1.4-26.2,9.7-45.4,19.3-15.9,8-47.6,30.5-52.4,33.9ZM478.5,533.6c10.8-19.6,22.4-40,25.8-46,.6-1.1,1.9-1.6,3.1-1.3,4.5,1.3,14.9,5.4,16,14.8,1.2,9.9,2.4,34.1,3.1,50.5,5.2-1.1,8.3-1.4,10.2-1.8.6-.1,1.1.5.9,1l-1.5,6c-.2.5-.7.9-1.2,1.1-1.3.3-4,1-8,2.1,0,.2,0,.5,0,.7.5,14.7-.3,33.8-.3,33.8,0,0-9.3-1.6-15.8-8.9-4.2-4.7-5.4-12.8-5.7-18.5-6,2.1-12.8,4.7-20.4,7.7-3.2,9.6-6.3,20.2-7.5,24.8-.4,1.4-1.3,2.7-2.4,3.6l-16.7,13.1c-1,.8-2.4.8-3.4,0l-9-7.4c-1-.8-1.3-2.2-.8-3.3,1-2.3,2.9-6.7,5.3-12.1-25.3,15.5-52.8,34.4-52.8,34.4,0,0-7.5-5.5-10.3-10.3-1.2-2-2.3-3.5-2.7-4.5-.3-.6-.3-1.2,0-1.8h-.1c0,0,0,0,.3-.3,0-.2.2-.3.3-.5,4.9-7.1,39-57.1,53.2-75.6-16.7,6.9-37.9,21.3-43.5,25.1-.7.5-1.8.2-2.2-.6l-4.1-8.2c-.3-.6-.2-1.3.2-1.8,3.2-3.5,16.3-17.2,35.6-28.8,19.7-11.8,40.7-18,45.3-19.3.4-.2.7-.3.9-.3,3.3.3,9.5,9.5,9.5,9.5,1.1,1.1,1.2,2.7.6,4.1-3.1,6.4-12.3,20.1-29.3,37.3-12.2,12.3-23.8,24.1-31.6,32.1,9.2-4.5,24.5-11.4,42.6-16.9,5.7-12.3,11.7-24.8,16.6-33.6ZM490.3,559.6c4.9-1.2,9.7-2.3,14.4-3.3-.5-14.2.3-31.9.7-35.3-1.3,3.2-9.6,24.5-15.1,38.6ZM323.8,608.4s0,0,0,0c0,0,0,0,0,0,0,0,0,0,0-.2.7-1.5,1.5-3.2,1.8-4.9.3-1.4.5-2.8.6-4.2,0-.8-.1-1.6-.3-2.4-.2-1-.7-2-1.2-3-.4-.9-.8-1.8-1.3-2.7-1-1.7-2.1-3.4-3.4-5-2.2-2.8-4.7-5.8-7.6-7.9-1.7-1.3-3.7-2.3-5.7-2.9-3.6-1-7.4-1.3-11.1-1.3-6.9,0-13.9,1.1-20.6,2.6-3.9.9-7.8,1.8-11.6,3,0,0,0,0-.1,0-23,4.4-73,14.4-81.9,10.5-4.4-1.9-2.9-10.9,10.4-33.1,12.1-20.2,26.3-35.9,37.9-47,9.1-8.1,18.9-15.5,29-22.3,13.7-9.1,28-17.5,43.4-23.4,5.4-2,10.8-3.7,16.5-4.7,5.8-1,11.8-1.6,17.7-.8.2,3.2-.2,6.3-.8,9.5-.9,4.3-2.1,8.4-3.6,12.5-2.7,7-6.3,13.7-10.2,20-4,6.6-8.6,12.8-13.4,18.8-5.1,6.5-10.8,12.4-16.4,18.4-2.9,3-5.9,5.9-8.8,8.8-1.3,1.3-2.5,2.6-3.6,4.1-.5.6-.9,1.3-1.2,2-.1.3-.2.6-.2.8,0,.5.2,1,.5,1.5.4.9,1.2,1.7,1.9,2.5.7.8,1.5,1.5,2.3,2.2.8.7,1.8,1.4,2.9,1.5.5,0,1.1-.1,1.6-.3,1.3-.4,2.6-1.1,3.8-1.8,2.8-1.6,5.3-3.5,7.9-5.4,3.2-2.4,6.4-4.8,9.5-7.4,3.2-2.7,6.3-5.6,9.3-8.5,2.9-2.8,5.9-5.5,8.7-8.5,2.8-3,5.6-6.1,8.2-9.2,5.2-6.3,10-12.8,13.9-19.9,3.4-6.2,6.2-12.9,6.8-20,.3-3.7,0-7.7-1.3-11.2-1.7-4.6-4.4-8.5-7.6-12.2-4.9-5.7-10.6-10.9-17.2-14.6-2.8-1.6-5.9-2.7-9-3.3-7.8-1.4-15.7-.6-23.4,1.1-7.5,1.7-14.9,4.1-22.1,6.9-15.7,6.2-30.6,14.5-44.3,24.3-13.5,9.7-26.2,20.5-37.8,32.4-10.8,11.2-20.9,23.4-27.8,37.4-1.6,3.3-3.2,6.6-4.3,10.1-.7,2.1-1.1,4.3-1.5,6.4-.4,2.3-.7,4.6-.8,7,0,.9,0,1.8,0,2.7,0,.9.2,1.9.4,2.8.2,1.3.5,2.7,1,4.1.5,1.5,1.1,3.1,1.8,4.5,2.6,5.5,6.5,10.1,10.8,14.3,2.4,2.3,4.9,4.5,7.7,6.2.5.4,1.1.9,1.6,1.3,3.5,2.5,7.6,4.2,11.8,5.2,1.4.2,2.9.3,4.3.3,2.8,0,5.6-.3,8.3-.5,5.9-.4,11.7-1.4,17.5-2.5,14.3-2.5,28.4-5.8,42.5-9.1,8.4-1.7,16.7-3.8,25.2-4.8,4-.8,8.2-1.3,12.3-1.2-4.1,3.4-14.7,11-39.5,22.5-17.2,8-38.4,16.1-61.5,23.5l25,30.3c.6-.2,1.2-.4,1.8-.6,61.7-22.2,85.5-39.3,92.2-51.8.9-1.2,1.7-2.5,2.4-3.9ZM400.6,483.7c-.5-1-.8-2.1-.9-3.2-.1-2.1.9-4.1,2-5.8.6-1,1.3-1.8,2.1-2.6,1.1-1.2,2.2-2.5,3.3-3.7.9-1,1.9-2,2.9-2.8,1.3-1,2.6-2,3.9-3,2.3-1.6,4.6-3.1,7-4.5-.9-1.2-1.7-2.5-2.4-3.8-.3-.6-1.5-2.8-.2-3,0,0,0,0,0,0,1.1-.4,2.1-1,3.1-1.5,2.3-1,4.5-2.1,6.8-3.1,5-2.1,10.1-3.9,15.4-5.4,5.7-1.7,11.5-2.9,17.4-3.3,5.3-.4,10.6-.3,15.7,1.1,4.8,1.3,9.1,4.2,12.5,7.8,2.1,2.2,4,4.5,5.6,7,.7,1.2,1.4,2.5,1.7,3.9.2,1.1.3,2.3,0,3.4-.2.9-.6,1.6-1,2.4-1.6,3.1-4,5.6-6.6,7.9-2.7,2.3-5.6,4.5-8.5,6.5-3.3,2.2-6.8,4-10.2,5.8-3.6,1.9-7.2,3.5-10.9,5-6.8,2.7-13.8,4.9-21,6.3-3.8.7-7.7,1.3-11.6,1.4-.9,0-1.8,0-2.7,0-3,0-5.9-.2-8.8-.9-1.9-.5-3.7-1.1-5.4-2.1-2-1.1-3.8-2.7-5.3-4.4-1.5-1.7-3-3.5-4-5.5ZM405.8,486.1s0,0,0,0c.8.3,1.7.6,2.5.8,5.6,1.2,11.4,1,17,.3,5.7-.7,11.3-2,16.8-3.6,0,0,0,0,0,0h0c7.3-2.2,14.4-4.9,21.1-8.5,3.5-1.8,6.7-3.9,9.9-6.1,2.9-2.1,5.7-4.3,8.2-7,1.8-2,3.4-4.2,4.6-6.7.3-.7.6-1.5.8-2.3-2.5-.2-5-.1-7.4,0-3.1.2-6.2.6-9.3,1.1-3.2.6-6.4,1.2-9.5,2-1.4.4-2.7.7-4.1,1.1-5,1.5-9.9,3.4-14.6,5.5-2.2,1-4.5,2-6.6,3.3-.5.3-1.1.6-1.6.9-.5.3-1.2.6-1.5,1.1-.3.2-.7.2-1,0-.6-.3-1.2-.6-1.7-1-1.4-1-2.7-2.2-3.9-3.5-.9.6-1.8,1.2-2.7,1.7-2.8,1.8-5.6,3.7-8.1,5.9-1.7,1.4-3.3,2.9-4.8,4.5-1.1,1.2-1.9,2.5-2.6,4-1,2.1-1.6,4.3-1.5,6.6ZM80.6,663c-34.2,4.7-55.1,1.3-57.1-15.6-3.6-30.7,64.4-104.2,148-148.9,0-2.9-2.2-5.3-2.2-5.3,0,0-75.8,34.4-130,94.7-32.4,36-35.1,60.7-18.7,80.7,17.9,21.8,56.8,47.8,196,0l-25.6-30.5c-36.2,11-75.7,20.2-110.4,25ZM861,589.1c-2.2-4.2-7.8-13.9-17-21-12-9.2-26.9-12.6-26.9-12.6,0,0-40.9,2.7-86.7,20.4-14.2,5.5-26.5,11.2-37.1,16.8,3.7-6.4,7.6-12.6,11.3-17.8,8.2-11.5,21.3-29,24.9-33.7.6-.7.6-1.8.2-2.6-2.1-4-8.6-15.1-15.7-17.1-2.1-1.1-25.2-11.5-108.7,25.4,12-12.7,23-28.8,26.6-47.1,8.9-45.4-15.8-58.7-15.8-58.7l-21.8,30.6s9.8,17-1.3,40.5c-7.9,16.8-20.7,32.3-27.3,39.7-.7-3.1-1.2-6.4-1.4-9.9-1.8-30.9,14.1-66.2,17.1-72.5.3-.6.2-1.3-.3-1.7-1.9-1.8-7.1-6.6-11.7-9.3-5.8-3.4-14.4-5.3-14.4-5.3,0,0-27.9,31.9-19.3,87.3,10.7,69.1,67.1,91,67.1,91l-2.1-35.8c0-.8-.5-1.5-1.2-1.8-2.8-1.4-10.8-5.7-18.4-13.8,18.8-6.3,66.6-21.8,86.9-25.3,3.4-.6,6.7-1.1,9.8-1.5-12.1,15-24.6,32.7-32.9,47.8-12.6,23.1-19,42.3-19.5,44h-.1c0,0,0,.1,0,.1,0,0,0,0,0,0h0s23.7,20,23.7,20c.6.5,1.4.5,1.9,0,6.3-5.2,42.4-34.6,70.8-44.6,52.1-18.2,124.9-27.7,138.1-29.3,1-.1,1.6-1.4,1.1-2.3ZM329.6,669.6h-.2c-.5,2.1-.3,1.5-.9,3.8-.2.9-.6,2.2-1,3.7l3.6-.6c-.4-1.4-.6-2.4-.8-3.3-.2-1.1-.4-1.9-.7-3.5ZM497.9,640.5l-2.7.5-.3,9.5,2.4-.4c3-.5,4.6-3.3,4.1-6.7-.3-2.2-1.3-3.3-3.5-2.9ZM308.1,673.1l-2.7.5v4.3c-.1,0,1.6-.3,1.6-.3,2.3-.4,3.4-1.7,3.2-3.2-.2-1.6-1.6-1.4-2.1-1.3ZM560,604.8l-302.5,53.1,1.5,57.8,302.5-53.1-1.5-57.8ZM294.8,690.1c-1.3,1.3-4.2,3.3-8.5,4.1-6.4,1.1-10.7-1.5-11.5-7.7-1.1-7.7,3.9-14.7,12.1-16.1,3.6-.6,6.6,0,7.6.2l-.2,6.3c-1.9-.3-3.9-.6-6.3-.2-4.2.7-6.7,3.1-6.1,7.2.5,3.5,2.7,5,5.5,4.5.4,0,.7-.2,1-.3l.2-6.2,6.6-1.2-.3,9.3ZM309.8,689.5l-4.7-7.1-.3,8-6.9,1.2.8-22.7,11.2-2c1.6-.3,6.1-1.1,6.9,4.3.5,3.9-1.5,7.6-4.8,9.1l5.3,8-7.5,1.3ZM333.3,685.4l-.9-3.4-6.7,1.2-1.1,3.8-6.9,1.2,7.4-23.9,9.3-1.6,5.9,21.6-6.9,1.2ZM358.3,665.2l-8.8,1.5v2.7c0,0,7.7-1.4,7.7-1.4l-.2,5.8-7.8,1.4-.2,7.4-6.9,1.2.8-22.7,15.7-2.8-.2,6.8ZM376.9,661.9l-8.8,1.5v2.7c0,0,7.7-1.4,7.7-1.4l-.2,5.8-7.8,1.4-.2,7.4-6.9,1.2.8-22.7,15.7-2.8-.2,6.8ZM386.3,676.1l-6.9,1.2.8-22.7,6.9-1.2-.8,22.7ZM408.2,656.4l-6,1-.5,15.9-6.9,1.2.5-15.9-6,1.1.2-6.8,18.9-3.3-.2,6.8ZM417.1,670.7l-6.9,1.2.8-22.7,6.9-1.2-.8,22.7ZM433.8,668.3c-2.6.5-5.5.4-7.8-.5l.2-6.3c3,.9,5.8,1.3,7.7,1,1.5-.3,2.4-1,2.3-1.8-.1-.9-1.5-1.3-3.5-1.7-1.3-.3-2.5-.6-3.5-1.2-1.4-.8-2.5-2-2.8-4.2-.6-4.5,2.8-8.3,8.8-9.3,2.2-.4,4.3-.3,6.7.6l-.2,6.1c-2.3-1-4-1.4-5.8-1.1-1.5.3-2.5,1.1-2.4,2,0,.6.7,1,1.5,1.4.8.3,2.1.6,2.9.8,3.4.8,4.8,1.8,5.1,4.4.7,4.9-2.8,8.8-9.4,9.9ZM463.2,646.8l-6,1-.5,15.9-6.9,1.2.5-15.9-6,1.1.2-6.8,18.9-3.3-.2,6.8ZM484.5,650.3c0,2.4-.4,9.1-9.9,10.8-9.5,1.7-9.3-5.1-9.3-7.5l.5-14.2,6.9-1.2-.5,14c0,1-.1,3.7,2.5,3.2,2.7-.5,2.7-3.2,2.8-4.1l.5-14,6.9-1.2-.5,14.2ZM497.8,656.5l-10,1.8.7-22.7,10.3-1.8c5.5-1,8.9.7,9.8,7,1.1,7.9-3,14.5-10.7,15.8ZM518,653l-6.9,1.2.8-22.7,6.9-1.2-.8,22.7ZM531.3,651.2c-5.4,1-9.1-.9-10-7.5-1.1-8.2,3.2-15,11.6-16.5,5.4-.9,9.1.9,10,7.6,1.1,8.2-3.2,14.9-11.6,16.4ZM532.5,633.1c-3.3.6-4.6,4.9-4,8.7.4,2.6,1.4,3.9,3.3,3.5,3.4-.6,4.6-5,4-8.7-.4-2.6-1.4-3.9-3.3-3.5Z"/>
  <g>
    <g class="st6">
      <path d="M404.6,489.2c1.5,1.7,3.3,3.3,5.3,4.4,1.7,1,3.5,1.6,5.4,2.1,2.9.7,5.8.9,8.8.9s1.8,0,2.7,0c3.9-.2,7.8-.7,11.6-1.4,7.2-1.4,14.2-3.6,21-6.3,3.7-1.5,7.4-3.1,10.9-5,3.5-1.8,7-3.6,10.2-5.8,3-2,5.8-4.1,8.5-6.5,2.6-2.3,5-4.8,6.6-7.9.4-.8.8-1.6,1-2.4.2-1.1.2-2.3,0-3.4-.3-1.4-.9-2.7-1.7-3.9-1.6-2.5-3.5-4.9-5.6-7-3.5-3.6-7.7-6.5-12.5-7.8-5.1-1.4-10.4-1.5-15.7-1.1-5.9.5-11.7,1.7-17.4,3.3-5.2,1.5-10.4,3.2-15.4,5.4-2.3,1-4.5,2.1-6.8,3.1-1,.5-2,1.1-3.1,1.5,0,0,0,0,0,0-1.4.2-.1,2.4.2,3,.7,1.3,1.5,2.6,2.4,3.8-2.4,1.3-4.8,2.8-7,4.5-1.3,1-2.6,1.9-3.9,3-1,.9-2,1.9-2.9,2.8-1.1,1.2-2.2,2.5-3.3,3.7-.8.8-1.5,1.7-2.1,2.6-1.1,1.7-2.1,3.7-2,5.8,0,1.1.4,2.2.9,3.2,1,2,2.5,3.9,4,5.5ZM407.3,479.5c.7-1.4,1.5-2.8,2.6-4,1.5-1.7,3.1-3.1,4.8-4.5,2.6-2.2,5.3-4.1,8.1-5.9.9-.6,1.8-1.2,2.7-1.7,1.2,1.3,2.5,2.5,3.9,3.5.5.4,1.1.7,1.7,1,.3.2.7.2,1,0,.3-.5,1-.8,1.5-1.1.5-.3,1.1-.6,1.6-.9,2.1-1.2,4.4-2.3,6.6-3.3,4.8-2.1,9.6-4,14.6-5.5,1.4-.4,2.7-.8,4.1-1.1,3.2-.8,6.3-1.4,9.5-2,3.1-.5,6.2-1,9.3-1.1,2.4-.1,5-.2,7.4,0-.2.8-.5,1.5-.8,2.3-1.2,2.4-2.8,4.6-4.6,6.7-2.4,2.7-5.2,4.9-8.2,7-3.2,2.3-6.4,4.3-9.9,6.1-6.7,3.5-13.9,6.3-21.1,8.4h0s0,0,0,0c-5.5,1.5-11.1,2.9-16.8,3.6-5.6.7-11.4.9-17-.3-.9-.2-1.7-.5-2.5-.8,0,0,0,0,0,0-.1-2.3.5-4.5,1.5-6.6Z"/>
    </g>
    <g class="st6">
      <path d="M308.1,673.1l-2.7.5v4.3c-.1,0,1.6-.3,1.6-.3,2.3-.4,3.4-1.7,3.2-3.2-.2-1.6-1.6-1.4-2.1-1.3Z"/>
    </g>
    <g class="st6">
      <path d="M387.7,567.2c-1.7-8.1-14.4-23.1-19.6-18,0,0-3.6,2.7-3.7,29.7,0,20.5,2.6,28.9,2.6,28.9,0,0,2.7,4.9,6.8,7.7,5.1,3.6,7.6,3.3,8.2,2.2.7-1.1,7.3-42.3,5.7-50.4Z"/>
    </g>
    <g class="st6">
      <path d="M80.6,663c-34.2,4.7-55.1,1.3-57.1-15.6-3.6-30.7,64.4-104.2,148-148.9,0-2.9-2.2-5.3-2.2-5.3,0,0-75.8,34.4-130,94.7-32.4,36-35.1,60.7-18.7,80.7,17.9,21.8,56.8,47.8,196,0l-25.6-30.5c-36.2,11-75.7,20.2-110.4,25Z"/>
    </g>
    <g class="st6">
      <path d="M329.6,669.6h-.2c-.5,2.1-.3,1.5-.9,3.8-.2.9-.6,2.2-1,3.7l3.6-.6c-.4-1.4-.6-2.4-.8-3.3-.2-1.1-.4-1.9-.7-3.5Z"/>
    </g>
    <g class="st6">
      <path d="M321.4,612.3c.9-1.2,1.7-2.5,2.4-3.9,0,0,0,0,0,0,0,0,0,0,0,0,0,0,0,0,0-.2.7-1.5,1.5-3.2,1.8-4.9.3-1.4.5-2.8.6-4.2,0-.8-.1-1.6-.3-2.4-.2-1-.7-2-1.2-3-.4-.9-.8-1.8-1.3-2.7-1-1.7-2.1-3.4-3.4-5-2.2-2.8-4.7-5.8-7.6-7.9-1.7-1.3-3.7-2.3-5.7-2.9-3.6-1-7.4-1.3-11.1-1.3-6.9,0-13.9,1.1-20.6,2.6-3.9.9-7.8,1.8-11.6,3,0,0,0,0-.1,0-23,4.4-73,14.4-81.9,10.5-4.4-1.9-2.9-10.9,10.4-33.1,12.1-20.2,26.3-35.9,37.9-47,9.1-8.1,18.9-15.5,29-22.3,13.7-9.1,28-17.5,43.4-23.4,5.4-2,10.8-3.7,16.5-4.7,5.8-1,11.8-1.6,17.7-.8.2,3.2-.2,6.3-.8,9.5-.9,4.3-2.1,8.4-3.6,12.5-2.7,7-6.3,13.7-10.2,20-4,6.6-8.6,12.8-13.4,18.8-5.1,6.5-10.8,12.4-16.4,18.4-2.9,3-5.9,5.9-8.8,8.8-1.3,1.3-2.5,2.6-3.6,4.1-.5.6-.9,1.3-1.2,2-.1.3-.2.6-.2.8,0,.5.2,1,.5,1.5.4.9,1.2,1.7,1.9,2.5.7.8,1.5,1.5,2.3,2.2.8.7,1.8,1.4,2.9,1.5.5,0,1.1-.1,1.6-.3,1.3-.4,2.6-1.1,3.8-1.8,2.8-1.6,5.3-3.5,7.9-5.4,3.2-2.4,6.4-4.8,9.5-7.4,3.2-2.7,6.3-5.6,9.3-8.5,2.9-2.8,5.9-5.5,8.7-8.5,2.8-3,5.6-6.1,8.2-9.2,5.2-6.3,10-12.8,13.9-19.9,3.4-6.2,6.2-12.9,6.8-20,.3-3.7,0-7.7-1.3-11.2-1.7-4.6-4.4-8.5-7.6-12.2-4.9-5.7-10.6-10.9-17.2-14.6-2.8-1.6-5.9-2.7-9-3.3-7.8-1.4-15.7-.6-23.4,1.1-7.5,1.7-14.9,4.1-22.1,6.9-15.7,6.2-30.6,14.5-44.3,24.3-13.5,9.7-26.2,20.5-37.8,32.4-10.8,11.2-20.9,23.4-27.8,37.4-1.6,3.3-3.2,6.6-4.3,10.1-.7,2.1-1.1,4.3-1.5,6.4-.4,2.3-.7,4.6-.8,7,0,.9,0,1.8,0,2.7,0,.9.2,1.9.4,2.8.2,1.3.5,2.7,1,4.1.5,1.5,1.1,3.1,1.8,4.5,2.6,5.5,6.5,10.1,10.8,14.3,2.4,2.3,4.9,4.5,7.7,6.2.5.4,1.1.9,1.6,1.3,3.5,2.5,7.6,4.2,11.8,5.2,1.4.2,2.9.3,4.3.3,2.8,0,5.6-.3,8.3-.5,5.9-.4,11.7-1.4,17.5-2.5,14.3-2.5,28.4-5.8,42.5-9.1,8.4-1.7,16.7-3.8,25.2-4.8,4-.8,8.2-1.3,12.3-1.2-4.1,3.4-14.7,11-39.5,22.5-17.2,8-38.4,16.1-61.5,23.5l25,30.3c.6-.2,1.2-.4,1.8-.6,61.7-22.2,85.5-39.3,92.2-51.8Z"/>
    </g>
    <g class="st6">
      <path d="M861,589.1c-2.2-4.2-7.8-13.9-17-21-12-9.2-26.9-12.6-26.9-12.6,0,0-40.9,2.7-86.7,20.4-14.2,5.5-26.5,11.2-37.1,16.8,3.7-6.4,7.6-12.6,11.3-17.8,8.2-11.5,21.3-29,24.9-33.7.6-.7.6-1.8.2-2.6-2.1-4-8.6-15.1-15.7-17.1-2.1-1.1-25.2-11.5-108.7,25.4,12-12.7,23-28.8,26.6-47.1,8.9-45.4-15.8-58.7-15.8-58.7l-21.8,30.6s9.8,17-1.3,40.5c-7.9,16.8-20.7,32.3-27.3,39.7-.7-3.1-1.2-6.4-1.4-9.9-1.8-30.9,14.1-66.2,17.1-72.5.3-.6.2-1.3-.3-1.7-1.9-1.8-7.1-6.6-11.7-9.3-5.8-3.4-14.4-5.3-14.4-5.3,0,0-27.9,31.9-19.3,87.3,10.7,69.1,67.1,91,67.1,91l-2.1-35.8c0-.8-.5-1.5-1.2-1.8-2.8-1.4-10.8-5.7-18.4-13.8,18.8-6.3,66.6-21.8,86.9-25.3,3.4-.6,6.7-1.1,9.8-1.5-12.1,15-24.6,32.7-32.9,47.8-12.6,23.1-19,42.3-19.5,44h-.1c0,0,0,.1,0,.1,0,0,0,0,0,0h0s23.7,20,23.7,20c.6.5,1.4.5,1.9,0,6.3-5.2,42.4-34.6,70.8-44.6,52.1-18.2,124.9-27.7,138.1-29.3,1-.1,1.6-1.4,1.1-2.3Z"/>
    </g>
    <g class="st6">
      <path d="M257.1,657.9l1.5,57.8,303.2-53.2-1.5-57.8-303.2,53.2ZM294.8,690.1c-1.3,1.3-4.2,3.3-8.5,4.1-6.4,1.1-10.7-1.5-11.5-7.7-1.1-7.7,3.9-14.7,12.1-16.1,3.6-.6,6.6,0,7.6.2l-.2,6.3c-1.9-.3-3.9-.6-6.3-.2-4.2.7-6.7,3.1-6.1,7.2.5,3.5,2.7,5,5.5,4.5.4,0,.7-.2,1-.3l.2-6.2,6.6-1.2-.3,9.3ZM309.8,689.5l-4.7-7.1-.3,8-6.9,1.2.8-22.7,11.2-2c1.6-.3,6.1-1.1,6.9,4.3.5,3.9-1.5,7.6-4.8,9.1l5.3,8-7.5,1.3ZM333.3,685.4l-.9-3.4-6.7,1.2-1.1,3.8-6.9,1.2,7.4-23.9,9.3-1.6,5.9,21.6-6.9,1.2ZM358.3,665.2l-8.8,1.5v2.7c0,0,7.7-1.4,7.7-1.4l-.2,5.8-7.8,1.4-.2,7.4-6.9,1.2.8-22.7,15.7-2.8-.2,6.8ZM376.9,661.9l-8.8,1.5v2.7c0,0,7.7-1.4,7.7-1.4l-.2,5.8-7.8,1.4-.2,7.4-6.9,1.2.8-22.7,15.7-2.8-.2,6.8ZM386.3,676.1l-6.9,1.2.8-22.7,6.9-1.2-.8,22.7ZM408.2,656.4l-6,1-.5,15.9-6.9,1.2.5-15.9-6,1.1.2-6.8,18.9-3.3-.2,6.8ZM417.1,670.7l-6.9,1.2.8-22.7,6.9-1.2-.8,22.7ZM433.8,668.3c-2.6.5-5.5.4-7.8-.5l.2-6.3c3,.9,5.8,1.3,7.7,1,1.5-.3,2.4-1,2.3-1.8-.1-.9-1.5-1.3-3.5-1.7-1.3-.3-2.5-.6-3.5-1.2-1.4-.8-2.5-2-2.8-4.2-.6-4.5,2.8-8.3,8.8-9.3,2.2-.4,4.3-.3,6.7.6l-.2,6.1c-2.3-1-4-1.4-5.8-1.1-1.5.3-2.5,1.1-2.4,2,0,.6.7,1,1.5,1.4.8.3,2.1.6,2.9.8,3.4.8,4.8,1.8,5.1,4.4.7,4.9-2.8,8.8-9.4,9.9ZM463.2,646.8l-6,1-.5,15.9-6.9,1.2.5-15.9-6,1.1.2-6.8,18.9-3.3-.2,6.8ZM484.5,650.3c0,2.4-.4,9.1-9.9,10.8-9.5,1.7-9.3-5.1-9.3-7.5l.5-14.2,6.9-1.2-.5,14c0,1-.1,3.7,2.5,3.2,2.7-.5,2.7-3.2,2.8-4.1l.5-14,6.9-1.2-.5,14.2ZM497.8,656.5l-10,1.8.7-22.7,10.3-1.8c5.5-1,8.9.7,9.8,7,1.1,7.9-3,14.5-10.7,15.8ZM518,653l-6.9,1.2.8-22.7,6.9-1.2-.8,22.7ZM531.3,651.2c-5.4,1-9.1-.9-10-7.5-1.1-8.2,3.2-15,11.6-16.5,5.4-.9,9.1.9,10,7.6,1.1,8.2-3.2,14.9-11.6,16.4Z"/>
    </g>
    <g class="st6">
      <path d="M290.4,563.6c-.4.3-.5.7-.3,1.1.9,1.5,3.1,5,6.2,5.2,2.7.2,16.4-3.7,32.6-8.7-1.6,7.1-4.5,24.5.6,40.5,6.7,20.7,19,27.9,19,27.9,0,0,7.6-2.2,12.8-5.2s8.6-6.3,8.6-6.3c0,0-1.6-3.7-4.7-1.8s-13.3,5.3-15.6,4.3c-2.3-1-4.4-4.9-.7-28.2,3.2-19.7,6.3-34.1,7.6-40,28.1-9.7,48.1-19.4,52.8-21.8.6-.3.8-1.1.5-1.6-1.2-2.1-4.3-6.9-9.5-11.7-4.2-3.9-9.2-6.1-10.9-6.8-.4-.2-.8-.2-1.2,0-3.9,1.4-26.2,9.7-45.4,19.3-15.9,8-47.6,30.5-52.4,33.9Z"/>
    </g>
    <g class="st6">
      <path d="M497.9,640.5l-2.7.5-.3,9.5,2.4-.4c3-.5,4.6-3.3,4.1-6.7-.3-2.2-1.3-3.3-3.5-2.9Z"/>
    </g>
    <g class="st6">
      <path d="M461.9,567.2c-18.1,5.5-33.4,12.4-42.6,16.9,7.8-7.9,19.4-19.7,31.6-32.1,17-17.2,26.2-30.9,29.3-37.3.7-1.4.5-3-.6-4.1,0,0-6.2-9.2-9.5-9.5-.2,0-.6,0-.9.3-4.6,1.3-25.6,7.5-45.3,19.3-19.3,11.6-32.4,25.4-35.6,28.8-.4.5-.5,1.2-.2,1.8l4.1,8.2c.4.8,1.4,1.1,2.2.6,5.6-3.9,26.8-18.2,43.5-25.1-14.2,18.5-48.3,68.4-53.2,75.6-.1.1-.2.3-.3.5-.2.2-.3.4-.3.4h.1c-.2.5-.2,1.1,0,1.7.4,1,1.5,2.4,2.7,4.5,2.8,4.7,10.3,10.3,10.3,10.3,0,0,27.4-19,52.8-34.4-2.4,5.5-4.3,9.8-5.3,12.1-.5,1.2-.2,2.5.8,3.3l9,7.4c1,.8,2.4.8,3.4,0l16.7-13.1c1.2-.9,2-2.2,2.4-3.6,1.3-4.5,4.3-15.2,7.5-24.8,7.6-3,14.4-5.6,20.4-7.7.4,5.8,1.6,13.8,5.7,18.5,6.5,7.3,15.8,8.9,15.8,8.9,0,0,.8-19.1.3-33.8,0-.2,0-.4,0-.7,4-1.1,6.7-1.8,8-2.1.6-.1,1-.5,1.2-1.1l1.5-6c.2-.6-.3-1.1-.9-1-1.9.4-5,.7-10.2,1.8-.7-16.4-1.9-40.6-3.1-50.5-1.1-9.4-11.5-13.5-16-14.8-1.2-.4-2.5.2-3.1,1.3-3.5,6.1-15,26.4-25.8,46-4.8,8.8-10.9,21.3-16.6,33.6ZM505.4,521c-.4,3.4-1.3,21.1-.7,35.3-4.6,1-9.4,2.1-14.4,3.3,5.4-14.1,13.8-35.4,15.1-38.6Z"/>
    </g>
    <g class="st6">
      <path d="M532.5,633.1c-3.3.6-4.6,4.9-4,8.7.4,2.6,1.4,3.9,3.3,3.5,3.4-.6,4.6-5,4-8.7-.4-2.6-1.4-3.9-3.3-3.5Z"/>
    </g>
  </g>
  <path class="st0" d="M1341.7,567.2c-1.7-8.1-14.4-23.1-19.6-18,0,0-3.6,2.7-3.7,29.7,0,20.5,2.6,28.9,2.6,28.9,0,0,2.7,4.9,6.8,7.7,5.1,3.6,7.6,3.3,8.2,2.2.7-1.1,7.3-42.3,5.7-50.4ZM1244.4,563.6c-.4.3-.5.7-.3,1.1.9,1.5,3.1,5,6.2,5.2,2.7.2,16.4-3.7,32.6-8.7-1.6,7.1-4.5,24.5.6,40.5,6.7,20.7,19,27.9,19,27.9,0,0,7.6-2.2,12.8-5.2s8.6-6.3,8.6-6.3c0,0-1.6-3.7-4.7-1.8s-13.3,5.3-15.6,4.3c-2.3-1-4.4-4.9-.7-28.2,3.2-19.7,6.3-34.1,7.6-40,28.1-9.7,48.1-19.4,52.8-21.8.6-.3.8-1.1.5-1.6-1.2-2.1-4.3-6.9-9.5-11.7-4.2-3.9-9.2-6.1-10.9-6.8-.4-.2-.8-.2-1.2,0-3.9,1.4-26.2,9.7-45.4,19.3-15.9,8-47.6,30.5-52.4,33.9ZM1432.5,533.6c10.8-19.6,22.4-40,25.8-46,.6-1.1,1.9-1.6,3.1-1.3,4.5,1.3,14.9,5.4,16,14.8,1.2,9.9,2.4,34.1,3.1,50.5,5.2-1.1,8.3-1.4,10.2-1.8.6-.1,1.1.5.9,1l-1.5,6c-.2.5-.7.9-1.2,1.1-1.3.3-4,1-8,2.1,0,.2,0,.5,0,.7.5,14.7-.3,33.8-.3,33.8,0,0-9.3-1.6-15.8-8.9-4.2-4.7-5.4-12.8-5.7-18.5-6,2.1-12.8,4.7-20.4,7.7-3.2,9.6-6.3,20.2-7.5,24.8-.4,1.4-1.3,2.7-2.4,3.6l-16.7,13.1c-1,.8-2.4.8-3.4,0l-9-7.4c-1-.8-1.3-2.2-.8-3.3,1-2.3,2.9-6.7,5.3-12.1-25.3,15.5-52.8,34.4-52.8,34.4,0,0-7.5-5.5-10.3-10.3-1.2-2-2.3-3.5-2.7-4.5-.3-.6-.3-1.2,0-1.8h-.1c0,0,0,0,.3-.3,0-.2.2-.3.3-.5,4.9-7.1,39-57.1,53.2-75.6-16.7,6.9-37.9,21.3-43.5,25.1-.7.5-1.8.2-2.2-.6l-4.1-8.2c-.3-.6-.2-1.3.2-1.8,3.2-3.5,16.3-17.2,35.6-28.8,19.7-11.8,40.7-18,45.3-19.3.4-.2.7-.3.9-.3,3.3.3,9.5,9.5,9.5,9.5,1.1,1.1,1.2,2.7.6,4.1-3.1,6.4-12.3,20.1-29.3,37.3-12.2,12.3-23.8,24.1-31.6,32.1,9.2-4.5,24.5-11.4,42.6-16.9,5.7-12.3,11.7-24.8,16.6-33.6ZM1444.3,559.6c4.9-1.2,9.7-2.3,14.4-3.3-.5-14.2.3-31.9.7-35.3-1.3,3.2-9.6,24.5-15.1,38.6ZM1277.8,608.4s0,0,0,0c0,0,0,0,0,0,0,0,0,0,0-.2.7-1.5,1.5-3.2,1.8-4.9.3-1.4.5-2.8.6-4.2,0-.8-.1-1.6-.3-2.4-.2-1-.7-2-1.2-3-.4-.9-.8-1.8-1.3-2.7-1-1.7-2.1-3.4-3.4-5-2.2-2.8-4.7-5.8-7.6-7.9-1.7-1.3-3.7-2.3-5.7-2.9-3.6-1-7.4-1.3-11.1-1.3-6.9,0-13.9,1.1-20.6,2.6-3.9.9-7.8,1.8-11.6,3,0,0,0,0-.1,0-23,4.4-73,14.4-81.9,10.5-4.4-1.9-2.9-10.9,10.4-33.1,12.1-20.2,26.3-35.9,37.9-47,9.1-8.1,18.9-15.5,29-22.3,13.7-9.1,28-17.5,43.4-23.4,5.4-2,10.8-3.7,16.5-4.7,5.8-1,11.8-1.6,17.7-.8.2,3.2-.2,6.3-.8,9.5-.9,4.3-2.1,8.4-3.6,12.5-2.7,7-6.3,13.7-10.2,20-4,6.6-8.6,12.8-13.4,18.8-5.1,6.5-10.8,12.4-16.4,18.4-2.9,3-5.9,5.9-8.8,8.8-1.3,1.3-2.5,2.6-3.6,4.1-.5.6-.9,1.3-1.2,2-.1.3-.2.6-.2.8,0,.5.2,1,.5,1.5.4.9,1.2,1.7,1.9,2.5.7.8,1.5,1.5,2.3,2.2.8.7,1.8,1.4,2.9,1.5.5,0,1.1-.1,1.6-.3,1.3-.4,2.6-1.1,3.8-1.8,2.8-1.6,5.3-3.5,7.9-5.4,3.2-2.4,6.4-4.8,9.5-7.4,3.2-2.7,6.3-5.6,9.3-8.5,2.9-2.8,5.9-5.5,8.7-8.5,2.8-3,5.6-6.1,8.2-9.2,5.2-6.3,10-12.8,13.9-19.9,3.4-6.2,6.2-12.9,6.8-20,.3-3.7,0-7.7-1.3-11.2-1.7-4.6-4.4-8.5-7.6-12.2-4.9-5.7-10.6-10.9-17.2-14.6-2.8-1.6-5.9-2.7-9-3.3-7.8-1.4-15.7-.6-23.4,1.1-7.5,1.7-14.9,4.1-22.1,6.9-15.7,6.2-30.6,14.5-44.3,24.3-13.5,9.7-26.2,20.5-37.8,32.4-10.8,11.2-20.9,23.4-27.8,37.4-1.6,3.3-3.2,6.6-4.3,10.1-.7,2.1-1.1,4.3-1.5,6.4-.4,2.3-.7,4.6-.8,7,0,.9,0,1.8,0,2.7,0,.9.2,1.9.4,2.8.2,1.3.5,2.7,1,4.1.5,1.5,1.1,3.1,1.8,4.5,2.6,5.5,6.5,10.1,10.8,14.3,2.4,2.3,4.9,4.5,7.7,6.2.5.4,1.1.9,1.6,1.3,3.5,2.5,7.6,4.2,11.8,5.2,1.4.2,2.9.3,4.3.3,2.8,0,5.6-.3,8.3-.5,5.9-.4,11.7-1.4,17.5-2.5,14.3-2.5,28.4-5.8,42.5-9.1,8.4-1.7,16.7-3.8,25.2-4.8,4-.8,8.2-1.3,12.3-1.2-4.1,3.4-14.7,11-39.5,22.5-17.2,8-38.4,16.1-61.5,23.5l25,30.3c.6-.2,1.2-.4,1.8-.6,61.7-22.2,85.5-39.3,92.2-51.8.9-1.2,1.7-2.5,2.4-3.9ZM1354.6,483.7c-.5-1-.8-2.1-.9-3.2-.1-2.1.9-4.1,2-5.8.6-1,1.3-1.8,2.1-2.6,1.1-1.2,2.2-2.5,3.3-3.7.9-1,1.9-2,2.9-2.8,1.3-1,2.6-2,3.9-3,2.3-1.6,4.6-3.1,7-4.5-.9-1.2-1.7-2.5-2.4-3.8-.3-.6-1.5-2.8-.2-3,0,0,0,0,0,0,1.1-.4,2.1-1,3.1-1.5,2.3-1,4.5-2.1,6.8-3.1,5-2.1,10.1-3.9,15.4-5.4,5.7-1.7,11.5-2.9,17.4-3.3,5.3-.4,10.6-.3,15.7,1.1,4.8,1.3,9.1,4.2,12.5,7.8,2.1,2.2,4,4.5,5.6,7,.7,1.2,1.4,2.5,1.7,3.9.2,1.1.3,2.3,0,3.4-.2.9-.6,1.6-1,2.4-1.6,3.1-4,5.6-6.6,7.9-2.7,2.3-5.6,4.5-8.5,6.5-3.3,2.2-6.8,4-10.2,5.8-3.6,1.9-7.2,3.5-10.9,5-6.8,2.7-13.8,4.9-21,6.3-3.8.7-7.7,1.3-11.6,1.4-.9,0-1.8,0-2.7,0-3,0-5.9-.2-8.8-.9-1.9-.5-3.7-1.1-5.4-2.1-2-1.1-3.8-2.7-5.3-4.4-1.5-1.7-3-3.5-4-5.5ZM1359.8,486.1s0,0,0,0c.8.3,1.7.6,2.5.8,5.6,1.2,11.4,1,17,.3,5.7-.7,11.3-2,16.8-3.6,0,0,0,0,0,0h0c7.3-2.2,14.4-4.9,21.1-8.5,3.5-1.8,6.7-3.9,9.9-6.1,2.9-2.1,5.7-4.3,8.2-7,1.8-2,3.4-4.2,4.6-6.7.3-.7.6-1.5.8-2.3-2.5-.2-5-.1-7.4,0-3.1.2-6.2.6-9.3,1.1-3.2.6-6.4,1.2-9.5,2-1.4.4-2.7.7-4.1,1.1-5,1.5-9.9,3.4-14.6,5.5-2.2,1-4.5,2-6.6,3.3-.5.3-1.1.6-1.6.9-.5.3-1.2.6-1.5,1.1-.3.2-.7.2-1,0-.6-.3-1.2-.6-1.7-1-1.4-1-2.7-2.2-3.9-3.5-.9.6-1.8,1.2-2.7,1.7-2.8,1.8-5.6,3.7-8.1,5.9-1.7,1.4-3.3,2.9-4.8,4.5-1.1,1.2-1.9,2.5-2.6,4-1,2.1-1.6,4.3-1.5,6.6ZM1034.6,663c-34.2,4.7-55.1,1.3-57.1-15.6-3.6-30.7,64.4-104.2,148-148.9,0-2.9-2.2-5.3-2.2-5.3,0,0-75.8,34.4-130,94.7-32.4,36-35.1,60.7-18.7,80.7,17.9,21.8,56.8,47.8,196,0l-25.6-30.5c-36.2,11-75.7,20.2-110.4,25ZM1815,589.1c-2.2-4.2-7.8-13.9-17-21-12-9.2-26.9-12.6-26.9-12.6,0,0-40.9,2.7-86.7,20.4-14.2,5.5-26.5,11.2-37.1,16.8,3.7-6.4,7.6-12.6,11.3-17.8,8.2-11.5,21.3-29,24.9-33.7.6-.7.6-1.8.2-2.6-2.1-4-8.6-15.1-15.7-17.1-2.1-1.1-25.2-11.5-108.7,25.4,12-12.7,23-28.8,26.6-47.1,8.9-45.4-15.8-58.7-15.8-58.7l-21.8,30.6s9.8,17-1.3,40.5c-7.9,16.8-20.7,32.3-27.3,39.7-.7-3.1-1.2-6.4-1.4-9.9-1.8-30.9,14.1-66.2,17.1-72.5.3-.6.2-1.3-.3-1.7-1.9-1.8-7.1-6.6-11.7-9.3-5.8-3.4-14.4-5.3-14.4-5.3,0,0-27.9,31.9-19.3,87.3,10.7,69.1,67.1,91,67.1,91l-2.1-35.8c0-.8-.5-1.5-1.2-1.8-2.8-1.4-10.8-5.7-18.4-13.8,18.8-6.3,66.6-21.8,86.9-25.3,3.4-.6,6.7-1.1,9.8-1.5-12.1,15-24.6,32.7-32.9,47.8-12.6,23.1-19,42.3-19.5,44h-.1c0,0,0,.1,0,.1,0,0,0,0,0,0h0s23.7,20,23.7,20c.6.5,1.4.5,1.9,0,6.3-5.2,42.4-34.6,70.8-44.6,52.1-18.2,124.9-27.7,138.1-29.3,1-.1,1.6-1.4,1.1-2.3ZM1283.6,669.6h-.2c-.5,2.1-.3,1.5-.9,3.8-.2.9-.6,2.2-1,3.7l3.6-.6c-.4-1.4-.6-2.4-.8-3.3-.2-1.1-.4-1.9-.7-3.5ZM1451.9,640.5l-2.7.5-.3,9.5,2.4-.4c3-.5,4.6-3.3,4.1-6.7-.3-2.2-1.3-3.3-3.5-2.9ZM1262.1,673.1l-2.7.5v4.3c-.1,0,1.6-.3,1.6-.3,2.3-.4,3.4-1.7,3.2-3.2-.2-1.6-1.6-1.4-2.1-1.3ZM1514,604.8l-302.5,53.1,1.5,57.8,302.5-53.1-1.5-57.8ZM1248.8,690.1c-1.3,1.3-4.2,3.3-8.5,4.1-6.4,1.1-10.7-1.5-11.5-7.7-1.1-7.7,3.9-14.7,12.1-16.1,3.6-.6,6.6,0,7.6.2l-.2,6.3c-1.9-.3-3.9-.6-6.3-.2-4.2.7-6.7,3.1-6.1,7.2.5,3.5,2.7,5,5.5,4.5.4,0,.7-.2,1-.3l.2-6.2,6.6-1.2-.3,9.3ZM1263.8,689.5l-4.7-7.1-.3,8-6.9,1.2.8-22.7,11.2-2c1.6-.3,6.1-1.1,6.9,4.3.5,3.9-1.5,7.6-4.8,9.1l5.3,8-7.5,1.3ZM1287.3,685.4l-.9-3.4-6.7,1.2-1.1,3.8-6.9,1.2,7.4-23.9,9.3-1.6,5.9,21.6-6.9,1.2ZM1312.3,665.2l-8.8,1.5v2.7c0,0,7.7-1.4,7.7-1.4l-.2,5.8-7.8,1.4-.2,7.4-6.9,1.2.8-22.7,15.7-2.8-.2,6.8ZM1330.9,661.9l-8.8,1.5v2.7c0,0,7.7-1.4,7.7-1.4l-.2,5.8-7.8,1.4-.2,7.4-6.9,1.2.8-22.7,15.7-2.8-.2,6.8ZM1340.3,676.1l-6.9,1.2.8-22.7,6.9-1.2-.8,22.7ZM1362.2,656.4l-6,1-.5,15.9-6.9,1.2.5-15.9-6,1.1.2-6.8,18.9-3.3-.2,6.8ZM1371.1,670.7l-6.9,1.2.8-22.7,6.9-1.2-.8,22.7ZM1387.8,668.3c-2.6.5-5.5.4-7.8-.5l.2-6.3c3,.9,5.8,1.3,7.7,1,1.5-.3,2.4-1,2.3-1.8-.1-.9-1.5-1.3-3.5-1.7-1.3-.3-2.5-.6-3.5-1.2-1.4-.8-2.5-2-2.8-4.2-.6-4.5,2.8-8.3,8.8-9.3,2.2-.4,4.3-.3,6.7.6l-.2,6.1c-2.3-1-4-1.4-5.8-1.1-1.5.3-2.5,1.1-2.4,2,0,.6.7,1,1.5,1.4.8.3,2.1.6,2.9.8,3.4.8,4.8,1.8,5.1,4.4.7,4.9-2.8,8.8-9.4,9.9ZM1417.2,646.8l-6,1-.5,15.9-6.9,1.2.5-15.9-6,1.1.2-6.8,18.9-3.3-.2,6.8ZM1438.5,650.3c0,2.4-.4,9.1-9.9,10.8-9.5,1.7-9.3-5.1-9.3-7.5l.5-14.2,6.9-1.2-.5,14c0,1-.1,3.7,2.5,3.2,2.7-.5,2.7-3.2,2.8-4.1l.5-14,6.9-1.2-.5,14.2ZM1451.8,656.5l-10,1.8.7-22.7,10.3-1.8c5.5-1,8.9.7,9.8,7,1.1,7.9-3,14.5-10.7,15.8ZM1472,653l-6.9,1.2.8-22.7,6.9-1.2-.8,22.7ZM1485.3,651.2c-5.4,1-9.1-.9-10-7.5-1.1-8.2,3.2-15,11.6-16.5,5.4-.9,9.1.9,10,7.6,1.1,8.2-3.2,14.9-11.6,16.4ZM1486.5,633.1c-3.3.6-4.6,4.9-4,8.7.4,2.6,1.4,3.9,3.3,3.5,3.4-.6,4.6-5,4-8.7-.4-2.6-1.4-3.9-3.3-3.5Z"/>
  <g>
    <path class="st1" d="M1346.6,797.2c1.5,1.7,3.3,3.3,5.3,4.4,1.7,1,3.5,1.6,5.4,2.1,2.9.7,5.8.9,8.8.9s1.8,0,2.7,0c3.9-.2,7.8-.7,11.6-1.4,7.2-1.4,14.2-3.6,21-6.3,3.7-1.5,7.4-3.1,10.9-5,3.5-1.8,7-3.6,10.2-5.8,3-2,5.8-4.1,8.5-6.5,2.6-2.3,5-4.8,6.6-7.9.4-.8.8-1.6,1-2.4.2-1.1.2-2.3,0-3.4-.3-1.4-.9-2.7-1.7-3.9-1.6-2.5-3.5-4.9-5.6-7-3.5-3.6-7.7-6.5-12.5-7.8-5.1-1.4-10.4-1.5-15.7-1.1-5.9.5-11.7,1.7-17.4,3.3-5.2,1.5-10.4,3.2-15.4,5.4-2.3,1-4.5,2.1-6.8,3.1-1,.5-2,1.1-3.1,1.5,0,0,0,0,0,0-1.4.2-.1,2.4.2,3,.7,1.3,1.5,2.6,2.4,3.8-2.4,1.3-4.8,2.8-7,4.5-1.3,1-2.6,1.9-3.9,3-1,.9-2,1.9-2.9,2.8-1.1,1.2-2.2,2.5-3.3,3.7-.8.8-1.5,1.7-2.1,2.6-1.1,1.7-2.1,3.7-2,5.8,0,1.1.4,2.2.9,3.2,1,2,2.5,3.9,4,5.5ZM1349.3,787.5c.7-1.4,1.5-2.8,2.6-4,1.5-1.7,3.1-3.1,4.8-4.5,2.6-2.2,5.3-4.1,8.1-5.9.9-.6,1.8-1.2,2.7-1.7,1.2,1.3,2.5,2.5,3.9,3.5.5.4,1.1.7,1.7,1,.3.2.7.2,1,0,.3-.5,1-.8,1.5-1.1.5-.3,1.1-.6,1.6-.9,2.1-1.2,4.4-2.3,6.6-3.3,4.8-2.1,9.6-4,14.6-5.5,1.4-.4,2.7-.8,4.1-1.1,3.2-.8,6.3-1.4,9.5-2,3.1-.5,6.2-1,9.3-1.1,2.4-.1,5-.2,7.4,0-.2.8-.5,1.5-.8,2.3-1.2,2.4-2.8,4.6-4.6,6.7-2.4,2.7-5.2,4.9-8.2,7-3.2,2.3-6.4,4.3-9.9,6.1-6.7,3.5-13.9,6.3-21.1,8.4h0s0,0,0,0c-5.5,1.5-11.1,2.9-16.8,3.6-5.6.7-11.4.9-17-.3-.9-.2-1.7-.5-2.5-.8,0,0,0,0,0,0-.1-2.3.5-4.5,1.5-6.6Z"/>
    <path class="st1" d="M1250.1,981.1l-2.7.5v4.3c-.1,0,1.6-.3,1.6-.3,2.3-.4,3.4-1.7,3.2-3.2-.2-1.6-1.6-1.4-2.1-1.3Z"/>
    <path class="st1" d="M1329.7,875.2c-1.7-8.1-14.4-23.1-19.6-18,0,0-3.6,2.7-3.7,29.7,0,20.5,2.6,28.9,2.6,28.9,0,0,2.7,4.9,6.8,7.7,5.1,3.6,7.6,3.3,8.2,2.2.7-1.1,7.3-42.3,5.7-50.4Z"/>
    <path class="st1" d="M1022.6,971c-34.2,4.7-55.1,1.3-57.1-15.6-3.6-30.7,64.4-104.2,148-148.9,0-2.9-2.2-5.3-2.2-5.3,0,0-75.8,34.4-130,94.7-32.4,36-35.1,60.7-18.7,80.7,17.9,21.8,56.8,47.8,196,0l-25.6-30.5c-36.2,11-75.7,20.2-110.4,25Z"/>
    <path class="st1" d="M1271.6,977.6h-.2c-.5,2.1-.3,1.5-.9,3.8-.2.9-.6,2.2-1,3.7l3.6-.6c-.4-1.4-.6-2.4-.8-3.3-.2-1.1-.4-1.9-.7-3.5Z"/>
    <path class="st1" d="M1263.4,920.3c.9-1.2,1.7-2.5,2.4-3.9,0,0,0,0,0,0,0,0,0,0,0,0,0,0,0,0,0-.2.7-1.5,1.5-3.2,1.8-4.9.3-1.4.5-2.8.6-4.2,0-.8-.1-1.6-.3-2.4-.2-1-.7-2-1.2-3-.4-.9-.8-1.8-1.3-2.7-1-1.7-2.1-3.4-3.4-5-2.2-2.8-4.7-5.8-7.6-7.9-1.7-1.3-3.7-2.3-5.7-2.9-3.6-1-7.4-1.3-11.1-1.3-6.9,0-13.9,1.1-20.6,2.6-3.9.9-7.8,1.8-11.6,3,0,0,0,0-.1,0-23,4.4-73,14.4-81.9,10.5-4.4-1.9-2.9-10.9,10.4-33.1,12.1-20.2,26.3-35.9,37.9-47,9.1-8.1,18.9-15.5,29-22.3,13.7-9.1,28-17.5,43.4-23.4,5.4-2,10.8-3.7,16.5-4.7,5.8-1,11.8-1.6,17.7-.8.2,3.2-.2,6.3-.8,9.5-.9,4.3-2.1,8.4-3.6,12.5-2.7,7-6.3,13.7-10.2,20-4,6.6-8.6,12.8-13.4,18.8-5.1,6.5-10.8,12.4-16.4,18.4-2.9,3-5.9,5.9-8.8,8.8-1.3,1.3-2.5,2.6-3.6,4.1-.5.6-.9,1.3-1.2,2-.1.3-.2.6-.2.8,0,.5.2,1,.5,1.5.4.9,1.2,1.7,1.9,2.5.7.8,1.5,1.5,2.3,2.2.8.7,1.8,1.4,2.9,1.5.5,0,1.1-.1,1.6-.3,1.3-.4,2.6-1.1,3.8-1.8,2.8-1.6,5.3-3.5,7.9-5.4,3.2-2.4,6.4-4.8,9.5-7.4,3.2-2.7,6.3-5.6,9.3-8.5,2.9-2.8,5.9-5.5,8.7-8.5,2.8-3,5.6-6.1,8.2-9.2,5.2-6.3,10-12.8,13.9-19.9,3.4-6.2,6.2-12.9,6.8-20,.3-3.7,0-7.7-1.3-11.2-1.7-4.6-4.4-8.5-7.6-12.2-4.9-5.7-10.6-10.9-17.2-14.6-2.8-1.6-5.9-2.7-9-3.3-7.8-1.4-15.7-.6-23.4,1.1-7.5,1.7-14.9,4.1-22.1,6.9-15.7,6.2-30.6,14.5-44.3,24.3-13.5,9.7-26.2,20.5-37.8,32.4-10.8,11.2-20.9,23.4-27.8,37.4-1.6,3.3-3.2,6.6-4.3,10.1-.7,2.1-1.1,4.3-1.5,6.4-.4,2.3-.7,4.6-.8,7,0,.9,0,1.8,0,2.7,0,.9.2,1.9.4,2.8.2,1.3.5,2.7,1,4.1.5,1.5,1.1,3.1,1.8,4.5,2.6,5.5,6.5,10.1,10.8,14.3,2.4,2.3,4.9,4.5,7.7,6.2.5.4,1.1.9,1.6,1.3,3.5,2.5,7.6,4.2,11.8,5.2,1.4.2,2.9.3,4.3.3,2.8,0,5.6-.3,8.3-.5,5.9-.4,11.7-1.4,17.5-2.5,14.3-2.5,28.4-5.8,42.5-9.1,8.4-1.7,16.7-3.8,25.2-4.8,4-.8,8.2-1.3,12.3-1.2-4.1,3.4-14.7,11-39.5,22.5-17.2,8-38.4,16.1-61.5,23.5l25,30.3c.6-.2,1.2-.4,1.8-.6,61.7-22.2,85.5-39.3,92.2-51.8Z"/>
    <path class="st1" d="M1803,897.1c-2.2-4.2-7.8-13.9-17-21-12-9.2-26.9-12.6-26.9-12.6,0,0-40.9,2.7-86.7,20.4-14.2,5.5-26.5,11.2-37.1,16.8,3.7-6.4,7.6-12.6,11.3-17.8,8.2-11.5,21.3-29,24.9-33.7.6-.7.6-1.8.2-2.6-2.1-4-8.6-15.1-15.7-17.1-2.1-1.1-25.2-11.5-108.7,25.4,12-12.7,23-28.8,26.6-47.1,8.9-45.4-15.8-58.7-15.8-58.7l-21.8,30.6s9.8,17-1.3,40.5c-7.9,16.8-20.7,32.3-27.3,39.7-.7-3.1-1.2-6.4-1.4-9.9-1.8-30.9,14.1-66.2,17.1-72.5.3-.6.2-1.3-.3-1.7-1.9-1.8-7.1-6.6-11.7-9.3-5.8-3.4-14.4-5.3-14.4-5.3,0,0-27.9,31.9-19.3,87.3,10.7,69.1,67.1,91,67.1,91l-2.1-35.8c0-.8-.5-1.5-1.2-1.8-2.8-1.4-10.8-5.7-18.4-13.8,18.8-6.3,66.6-21.8,86.9-25.3,3.4-.6,6.7-1.1,9.8-1.5-12.1,15-24.6,32.7-32.9,47.8-12.6,23.1-19,42.3-19.5,44h-.1c0,0,0,.1,0,.1,0,0,0,0,0,0h0s23.7,20,23.7,20c.6.5,1.4.5,1.9,0,6.3-5.2,42.4-34.6,70.8-44.6,52.1-18.2,124.9-27.7,138.1-29.3,1-.1,1.6-1.4,1.1-2.3Z"/>
    <path class="st1" d="M1199.1,965.9l1.5,57.8,303.2-53.2-1.5-57.8-303.2,53.2ZM1236.8,998.1c-1.3,1.3-4.2,3.3-8.5,4.1-6.4,1.1-10.7-1.5-11.5-7.7-1.1-7.7,3.9-14.7,12.1-16.1,3.6-.6,6.6,0,7.6.2l-.2,6.3c-1.9-.3-3.9-.6-6.3-.2-4.2.7-6.7,3.1-6.1,7.2.5,3.5,2.7,5,5.5,4.5.4,0,.7-.2,1-.3l.2-6.2,6.6-1.2-.3,9.3ZM1251.8,997.5l-4.7-7.1-.3,8-6.9,1.2.8-22.7,11.2-2c1.6-.3,6.1-1.1,6.9,4.3.5,3.9-1.5,7.6-4.8,9.1l5.3,8-7.5,1.3ZM1275.3,993.4l-.9-3.4-6.7,1.2-1.1,3.8-6.9,1.2,7.4-23.9,9.3-1.6,5.9,21.6-6.9,1.2ZM1300.3,973.2l-8.8,1.5v2.7c0,0,7.7-1.4,7.7-1.4l-.2,5.8-7.8,1.4-.2,7.4-6.9,1.2.8-22.7,15.7-2.8-.2,6.8ZM1318.9,969.9l-8.8,1.5v2.7c0,0,7.7-1.4,7.7-1.4l-.2,5.8-7.8,1.4-.2,7.4-6.9,1.2.8-22.7,15.7-2.8-.2,6.8ZM1328.3,984.1l-6.9,1.2.8-22.7,6.9-1.2-.8,22.7ZM1350.2,964.4l-6,1-.5,15.9-6.9,1.2.5-15.9-6,1.1.2-6.8,18.9-3.3-.2,6.8ZM1359.1,978.7l-6.9,1.2.8-22.7,6.9-1.2-.8,22.7ZM1375.8,976.3c-2.6.5-5.5.4-7.8-.5l.2-6.3c3,.9,5.8,1.3,7.7,1,1.5-.3,2.4-1,2.3-1.8-.1-.9-1.5-1.3-3.5-1.7-1.3-.3-2.5-.6-3.5-1.2-1.4-.8-2.5-2-2.8-4.2-.6-4.5,2.8-8.3,8.8-9.3,2.2-.4,4.3-.3,6.7.6l-.2,6.1c-2.3-1-4-1.4-5.8-1.1-1.5.3-2.5,1.1-2.4,2,0,.6.7,1,1.5,1.4.8.3,2.1.6,2.9.8,3.4.8,4.8,1.8,5.1,4.4.7,4.9-2.8,8.8-9.4,9.9ZM1405.2,954.8l-6,1-.5,15.9-6.9,1.2.5-15.9-6,1.1.2-6.8,18.9-3.3-.2,6.8ZM1426.5,958.3c0,2.4-.4,9.1-9.9,10.8-9.5,1.7-9.3-5.1-9.3-7.5l.5-14.2,6.9-1.2-.5,14c0,1-.1,3.7,2.5,3.2,2.7-.5,2.7-3.2,2.8-4.1l.5-14,6.9-1.2-.5,14.2ZM1439.8,964.5l-10,1.8.7-22.7,10.3-1.8c5.5-1,8.9.7,9.8,7,1.1,7.9-3,14.5-10.7,15.8ZM1460,961l-6.9,1.2.8-22.7,6.9-1.2-.8,22.7ZM1473.3,959.2c-5.4,1-9.1-.9-10-7.5-1.1-8.2,3.2-15,11.6-16.5,5.4-.9,9.1.9,10,7.6,1.1,8.2-3.2,14.9-11.6,16.4Z"/>
    <path class="st1" d="M1232.4,871.6c-.4.3-.5.7-.3,1.1.9,1.5,3.1,5,6.2,5.2,2.7.2,16.4-3.7,32.6-8.7-1.6,7.1-4.5,24.5.6,40.5,6.7,20.7,19,27.9,19,27.9,0,0,7.6-2.2,12.8-5.2s8.6-6.3,8.6-6.3c0,0-1.6-3.7-4.7-1.8s-13.3,5.3-15.6,4.3c-2.3-1-4.4-4.9-.7-28.2,3.2-19.7,6.3-34.1,7.6-40,28.1-9.7,48.1-19.4,52.8-21.8.6-.3.8-1.1.5-1.6-1.2-2.1-4.3-6.9-9.5-11.7-4.2-3.9-9.2-6.1-10.9-6.8-.4-.2-.8-.2-1.2,0-3.9,1.4-26.2,9.7-45.4,19.3-15.9,8-47.6,30.5-52.4,33.9Z"/>
    <path class="st1" d="M1439.9,948.5l-2.7.5-.3,9.5,2.4-.4c3-.5,4.6-3.3,4.1-6.7-.3-2.2-1.3-3.3-3.5-2.9Z"/>
    <path class="st1" d="M1403.9,875.2c-18.1,5.5-33.4,12.4-42.6,16.9,7.8-7.9,19.4-19.7,31.6-32.1,17-17.2,26.2-30.9,29.3-37.3.7-1.4.5-3-.6-4.1,0,0-6.2-9.2-9.5-9.5-.2,0-.6,0-.9.3-4.6,1.3-25.6,7.5-45.3,19.3-19.3,11.6-32.4,25.4-35.6,28.8-.4.5-.5,1.2-.2,1.8l4.1,8.2c.4.8,1.4,1.1,2.2.6,5.6-3.9,26.8-18.2,43.5-25.1-14.2,18.5-48.3,68.4-53.2,75.6-.1.1-.2.3-.3.5-.2.2-.3.4-.3.4h.1c-.2.5-.2,1.1,0,1.7.4,1,1.5,2.4,2.7,4.5,2.8,4.7,10.3,10.3,10.3,10.3,0,0,27.4-19,52.8-34.4-2.4,5.5-4.3,9.8-5.3,12.1-.5,1.2-.2,2.5.8,3.3l9,7.4c1,.8,2.4.8,3.4,0l16.7-13.1c1.2-.9,2-2.2,2.4-3.6,1.3-4.5,4.3-15.2,7.5-24.8,7.6-3,14.4-5.6,20.4-7.7.4,5.8,1.6,13.8,5.7,18.5,6.5,7.3,15.8,8.9,15.8,8.9,0,0,.8-19.1.3-33.8,0-.2,0-.4,0-.7,4-1.1,6.7-1.8,8-2.1.6-.1,1-.5,1.2-1.1l1.5-6c.2-.6-.3-1.1-.9-1-1.9.4-5,.7-10.2,1.8-.7-16.4-1.9-40.6-3.1-50.5-1.1-9.4-11.5-13.5-16-14.8-1.2-.4-2.5.2-3.1,1.3-3.5,6.1-15,26.4-25.8,46-4.8,8.8-10.9,21.3-16.6,33.6ZM1447.4,829c-.4,3.4-1.3,21.1-.7,35.3-4.6,1-9.4,2.1-14.4,3.3,5.4-14.1,13.8-35.4,15.1-38.6Z"/>
    <path class="st1" d="M1474.5,941.1c-3.3.6-4.6,4.9-4,8.7.4,2.6,1.4,3.9,3.3,3.5,3.4-.6,4.6-5,4-8.7-.4-2.6-1.4-3.9-3.3-3.5Z"/>
  </g>
</svg>