<?xml version="1.0" encoding="UTF-8"?>
<svg xmlns="http://www.w3.org/2000/svg" version="1.1" viewBox="0 0 1080 1080">
  <!-- Generator: Adobe Illustrator 29.3.1, SVG Export Plug-In . SVG Version: 2.1.0 Build 151)  -->
  
  <g id="SHADOW">
    <path class="shadow-effect" style="display:none;" fill="#000000" fill-opacity="1" d="M648.6,54.3c-13.2.6-245.4-5.1-439,93.6-86.4,43.7-2.1,400.8,53.3,401.3,39.2-12.4,72.1-23.8,114.6-45.7-21.8,38.9-39,101.7-51.3,169.1-23.8,131.1-8.6,298.3,3.1,353.1,6.4,23.1,25.1,25.3,40.6,20.2,35.8-11.7,102.2-32.4,150.1-44.3,64.3-16.1,109.5-24.3,161.2-32,5.2-.8,8.6-6,7.4-11.1-39-155-29.5-299.8-14.6-425.5,15.2-128.2,93-480.1-25.3-478.7h0Z"/>
  </g>
  <g id="BASE">
    <path d="M759.4,28.1c-13.9.6-258.4-5.3-462.1,98.6-91,46-2.2,421.9,56.1,422.4,41.3-13.1,75.9-25.1,120.6-48.1-22.9,40.9-41.1,107-54,178-25,138-9,314,3.3,371.7,6.7,24.3,26.4,26.6,42.7,21.3,37.7-12.3,107.6-34.1,158-46.7,67.7-16.9,115.3-25.5,169.7-33.7,5.5-.8,9.1-6.3,7.8-11.7-41-163.2-31.1-315.6-15.4-447.9,16-135,97.9-505.3-26.6-503.9h0Z"/>
  </g>
</svg>