<?xml version="1.0" encoding="UTF-8"?>
<svg id="Layer_1" xmlns="http://www.w3.org/2000/svg" version="1.1" viewBox="0 0 1080 1080">
  <!-- Generator: Adobe Illustrator 29.3.1, SVG Export Plug-In . SVG Version: 2.1.0 Build 151)  -->
  <g id="Shadow_Effect">
    <path d="M695.5,774.1c-64.5-8.5-202.2.2-367.6,66.8v-2.6c85.2-68.2,238.3-131.8,333.5-204,4.9-3.7,9.1-7.2,12.7-10.7,65.5-51.7,124-135.6,120.9-264.5-4.4-184.4-131.6-315.9-293.3-316.7-138.4-.8-294.4,49.3-367.1,268.3-5.7,11-35.4,147.4-27.9,160.4,31.4,53.7,169.5,127.6,234.9,158.8-42.6,23.1-96.3,50.2-163.9,81.3-189.4,87.3-78.5,334.3-78.5,334.3,0,0,195-23,299.2-26.3,139-4.6,320,14.9,320,14.9l12.8-215.3c1.3-22.4-14.4-41.9-36-44.7h.3,0ZM426.7,496.3c37-50.5,73.9-28.1,77.7-8.5,3.6,18.6-10.3,40.8-35.3,64.1-15.5,11.4-41.8,29.2-83.1,53.2,9.5-36.1,24.7-86.8,40.8-108.8h-.1Z"  class="shadow-effect" style="display:none;" fill="#000000" fill-opacity="1"/>
  </g>
  <g id="BASE">
    <path d="M809.4,786.2c-67.9-8.9-212.8.2-386.9,70.3v-2.7c89.7-71.8,250.8-138.8,351.1-214.8,5.2-3.9,9.6-7.6,13.4-11.2,68.9-54.3,130.5-142.8,127.3-278.5-4.6-194.2-138.5-332.5-308.7-333.4-145.7-.8-309.9,51.9-386.4,282.5-6,11.6-37.3,155.2-29.4,168.9,33.1,56.6,178.4,134.4,247.3,167.1-44.8,24.3-101.4,52.9-172.5,85.6-199.4,92-82.6,352-82.6,352,0,0,205.3-24.2,315-27.8,146.3-4.8,336.8,15.7,336.8,15.7l13.5-226.7c1.4-23.5-15.2-44.1-37.9-47.1h0ZM526.5,493.9c38.9-53.2,77.8-29.5,81.8-8.9,3.8,19.6-10.8,43-37.2,67.5-16.3,12-44,30.8-87.5,56,10-37.9,26-91.5,42.9-114.5h0Z"/>
  </g>
</svg>