<?xml version="1.0" encoding="UTF-8"?>
<svg xmlns="http://www.w3.org/2000/svg" version="1.1" viewBox="0 0 1080 1080">
  <!-- Generator: Adobe Illustrator 29.3.1, SVG Export Plug-In . SVG Version: 2.1.0 Build 151)  -->
  <g id="SHADOW">
    <path class="shadow-effect" style="display:none;" fill="#000000" fill-opacity="1" d="M597.4,594.2c134.9-43.7,195.7-167.2,188.1-281.2-7.6-114-102.6-292.6-344.3-282-190.8,1.3-321.8,164.4-321.8,164.4,0,0-24.2,71.4,9.5,200.9,33.7,129.7,84.2,168.8,97.7,176.9,6.5,4,12.4,4.6,22.1-7.4,72.2-98.8,216.7-153,244.2-92.1,26.3,58.3-139.2,94.6-193.2,109.2-11.5,3.1-18.8,14.8-16.5,26.6l20.4,96s18.4-.3,47.9-3.5c34.5-1.2,77.1-1.6,108.9,8.7,79.4,26.3,102.2,68.5-4.6,77.4-123.6,10.4-179.9-51.9-219.4-85.5-7.3-6.2-56.7,32.5-102.6,92.5-49.4,64.6-52,103.9-52,103.9,0,0,97,102,275.2,132.8,204.3,35.7,433.2-35.7,424.7-247.4-5.7-141.6-184.3-190-184.3-190Z"/>
  </g>
  <g id="BASE">
    <path d="M706,597.3c142-46,206-176,198-296S796-6.7,541.6,4.4c-200.8,1.3-338.7,173.1-338.7,173.1,0,0-25.4,75.1,10,211.5,35.4,136.5,88.6,177.7,102.8,186.2,6.8,4.2,13,4.9,23.3-7.8,76-104,228.1-161.1,257-97,27.7,61.4-146.5,99.6-203.4,114.9-12.1,3.3-19.8,15.5-17.4,28l21.5,101s19.4-.3,50.5-3.7c36.4-1.3,81.2-1.7,114.6,9.2,83.6,27.7,107.6,72.1-4.8,81.5-130.1,10.9-189.3-54.7-231-90-7.7-6.5-59.7,34.2-108,97.3-52,68-54.8,109.4-54.8,109.4,0,0,102.1,107.4,289.7,139.8,215.1,37.5,456.1-37.6,447.1-260.5-6-149-194-200-194-200Z"/>
  </g>
</svg>