<?xml version="1.0" encoding="UTF-8"?>
<svg id="Layer_1" xmlns="http://www.w3.org/2000/svg" version="1.1" viewBox="0 0 1080 1080">
  
  <g id="SHADOW">
    <path class="shadow-effect" style="display:none;" fill="#000000" fill-opacity="1" d="M779,202s-60.1-28.3-157.4-12.6c-61.7,10-99,30.2-120,46.4,11.8-15.4,22.4-28.5,31-38.9,7.9-9.5,19.5-24.8,14.2-35.3-11.2-21.3-50.3-58.4-135.4-91.7-85.1-33.3-146.2-21.6-146.2-21.6,0,0-121.2,133.1-181.2,302-57.2,165.9-16.7,327.5-6.8,381.9h0c2.2,11.7,12.1,21.1,25.6,24.2,53.6,12,201.1,22.2,337.5-13.5-63.8,95.2-146.4,181.8-165.7,214-6.6,10.9-1.3,22.4,7.5,31.5,70.6,72.6,307.5,60.1,307.5,60.1,0,0,117.6-173.2,163.2-398.3,45.6-225,26.1-448.2,26.1-448.2h.1ZM401.8,400.6c23.6-52.8,51.8-98.2,77.5-134.5,5.7,33.9,30.1,188.8,20,290.1l-122.2,23.9s-23-72.6,24.7-179.5h0Z"/>
  </g>
  <g id="BASE">
    <path d="M898.4,183.8s-63.3-29.8-165.7-13.2c-64.9,10.5-104.2,31.8-126.3,48.8,12.4-16.2,23.6-30,32.6-40.9,8.3-10,20.5-26.1,14.9-37.1-11.8-22.4-53-61.5-142.6-96.5s-154.9-22.8-154.9-22.8c0,0-127.5,140.1-190.7,317.9-60.2,174.7-17.6,344.8-7.2,402h0c2.3,12.3,12.7,22.2,27,25.4,56.4,12.6,211.7,23.4,355.3-14.2-67.2,100.2-154.1,191.4-174.4,225.3-6.9,11.5-1.4,23.6,7.9,33.1,74.3,76.4,324.8,63.3,324.8,63.3,0,0,123.8-182.3,171.8-419.2,48-236.9,27.5-471.8,27.5-471.8h0ZM501.5,392.9c24.8-55.6,54.5-103.3,81.6-141.6,6,35.6,31.7,198.8,21.1,305.3l-128.7,25.2s-24.2-76.4,26-188.9h0Z"/>
  </g>
</svg>