<?xml version="1.0" encoding="UTF-8"?>
<svg id="Layer_1" xmlns="http://www.w3.org/2000/svg" version="1.1" viewBox="0 0 1080 1080">
  <!-- Generator: Adobe Illustrator 29.3.1, SVG Export Plug-In . SVG Version: 2.1.0 Build 151)  -->

  <g id="Shadow_Effect" class="Shadow_Effect">
    <path d="M794.2,799.4c-19.4-169.5-221-231.9-406.1-215.4l-12.9-62.3s88-12.5,155.4-8.6c88.6,5,150.1,17.6,181.1,25.3,12.9,3.2,25.8-5,28.3-18.1,7.6-40.6,21.2-125.7,19.7-211.4-2.2-127.3-33-212.3-33-212.3,0,0-120.9-48.6-299.4-41.6-178.5,6.9-279.4,46.8-279.4,46.8,0,0-57.3,152.8-17.7,382.9,19.7,114.5,81.1,202.5,111.3,244.7,2,2.8,5.7,3.9,10.4,3.9v.2c.8,0,1.5-.2,2.3-.4,1.4,0,2.9-.4,4.6-.7,87.3-12,197.8,5.8,242.7,16.6,79.1,19.1,90.1,60.1-13.2,61.9-120.8,2-237.5-54.7-278.3-82.8-7.6-5.2-17.8-1.2-20.2,7.9l-45.3,213.8s153.8,92.1,330.1,99.5c247.2,10.4,330.6-154.9,319.7-249.9h0Z" class="shadow-effect" style="display:none;" fill="#000000" fill-opacity="1"/>
  </g>
  <g id="BASE">
    <path d="M912,812.4c-20.4-178.4-232.6-244.1-427.5-226.7l-13.6-65.6s92.6-13.2,163.6-9.1c93.3,5.3,158,18.5,190.6,26.6,13.6,3.4,27.2-5.3,29.8-19.1,8-42.7,22.3-132.3,20.7-222.5-2.3-134-34.7-223.5-34.7-223.5,0,0-127.3-51.2-315.2-43.8-187.9,7.3-294.1,49.3-294.1,49.3,0,0-60.3,160.8-18.6,403.1,20.7,120.5,85.4,213.2,117.2,257.6,2.1,2.9,6,4.1,10.9,4.1v.2c.8,0,1.6-.2,2.4-.4,1.5,0,3.1-.4,4.8-.7,91.9-12.6,208.2,6.1,255.5,17.5,83.3,20.1,94.8,63.3-13.9,65.2-127.2,2.1-250-57.6-292.9-87.2-8-5.5-18.7-1.3-21.3,8.3l-47.7,225s161.9,96.9,347.5,104.7c260.2,11,348-163.1,336.5-263.1h0Z" />
  </g>
</svg>
