<?xml version="1.0" encoding="UTF-8"?>
<svg id="Layer_1" xmlns="http://www.w3.org/2000/svg" version="1.1" viewBox="0 0 1080 1080">
  <!-- Generator: Adobe Illustrator 29.3.1, SVG Export Plug-In . SVG Version: 2.1.0 Build 151)  -->

  <g id="BASE">
    <path d="M903.9,765.8c-6.7-176-153.3-277.8-315.2-239.2-141.3,33.7-191.2,146.2-191.2,146.2,0,0-1.8-121.2,62.3-180.3,110.1-101.5,257.4-40.9,308.2-16,9.9,4.9,21.8-.7,24.6-11.6l85.5-333c4.7-16.5-3.7-34-19.4-40.3-91.3-36.5-382.9-135.3-572.7,72.3-215.9,236.1-177.6,704,83.6,854.9,236.4,136.5,543.7-5.1,534.3-253h0ZM618.1,829.5c-56,29.2-114.3,18.3-141.5-20.2,8.9-48,81.2-127.6,154.7-96.3,59.2,25.2,34.8,91.4-13.2,116.5Z"/>
  </g>
  <g id="Shadow_Effect" class="Shadow_Effect">
    <path d="M785,755.2c-6.4-167.2-145.6-263.9-299.4-227.2-134.2,32-181.6,138.9-181.6,138.9,0,0-1.7-115.1,59.2-171.3,104.6-96.4,244.5-38.9,292.8-15.2,9.4,4.7,20.7-.7,23.4-11l81.2-316.3c4.5-15.7-3.5-32.3-18.4-38.3C655.3,80,378.3-13.8,198,183.4-7.2,407.7,29.2,852.2,277.4,995.6c224.6,129.7,516.5-4.8,507.6-240.4h0ZM513.4,815.7c-53.2,27.7-108.6,17.4-134.4-19.2,8.5-45.6,77.1-121.2,147-91.5,56.2,23.9,33.1,86.8-12.5,110.7h0Z" class="shadow-effect" style="display:none;" fill="#000000" fill-opacity="1" />
  </g>
</svg>



