<?xml version="1.0" encoding="UTF-8"?>
<svg id="Layer_1" xmlns="http://www.w3.org/2000/svg" version="1.1" viewBox="0 0 1080 1080">
  <!-- Generator: Adobe Illustrator 29.3.1, SVG Export Plug-In . SVG Version: 2.1.0 Build 151)  -->

  <g id="Shadow_Effect" class="Shadow_Effect">
    <path d="M167.1,557.6c-11.5,1.6-25.4,2-33.3-31.5-8.8-37-20.4-154.3-26.7-244.8-6.7-97.5,3.1-167.6,7.5-192.4,1-5.9,5.6-10.4,11.3-11,36.2-4.2,156.8-15.9,292.1-8.5,190.8,10.5,257.2,37,279,46.7,21.8,9.8,10.3,7.8,12.1,14,12.1,42.2,58.7,230.4,1.8,459.8-54.2,219.1-198.3,456.1-198.3,456.1,0,0-242.2-13.4-304.4-63.7-62.2-50.4-26.3-83.8,40.7-157.6,75.2-82.8,207.4-198.7,225.3-275.3-21-6.7-86.7-11.3-146.4-9-53.3,2-123.5,12.2-160.6,17.3h0Z" class="shadow-effect" style="display:none;" fill="#000000" fill-opacity="1"/>
  </g>
  <g id="BASE">
    <path d="M253.7,557.7c-12.1,1.7-26.7,2.1-35.1-33.2-9.3-39-21.5-162.4-28.1-257.7-7.1-102.6,3.3-176.4,7.9-202.5,1.1-6.2,5.9-10.9,11.9-11.6,38.1-4.4,165-16.7,307.5-8.9,200.8,11.1,270.7,38.9,293.7,49.2s10.8,8.2,12.7,14.7c12.7,44.4,61.8,242.5,1.9,484-57.1,230.6-208.7,480.1-208.7,480.1,0,0-254.9-14.1-320.4-67.1s-27.7-88.2,42.8-165.9c79.2-87.2,218.3-209.2,237.2-289.8-22.1-7.1-91.3-11.9-154.1-9.5-56.1,2.1-130,12.8-169.1,18.2h0Z" />
  </g>
</svg>
