<?xml version="1.0" encoding="UTF-8"?>
<svg id="Layer_1" xmlns="http://www.w3.org/2000/svg" version="1.1" viewBox="0 0 1080 1080">
  <!-- Generator: Adobe Illustrator 29.3.1, SVG Export Plug-In . SVG Version: 2.1.0 Build 151)  -->

  <g id="Shadow_Effect" class="Shadow_Effect">
    <path d="M809.5,739c-6.2-110.2-103.8-194.9-237.6-221.3,109.2-53.6,181.3-148.2,175.7-247.9-7.9-140.1-165.8-237.3-352.8-217.1C207.8,73.1,62.6,203.2,70.4,343.4c5.7,101.8,90.6,181,208.4,208.9-123.5,55.2-205.8,156.8-199.8,263.9,8.2,146.6,178.4,248.2,380.1,227,201.8-21.3,358.6-157.4,350.5-304h0v-.2ZM408.2,426.8c38.1-5,69.9,6.7,71,26.2,1,19.5-28.9,39.3-67,44.4s-69.9-6.7-71-26.2,28.9-39.3,67-44.4ZM429.6,675.3c-55.5,8-101.8-10.4-103.6-41.1-1.7-30.7,41.9-61.9,97.4-69.9s101.8,10.4,103.6,41.1c1.7,30.7-41.9,61.9-97.4,69.9Z" class="shadow-effect" style="display:none;" fill="#000000" fill-opacity="1"/>
  </g>
  <g id="BASE">
    <path d="M929,749.1c-6.5-116-109.3-205.2-250.1-232.9,115-56.4,190.8-156,184.9-260.9C855.5,107.8,689.3,5.5,492.4,26.8c-196.8,21.3-349.7,158.2-341.5,305.8,6,107.2,95.4,190.5,219.4,219.9-130,58.1-216.6,165-210.3,277.8,8.6,154.3,187.8,261.3,400.1,238.9,212.4-22.4,377.5-165.7,368.9-320h0ZM506.5,420.4c40.1-5.3,73.6,7.1,74.7,27.6s-30.4,41.4-70.5,46.7-73.6-7.1-74.7-27.6c-1.2-20.5,30.4-41.4,70.5-46.7ZM529.1,682c-58.4,8.4-107.2-11-109-43.3s44.1-65.2,102.5-73.6c58.4-8.4,107.2,11,109,43.3s-44.1,65.2-102.5,73.6Z" />
  </g>
</svg>
