<?xml version="1.0" encoding="UTF-8"?>
<svg id="Layer_1" xmlns="http://www.w3.org/2000/svg" version="1.1" viewBox="0 0 1080 1080">
  <!-- Generator: Adobe Illustrator 29.3.1, SVG Export Plug-In . SVG Version: 2.1.0 Build 151)  -->
  <defs>
    <style>
      .st0 {
        display: none;
      }
    </style>
  </defs>
  <g id="SHADOW">
    <path class="shadow-effect" style="display:none;" fill="#000000" fill-opacity="1" d="M775.9,367.3c-.8-302.8-215.1-366.3-400.3-299.2-81.8,29.6-203.5,115-264.2,256h0c-150.3,348.6,183.4,398.3,344.5,358.4-98.2,125.6-292.8,232.7-289,282.1,7.6,38,88.2,84.9,304.6,84.9,15.2-11.6,45.4-41.3,80.9-85.1,46.2-51.2,103.9-130,153.8-242.7,66-149,73-279.9,69.7-354.5h0ZM417.2,492.5c20.3-48.3,92.1-78.5,126.9-68.6,34.9,9.9,53.4,66.2,5,103.8h0c-48.3,37.6-155.9,21.5-132.1-35.2h.2Z"/>
  </g>
  <g id="BASE">
    <path d="M894.3,357.9c-.8-318.8-226.5-385.6-421.3-315-86.1,31.2-214.2,121.1-278.1,269.5h0c-158.2,366.9,194.6,419.5,364.2,377.5-103.4,132.2-309.8,244.8-305.8,296.8,8,40,92.9,89.3,320.7,89.3,16-12.2,47.8-43.5,85.1-89.6,48.6-53.9,109.4-136.8,161.9-255.4,69.4-156.8,76.9-294.7,73.3-373.1ZM475.7,489.6c21.4-50.8,97-82.6,133.6-72.2,36.7,10.4,56.2,69.7,5.3,109.3h0c-50.8,39.6-164.1,22.6-139-37.1h0Z"/>
  </g>
</svg>