<?xml version="1.0" encoding="UTF-8"?>
<svg id="o" xmlns="http://www.w3.org/2000/svg" version="1.1" viewBox="0 0 1080 1080">
  <!-- Generator: Adobe Illustrator 29.3.0, SVG Export Plug-In . SVG Version: 2.1.0 Build 146)  -->
  <path d="M907.2,875.6c-14.3-44-59-99-107-227s-74-249-73-369c.8-92,18-194-16-216s-126-51-282-19-232.8,101.7-232.8,101.7c0,0-6.2,262.3,3.8,275.3s176-61,176-61c0,0-122,208-164,385-40.5,170.5-10,268-10,268,0,0,24,40,105,44,56.3,2.8,98.6-5.1,119.2-10.1,8.1-2,13.8-9.2,14-17.5.4-24.1,1.9-77.8,7-140.4,35.1-10.8,111.8-33,172.3-41,30.3,94.9,68.8,164,84,189.4,4,6.7,11.4,10.6,19.2,10.1,29.4-1.7,103.1-9.3,143.4-41.5,55-44,55-88,41-131h-.1ZM480.2,676.6c39-142,69-194,69-194,0,0,15.5,111.7,33.9,211.4-40.1,8-85.2,24.1-118.8,55.7,4.4-25.6,9.7-50.4,15.9-73.1h0Z"/>
</svg>