<?xml version="1.0" encoding="UTF-8"?>
<svg xmlns="http://www.w3.org/2000/svg" version="1.1" viewBox="0 0 1080 1080">
  
  <g id="Shadow_Effect" class="Shadow_Effect">
    <path class="shadow-effect" style="display:none;" fill="#000000" fill-opacity="1" d="M779.2,874.1h0C707.2,707.2,454.1-168.4,206.8,118.8,2.3,411.7,40.2,923.1,122.6,1034.3c0,0,53.7,1.6,145.3-4.1,44.7-2.9,73.2-12.1,89.6-20h-.2c11.1-5.2,16-18.1,11.4-29.4-5.3-12.8-15.2-52.6-20.5-76.6l126.8-19c23.8,72.3,44.1,132.2,44.1,132.2,32.1,18.4,301-17.6,260.1-143.4ZM330,721.7c0-6.3,0-12.6.3-19.1h0c1.3-48,10.6-100.5,22.9-150,20.8,42.7,44.7,95.8,61.6,145.7-25.7,5.1-58.2,12.8-84.8,23.4Z"/>
  </g>
  <g id="Layer_1">
    <path d="M920.9,891.3h0c-18.9-57.1-55.8-162.6-108.9-288.1-83.8-202.9-189.1-459.2-298.7-534.9-77.2-57.9-145.2-37.6-195,27.9-29.6,39-56.1,98.1-76.2,151.1-21.2,51.2-41.8,116.4-59.9,200.9-80.7,378.5,47.4,611.7,47.4,611.7,0,0,56.5,1.7,153-4.3,47.1-3,77-12.7,94.3-21h-.2c11.7-5.5,16.8-19.1,12-30.9-5.6-13.5-16-55.4-21.6-80.7l133.5-20c25.1,76.1,46.4,139.2,46.4,139.2-4.6,3.9,102.2,11,176.7-21,30.7-13.2,54.6-29.1,72.3-43.5,25.3-20.6,35.1-55.1,24.8-86.4ZM448,730.9c0-6.6,0-13.3.3-20.1h.1c1.4-50.5,11.2-105.8,24.1-157.9,21.9,44.9,47,100.8,64.8,153.4-27,5.4-61.3,13.5-89.3,24.6Z"/>
  </g>
  <g id="Shine_Effect">
    <g id="Shine_Effect1" data-name="Shine_Effect">
      <path class="shine-effect" style="display:none;" fill="#ffffff" fill-opacity="1"  d="M269,217.5S334.1,47.3,426.1,52c52.6,2.7,152.5,33.1,308.6,401C576.6,160.8,482.2,110.3,427.5,110c-79.3-.3-158.4,107.5-158.4,107.5h0Z"/>
    </g>
  </g>
</svg>

