<?xml version="1.0" encoding="UTF-8"?>
<svg id="Layer_2" xmlns="http://www.w3.org/2000/svg" version="1.1" viewBox="0 0 1080 1080">
  <!-- Generator: Adobe Illustrator 29.3.0, SVG Export Plug-In . SVG Version: 2.1.0 Build 146)  -->
  <path d="M105.7,489.3c9.1,21.8,33.8,32.4,55.9,24.3,62.2-22.8,188.4-64.1,275.8-60.2,120,5.3,165.3,21.3,165.3,46.7s-44,40-94.7,54.7c-50.7,14.7-73.3,17.3-73.3,17.3l17.3,77.3s242.7,4,248,69.3-254.7,69.3-254.7,69.3l-17.3,242.7s236,26.7,401.3-49.3,216-193.3,129.3-297.3-265.3-124-265.3-124c0,0,280-125.3,258.7-278.7-24.4-175.6-225.3-229.3-445.3-228S78.7,136,78.7,136c0,0-45,181,27,353.3Z"/>
  <path d="M489.3,421.3s-22.7,236,82.7,390.7,21.3,201.3-33.3,212-133.3,9.3-133.3,9.3c0,0-170.7-252-76-606.7,94.7-354.7,160-5.3,160-5.3Z"/>
</svg>