<?xml version="1.0" encoding="UTF-8"?>
<svg xmlns="http://www.w3.org/2000/svg" version="1.1" viewBox="0 0 1080 1080">
  <!-- Generator: Adobe Illustrator 29.3.1, SVG Export Plug-In . SVG Version: 2.1.0 Build 151)  -->
  <g id="Shadow_Effect" class="Shadow_Effect">
    <path d="M764.7,697.6h0c-82.9-102.8-228-124.6-228-124.6,516.1-188.8-18.2-637.9-420.1-476.5-85.8,234,15,815.8,162.4,943.4,85.8,27.1,689.8-52.4,485.6-342.2h0ZM335.5,564.8c-3.2-44.5-1.9-81.5-.6-102.4h0c103.5.7,124,23,124.4,44.6.7,25.4-77.6,44.5-123.9,57.9h0ZM395.8,783.3c-22.4-39.4-37-82.4-46.4-124.1,160.3,7.5,269.7,98.8,46.4,124.1Z" class="shadow-effect" style="display:none;" fill="#000000" fill-opacity="1"/>
  </g>
  <g id="BASE">
    <path d="M881.5,705.2h0c-87.3-108.2-240-131.2-240-131.2,0,0,223-57.9,219.1-216.5-4.8-196.7-218.7-306.1-435.8-316.7-135.6-6.7-225.5,31.6-225.5,31.6,0,0-.4,2.1-1,6-8.3,23.8-44.9,146.8-24.4,409.6,27,343.8,146.3,514.4,183.1,559.5,8.2,11.8,13.2,17.9,13.2,17.9h.4s226.8,16.8,388.5-58c161.9-74.7,209.6-193.9,122.3-302.2h0ZM429.7,565.4c-3.4-46.8-2-85.8-.6-107.8h0c109,.7,130.5,24.2,131,46.9.5,26-76,45.3-125.7,59.6-1.6.4-3.2.9-4.7,1.3h0ZM493.1,795.4c-23.6-41.5-38.9-86.7-48.8-130.6,71.4,7.6,178.4,26.4,182.6,71,3.3,35.5-66.8,52-133.8,59.6h0Z"/>
  </g>
</svg>