<?xml version="1.0" encoding="UTF-8"?>
<svg id="Layer_2" xmlns="http://www.w3.org/2000/svg" version="1.1" viewBox="0 0 1080 1080">
  <!-- Generator: Adobe Illustrator 29.3.0, SVG Export Plug-In . SVG Version: 2.1.0 Build 146)  -->
  <path d="M821.9,655.7c-7.9-4.9-22.9,4.1-29.1,11.3-45.5,51.8-125.3,156.9-198.6,148-65.1-7.9-97-117.2-84.1-209,13.2-94,79.3-137,89-123,16.9,24.4-28.8,193.4-36.7,265.3-1.1,10.6,7.8,19,16.7,15.7l233.6-112c8.7-3.4,16.2-10.3,20.7-19.4,17.9-35.4,66.6-148.4,61.8-306.6C888.9,125,743.1-2,537.6,62c-176.5,55-256,263-270.1,494s77.7,471,317.8,473c199.2,1.7,362-170.8,368.3-214.5,1.2-8.5-.7-17.2-5.3-24.1-10.7-15.9-32.9-47.6-60.6-77.6-28.3-30.8-51.6-48.1-65.9-57.1h0Z"/>
  <path d="M353,617l-229,97S35,419,218,181C372.3-19.7,734-16,815,132S279,461,279,461l74,156Z"/>
</svg>