<?xml version="1.0" encoding="UTF-8"?>
<svg id="Layer_2" xmlns="http://www.w3.org/2000/svg" version="1.1" viewBox="0 0 1080 1080">
  <!-- Generator: Adobe Illustrator 29.3.0, SVG Export Plug-In . SVG Version: 2.1.0 Build 146)  -->
  <path d="M884.6,449.1c-8.2-5.2-23.8,4.3-30.2,11.9-47.3,54.5-266.1,390.5-490.4,310.6-61-27.6-95-92.6-85-160.6,15.3-83.4,62.3-138.9,72.4-124.2,17.6,25.7-29.9,152.2-38.1,227.8-1.1,11.1,8.1,20,17.3,16.5l232.4-56.1c9-3.6,16.8-10.8,21.5-20.4,18.6-37.2,79.6-166.6,74.5-333-6.4-211.4-175.7-355.5-371.3-277.7C92,121.9,7.2,320.3,7,563.6c-.2,284,207.5,476.6,427.7,505.4,369.8,48.4,635.3-341.7,641.9-387.6,1.2-8.9-.7-18.1-5.5-25.3-11.1-16.7-124.8-182.4-186.5-206.9h0Z"/>
  <path d="M562.4,426.8l181.8-51.5c11.7-3.4,22.7,7.3,20.2,19.2l-43.1,197.4c-7.7,35.1-35.2,62.4-70.1,69.4l-300.6,60.1,211.9-294.5h-.1Z"/>
</svg>