<?xml version="1.0" encoding="UTF-8"?>
<svg xmlns="http://www.w3.org/2000/svg" version="1.1" viewBox="0 0 1080 1080">
  <!-- Generator: Adobe Illustrator 29.3.1, SVG Export Plug-In . SVG Version: 2.1.0 Build 151)  -->
  <g id="Shadow_Effect" class="Shadow_Effect">
    <path d="M585.3,738.5c-38.9,36.1-75.9,70.3-111.1,75.1-35.2,4.8-87.4-31.3-105.5-102.6-10-39.2-8.3-98,6.6-130.2,19-40.7,50.5-46.3,66.1-18.9,27.9,48.6,17.2,121.6,21.9,192.3.8,10.5,10.7,16.9,18.6,12.1l199.9-108.6c7.8-4.8,13.9-12.8,16.4-22.3,11.1-37.4,47-159.3-1-335.7C645.1,73.7,413.3,11.6,247.2,111.6,132.2,181,15.4,407.9,68.6,687.3c53.2,279.4,266,378.8,442.7,364.3s317.9-137,316.4-180c-.7-27.5-55.1-89.3-92.1-114-37.1-24.7-110.1-64-132.1-37.4l-18,18.3h0Z" class="shadow-effect" style="display:none;" fill="#000000" fill-opacity="1"/>
  </g>
  <g id="BASE">
    <path d="M711.1,749.2c-40.9,38-79.9,74-116.9,79.1s-92-32.9-111-108c-10.5-41.3-8.7-103.2,7-137,20-42.8,53.2-48.7,69.6-19.9,29.4,51.2,18.1,128,23.1,202.4.8,11,11.3,17.8,19.6,12.7l210.4-114.3c8.2-5,14.6-13.5,17.3-23.5,11.7-39.4,49.5-167.7-1-353.4C774,49.5,530-15.9,355.2,89.3c-121.1,73.1-244,311.9-188,606,56,294.1,280,398.7,466,383.5s334.6-144.2,333-189.5c-.7-29-58-94-97-120s-115.9-67.4-139-39.4l-19,19.3h0Z"/>
  </g>
</svg>