<?xml version="1.0" encoding="UTF-8"?>
<svg id="Layer_2" xmlns="http://www.w3.org/2000/svg" version="1.1" viewBox="0 0 1080 1080">
  <!-- Generator: Adobe Illustrator 29.3.0, SVG Export Plug-In . SVG Version: 2.1.0 Build 146)  -->
  <path d="M398.2,1071.9s-98.9-294.8-97.1-543.8,4.5-299.1,4.5-299.1l279.6-44.6s-51.7,283.8-58.1,414.4c-6.4,130.6,10.9,270.8,10.9,270.8,0,0,191.5-44.3,189.1-154.5,2.5-75.3-87.3-147.9-264-147.9s-336.5,89.5-336.5,89.5c0,0-96-57.7-99.6-276.8-3.3-195.2,49.6-284.2,138.4-309.3,82.3-23.2,318.4-61.5,531.6,17.3,243,81,404.8,313.6,330,609.6-104.1,411.9-641.1,374.2-641.1,374.2h12.3Z"/>
</svg>