<?xml version="1.0" encoding="UTF-8"?>
<svg id="Layer_1" xmlns="http://www.w3.org/2000/svg" version="1.1" viewBox="0 0 1080 1080">
  <!-- Generator: Adobe Illustrator 29.3.1, SVG Export Plug-In . SVG Version: 2.1.0 Build 151)  -->
  <g id="Shadow_Effect" class="Shadow_Effect">
    <path d="M456.6,79.4c-203.2-35.4-295.9.4-295.9.4,0,0-41.4,151.1-28.7,434.4,12.7,283.4,114.7,522.2,114.7,522.2,0,0,220.5-12,382.8-113.9,105.8-66.4,193.2-157.2,196.2-357.3,3.9-261.3-168.4-450.9-369.1-485.8h0ZM420.5,770.5s-19.9-21.7-32.3-117.8c-9.5-74.1,1.9-114,1.9-114,0,0,147.1,6,160.1,110.1,11.4,91.2-129.7,121.7-129.7,121.7Z" class="shadow-effect" style="display:none;" fill="#000000" fill-opacity="1"/>
  </g>
  <g id="BASE">
    <path d="M555.5,54.6c-213.9-37.3-311.5.4-311.5.4,0,0-43.6,159-30.2,457.3,13.4,298.3,120.7,549.7,120.7,549.7,0,0,232.1-12.6,403-119.9,111.4-69.9,203.4-165.5,206.5-376.1,4.1-275.1-177.3-474.6-388.5-511.4ZM517.5,782.1s-21-22.8-34-124c-10-78,2-120,2-120,0,0,154.8,6.3,168.5,115.9,12,96-136.5,128.1-136.5,128.1Z"/>
  </g>
</svg>