<?xml version="1.0" encoding="UTF-8"?>
<svg id="Layer_1" xmlns="http://www.w3.org/2000/svg" version="1.1" viewBox="0 0 1080 1080">
  <!-- Generator: Adobe Illustrator 29.3.1, SVG Export Plug-In . SVG Version: 2.1.0 Build 151)  -->
  <g id="Shadow_Effect" class="Shadow_Effect">
      <path d="M840.2,905.9h0l-71.8-188.4s-10.8-43.9-59.6-20.5-168.3,68.8-239.6,89.2c-15.4,4.4-34.3,8.1-54.8,11.2-9.3-22.6-18.3-45.4-26.6-67.6,62.7,4.9,180.1-20.8,212.1-42.4,6-1.8,7.3-8.6,8.5-15.6,5.5-33.4-23.7-173.4-64.6-166.6-77.9,12.8-160.3,20.9-199.1,24.3-.2-23.2.9-46.1,2.8-67.8,6.1-1,12-1.8,17.8-2.5,108.1-12.5,260.9,7.8,322.3,14.1,15.1,1.5,27.6-8.6,29-23.6,2.8-29.4,3.8-84.6-10.1-171.5-12.4-78.2-38-149-46.6-169.5-2.5-5.9-7.5-10.4-13.4-12.4-33.8-10.6-139.9-36-298.7-26.8-173.7,10.1-231.8,63.3-231.8,63.3,0,0-1.3,4.8-2.9,13.8-9.4,26.8-18.3,114.5-4.9,362.8,8.1,149.2,38.3,269.7,67.3,354.3,23.7,78.6,52.6,135.1,68.9,163.2,7.1,12.3,21,19.1,35.1,17.2l4.1-.6c31.3,0,110.5-2.6,241.3-21.1,141.7-20.1,266.9-75.3,308.1-94.9,7.9-3.8,11.2-13.6,7.4-21.7h-.2Z" class="shadow-effect" style="display:none;" fill="#000000" fill-opacity="1"/>
      <polygon points="739.4 484.6 739.3 484.7 739.1 484.7 739.4 484.8 739.4 484.6"/>
  </g>
  <g id="BASE">
    <path d="M959.6,924.3h0l-75.6-198.3s-11.4-46.2-62.7-21.6-177.2,72.4-252.2,93.9c-16.2,4.6-36.1,8.5-57.7,11.8-9.8-23.8-19.3-47.8-28-71.2,66,5.2,189.6-21.9,223.3-44.6,6.3-1.9,7.7-9.1,8.9-16.4,5.8-35.2-24.9-182.5-68-175.4-82,13.5-168.7,22-209.6,25.6-.2-24.4,1-48.5,3-71.4,6.4-1,12.6-1.9,18.7-2.6,113.8-13.2,274.6,8.2,339.3,14.8,15.9,1.6,29.1-9.1,30.5-24.8,2.9-31,4-89.1-10.6-180.5-13.1-82.3-40-156.8-49.1-178.4-2.6-6.2-7.9-11-14.1-13-35.6-11.2-147.3-37.9-314.4-28.2-182.8,10.6-244,66.6-244,66.6,0,0-1.4,5-3.1,14.5-9.9,28.2-19.3,120.5-5.2,381.9,8.5,157.1,40.3,283.9,70.8,372.9,24.9,82.7,55.4,142.2,72.5,171.8,7.5,12.9,22.1,20.1,36.9,18.1l4.3-.6c32.9,0,116.3-2.7,254-22.2,149.2-21.2,280.9-79.3,324.3-99.9,8.3-4,11.8-14.3,7.8-22.8h0Z"/>
  </g>
</svg>