<?xml version="1.0" encoding="UTF-8"?>
<svg xmlns="http://www.w3.org/2000/svg" version="1.1" viewBox="0 0 1080 1080">
  <!-- Generator: Adobe Illustrator 29.3.1, SVG Export Plug-In . SVG Version: 2.1.0 Build 151)  -->
  <g id="Shadow_Effect" class="Shadow_Effect">
    <path d="M684.1,293c-2.9-34.3-7.4-64.5-12.6-90.4-.5-2.4-.9-4.7-1.4-6.9-.3-1.1-.5-2.3-.8-3.4-4.2-19.1-8.8-35.6-13.4-49.4-.3-.9-.6-1.6-.9-2.4-5.7-16.6-11.4-29.1-16.4-37-2.7-6.7-13.9-13.7-20.3-15.9-8.1-2.7-19-5.3-32.9-7.9-.9-.2-2-.4-3-.6-6.2-1-12.8-2.2-20-3.1-1.2-.2-2.5-.3-3.7-.5-4.9-.7-10.2-1.2-15.7-1.9-16.4-1.8-35.2-3.2-56.4-4.2-7.1-.3-14.4-.6-22-.9-1.9,0-3.8,0-5.8-.2-11.7-.3-23.9-.4-36.9-.4h-6.6c-30.7.2-65,1.2-103,3.5-23.8,1.4-45.6,3.3-65.6,5.7-2.5.3-4.9.6-7.4.9-9.8,1.2-19,2.6-27.8,3.9-13.3,2.1-25.6,4.3-36.9,6.6-3.8.8-7.4,1.5-11,2.4-5.3,1.2-10.4,2.4-15.3,3.6s-9.5,2.5-14,3.7c-20.7,5.7-36.7,11.5-48.5,16.4-1.7.7-3.3,1.4-4.8,2.1-16,7-22.8,12-22.8,12h0v.2h0v.4c0,0,0,.3,0,.4v.8c0,.2,0,.4-.2.6v.3c0,.2,0,.5-.2.7v.2c0,.3,0,.5-.2.8v.3c0,.3-.2.7-.2,1v.2c0,.4-.2.8-.3,1.1h0c-2.2,10.6-6,32.5-7.7,63.9-4.8,52.8-14.2,195.7,4.7,369.7v.2c.3,2.7.6,5.2.9,7.9,0,.4,0,.9,0,1.2.3,2.6.6,5.2.9,7.9,1.9,16.2,4.1,32.2,6.4,48,.9,5.9,1.7,11.8,2.7,17.6s1.8,11.6,2.8,17.4c.9,5.7,1.9,11.5,2.9,17.1.9,5.7,2,11.3,3,16.8.7,3.7,1.4,7.4,2.1,11.1,1.7,9.2,3.5,18.2,5.4,27.2,37.1,180.4,89.1,305.5,89.1,305.5,0,0,22.5,1.8,55,1.8s11.1,0,17-.2h2.9c12-.3,24.7-.9,37.8-1.8,1.1,0,2.2-.2,3.3-.3,2.2-.2,4.4-.4,6.6-.6,1.1,0,2.2-.2,3.3-.3,8.8-.9,17.9-1.9,26.8-3.1,3.3-.5,6.6-.9,10-1.5s6.7-1.1,10-1.7c1.1-.2,2.2-.4,3.3-.7,2.2-.5,4.4-.9,6.6-1.3,1-.2,2.2-.5,3.2-.8,3.2-.8,6.4-1.5,9.6-2.3s6.3-1.7,9.3-2.6c2.1-.6,4.1-1.2,6.1-1.9,4-1.2,7.9-2.7,11.7-4.1,1.9-.8,3.8-1.4,5.6-2.3.9-.4,1.8-.8,2.8-1.1,1.8-.8,3.6-1.6,5.3-2.5,5.2-2.5,10.3-5.2,14.9-8.2s3-2,4.6-3c.8-.5,1.4-1,2.2-1.6,1.4-1,2.9-2.2,4.2-3.2,15.4-12.8,24.9-29.1,25.4-49.9v-3.4c0-.9,0-2-.2-3v-.4c0-1-.2-2.1-.4-3.1v-.4c-.2-1-.4-2.2-.6-3.2v-.5c-.2-1.1-.5-2.3-.7-3.4,0-.2,0-.3,0-.5-.3-1.1-.6-2.3-.9-3.5,0-.2,0-.4-.2-.6-.3-1.2-.7-2.4-1-3.6,0-.2,0-.4-.2-.7-.4-1.2-.8-2.5-1.1-3.7,0-.2-.2-.5-.2-.7-.4-1.2-.8-2.5-1.2-3.8,0-.3-.2-.6-.3-.9-.4-1.2-.9-2.6-1.3-3.8,0-.3-.2-.7-.4-.9-.5-1.2-1-2.6-1.4-3.9,0-.4-.3-.8-.4-1.1-.5-1.2-1-2.6-1.4-3.9-.2-.4-.3-.9-.5-1.2-.5-1.2-1-2.6-1.5-3.8-.2-.5-.4-1-.6-1.4-.5-1.2-1-2.6-1.5-3.8-.2-.6-.5-1-.7-1.6-.5-1.2-1-2.5-1.5-3.8-.3-.6-.5-1.2-.8-1.8-.5-1.2-1-2.5-1.6-3.7-.3-.7-.6-1.3-.9-1.9-.6-1.2-1-2.5-1.6-3.8-.3-.7-.6-1.3-.9-2-.6-1.2-1.1-2.6-1.7-3.8-.3-.7-.6-1.3-.9-2.1-.6-1.3-1.2-2.7-1.8-4-.3-.7-.6-1.2-.9-1.9-.7-1.4-1.3-2.9-2-4.5-.2-.5-.5-1-.7-1.4-.8-1.8-1.6-3.5-2.5-5.3,0-.2-.2-.3-.2-.5-10-21.7-21.3-45.4-33.1-70.8,92.5-10.9,172.1-16.2,174.6-16.4h0s4.5-36.3,4.5-78.8-7.3-121.6-41.9-130.3c-.5,0-1-.2-1.4-.3-.9-.2-1.8-.4-2.8-.5-.2,0-.5,0-.7,0-.8,0-1.5-.3-2.4-.4h-.6c-2.1-.3-4.2-.5-6.5-.7h0c-37.9-3.2-96.6,6.7-148.8,18.2h0c-1,.3-2.2.5-3.2.8-17,3.8-33.2,7.7-47.6,11.4v-.2c-7.3-26.4-13-53.1-16.6-79.6h0c0-.6,0-1.1-.2-1.6,12.2-2.3,24.1-4.2,35.5-5.6h0c55.5-6.7,110.7-9.1,160.5-9.1s106.2,3.1,141.9,6.8c1,0,2,.2,3,.2,14.4,0,21.3-10.6,28.7-26.8,11-33.3,27-76,18.5-175.8l-.9-.2Z" class="shadow-effect" style="display:none;" fill="#000000" fill-opacity="1"/>
  </g>
  <g id="BASE">
    <path d="M800.9,279c-3.1-36.1-7.8-67.9-13.3-95.2-.5-2.5-1-4.9-1.5-7.3-.3-1.2-.5-2.4-.8-3.6-4.4-20.1-9.3-37.5-14.1-52-.3-.9-.6-1.7-.9-2.5-6-17.5-12-30.6-17.3-39-2.8-7-14.6-14.4-21.4-16.7-8.5-2.8-20-5.6-34.6-8.3-1-.2-2.1-.4-3.2-.6-6.5-1.1-13.5-2.3-21.1-3.3-1.3-.2-2.6-.3-3.9-.5-5.2-.7-10.7-1.3-16.5-2-17.3-1.9-37.1-3.4-59.4-4.4-7.5-.3-15.2-.6-23.2-.9-2,0-4,0-6.1-.2-12.3-.3-25.2-.4-38.8-.4h-6.9c-32.3.2-68.4,1.3-108.4,3.7-25,1.5-48,3.5-69,6-2.6.3-5.2.6-7.8.9-10.3,1.3-20,2.7-29.3,4.1-14,2.2-26.9,4.5-38.8,7-4,.8-7.8,1.6-11.6,2.5-5.6,1.3-11,2.5-16.1,3.8-5.1,1.3-10,2.6-14.7,3.9-21.8,6-38.6,12.1-51,17.3-1.8.7-3.5,1.5-5.1,2.2-16.8,7.4-24,12.6-24,12.6h0v.2h0v.4c0,0,0,.3-.1.4v.8c0,.2,0,.4-.2.6v.3c0,.2-.1.5-.2.7v.2c0,.3-.1.5-.2.8v.3c0,.3-.2.7-.2,1.1v.2c0,.4-.2.8-.3,1.2h0c-2.3,11.2-6.3,34.2-8.1,67.3-5.1,55.6-15,206,4.9,389.2v.2c.3,2.8.6,5.5.9,8.3,0,.4,0,.9.1,1.3.3,2.7.6,5.5,1,8.3,2,17.1,4.3,33.9,6.7,50.5.9,6.2,1.8,12.4,2.8,18.5s1.9,12.2,2.9,18.3c1,6,2,12.1,3.1,18,1,6,2.1,11.9,3.2,17.7.7,3.9,1.5,7.8,2.2,11.7,1.8,9.7,3.7,19.2,5.7,28.6,39,189.9,93.8,321.6,93.8,321.6,0,0,23.7,1.9,57.9,1.9s11.7,0,17.9-.2h3.1c12.6-.3,26-.9,39.8-1.9,1.2,0,2.3-.2,3.5-.3,2.3-.2,4.6-.4,7-.6,1.2,0,2.3-.2,3.5-.3,9.3-.9,18.8-2,28.2-3.3,3.5-.5,7-1,10.5-1.6s7-1.2,10.5-1.8c1.2-.2,2.3-.4,3.5-.7,2.3-.5,4.6-.9,6.9-1.4,1.1-.2,2.3-.5,3.4-.8,3.4-.8,6.7-1.6,10.1-2.4s6.6-1.8,9.8-2.7c2.2-.6,4.3-1.3,6.4-2,4.2-1.3,8.3-2.8,12.3-4.3,2-.8,4-1.5,5.9-2.4,1-.4,1.9-.8,2.9-1.2,1.9-.8,3.8-1.7,5.6-2.6,5.5-2.6,10.8-5.5,15.7-8.6s3.2-2.1,4.8-3.2c.8-.5,1.5-1.1,2.3-1.7,1.5-1.1,3-2.3,4.4-3.4,16.2-13.5,26.2-30.6,26.7-52.5v-3.6c0-1,0-2.1-.2-3.2v-.4c0-1.1-.2-2.2-.4-3.3v-.4c-.2-1.1-.4-2.3-.6-3.4v-.5c-.2-1.2-.5-2.4-.7-3.6,0-.2,0-.3,0-.5-.3-1.2-.6-2.4-.9-3.7,0-.2,0-.4-.2-.6-.3-1.3-.7-2.5-1-3.8,0-.2,0-.4-.2-.7-.4-1.3-.8-2.6-1.2-3.9,0-.2-.2-.5-.2-.7-.4-1.3-.8-2.6-1.3-4,0-.3-.2-.6-.3-.9-.4-1.3-.9-2.7-1.4-4,0-.3-.2-.7-.4-1-.5-1.3-1-2.7-1.5-4.1,0-.4-.3-.8-.4-1.2-.5-1.3-1-2.7-1.5-4.1-.2-.4-.3-.9-.5-1.3-.5-1.3-1-2.7-1.6-4-.2-.5-.4-1-.6-1.5-.5-1.3-1.1-2.7-1.6-4-.2-.6-.5-1.1-.7-1.7-.5-1.3-1.1-2.6-1.6-4-.3-.6-.5-1.3-.8-1.9-.5-1.3-1.1-2.6-1.7-3.9-.3-.7-.6-1.4-.9-2-.6-1.3-1.1-2.6-1.7-4-.3-.7-.6-1.4-.9-2.1-.6-1.3-1.2-2.7-1.8-4-.3-.7-.6-1.4-1-2.2-.6-1.4-1.3-2.8-1.9-4.2-.3-.7-.6-1.3-.9-2-.7-1.5-1.4-3.1-2.1-4.7-.2-.5-.5-1-.7-1.5-.8-1.9-1.7-3.7-2.6-5.6,0-.2-.2-.3-.2-.5-10.5-22.8-22.4-47.8-34.8-74.5,97.4-11.5,181.2-17.1,183.8-17.3h0s4.7-38.2,4.7-82.9-7.7-128-44.1-137.2c-.5,0-1-.2-1.5-.3-.9-.2-1.9-.4-2.9-.5-.2,0-.5,0-.7,0-.8,0-1.6-.3-2.5-.4h-.6c-2.2-.3-4.4-.5-6.8-.7h0c-39.9-3.4-101.7,7.1-156.6,19.2h0c-1.1.3-2.3.5-3.4.8-17.9,4-34.9,8.1-50.1,12v-.2c-7.7-27.8-13.7-55.9-17.5-83.8h0c0-.6-.1-1.2-.2-1.7,12.8-2.4,25.4-4.4,37.4-5.9h0c58.4-7,116.5-9.6,169-9.6s111.8,3.3,149.4,7.2c1.1.1,2.1.2,3.2.2,15.2.1,22.4-11.2,30.2-28.2,11.6-35.1,28.4-80,19.5-185l-1-.2Z"/>
  </g>
</svg>