<?xml version="1.0" encoding="UTF-8"?>
<svg xmlns="http://www.w3.org/2000/svg" version="1.1" viewBox="0 0 1080 1080">
  <!-- Generator: Adobe Illustrator 29.3.1, SVG Export Plug-In . SVG Version: 2.1.0 Build 151)  -->
  <g id="Shadow_Effect" class="Shadow_Effect">
    <path d="M707.5,596.5h0c-82.8-4-256.3,64.7-260.3,66.4-5.5,21.8,5.9,124.1,19.6,138.3,8.1,8.5,63.9-5.3,107.6-17.9-8.4,24.5-24.6,44.7-68.5,44.4-63.1-.5-126.2-97.3-137.8-180.3-11.6-83,19.9-177.8,43.8-143.4,23.8,34.5,25.7,69,38.1,135.7,0,0,213.8-50.3,241.8-58.9,28-8.7,46.1-17.1,55.1-38.9,9-21.9-5.8-118.6-37.4-222C641.9,98.8,435.7,20.7,263.7,100.2,115.5,168.6,40.7,343.5,74.1,615.3c39.1,318.1,272.4,457.3,449.9,430.2,1.2-.2,2.5-.4,3.8-.7h.7c64.6,2.5,247.3-56.6,295.5-226.3,6.7-23.8,38.4-214.6-116.6-221.9h0Z" class="shadow-effect" style="display:none;" fill="#000000" fill-opacity="1"/>
  </g>
  <g id="BASE">
    <path d="M821.1,598.5h0c-87.2-4.2-269.8,68.1-274,69.9-5.8,22.9,6.2,130.6,20.6,145.6,8.5,8.9,67.3-5.6,113.3-18.8-8.8,25.8-25.9,47.1-72.1,46.7-66.4-.5-132.8-102.4-145-189.8-12.2-87.4,20.9-187.2,46.1-150.9,25.1,36.3,27,72.6,40.1,142.8,0,0,225-52.9,254.5-62,29.5-9.2,48.5-18,58-41s-6.1-124.8-39.4-233.7C752.1,74.6,535-7.6,354,76c-156,72-234.8,256.1-199.6,542.2,41.2,334.8,286.7,481.4,473.6,452.8,1.3-.2,2.6-.4,4-.7h.7c68,2.6,260.3-59.6,311.1-238.2,7.1-25,40.4-225.9-122.7-233.6h0Z"/>
  </g>
</svg>