<?xml version="1.0" encoding="UTF-8"?>
<svg xmlns="http://www.w3.org/2000/svg" version="1.1" viewBox="0 0 1080 1080">
  <!-- Generator: Adobe Illustrator 29.3.1, SVG Export Plug-In . SVG Version: 2.1.0 Build 151)  -->
  <g id="Shadow_Effect" class="Shadow_Effect">
    <path d="M798.1,585h0c-58.2-378.9-131.8-470.7-131.8-470.7,0,0-49.1-14.6-137.9,19.7-62.4,24.1-94.6,64.7-107.9,85.8-5,8-6.6,17.6-4.2,26.6h0c9.9,37.9,51.9,156.2,90.7,361.8,0,.5.2.9.3,1.3l-109.1,55.4c-1.2-9.8-2.4-19.9-3.3-30.2-17.8-196.3,3-368.1,15.8-429.9,3.8-18.5,4.2-40.6-18-57-22.2-16.5-62.9-30.9-114.9-45.1-85.4-23.5-167.9-26.7-167.9-26.7,0,0-82.8,147.5-35.9,505,43.3,329.9,166.2,466.8,166.2,466.8,0,0,64.7-3.1,143-33.4,64.5-25,77.4-39.6,96.9-57.5,19.5-17.9,8.8-21.6,5.6-29.4-9.8-23.1-25.9-51.2-42.2-89.8l87.8-34.7c6.7,66.8,12.9,132.1,18.4,173.1,4.2,30.9,28.7,55.7,60.4,60.4,22.9,3.4,51.5,4,83-3.7,92-22.6,114.5-69,114.5-69,0,0,46.9-9.2-9.8-378.9h0Z" class="shadow-effect" style="display:none;" fill="#000000" fill-opacity="1"/>
  </g>
  <g id="BASE">
    <path d="M916.8,586.2h0c-61.3-398.8-138.7-495.5-138.7-495.5,0,0-51.7-15.4-145.2,20.7-65.7,25.4-99.6,68.1-113.6,90.3-5.3,8.4-6.9,18.5-4.4,28h0c10.4,39.9,54.6,164.4,95.5,380.8,0,.5.2.9.3,1.4l-114.8,58.3c-1.3-10.3-2.5-20.9-3.5-31.8-18.7-206.6,3.2-387.5,16.6-452.5,4-19.5,4.4-42.7-18.9-60-23.4-17.4-66.2-32.5-120.9-47.5-89.9-24.7-176.7-28.1-176.7-28.1,0,0-87.2,155.3-37.8,531.6,45.6,347.3,175,491.4,175,491.4,0,0,68.1-3.3,150.5-35.2,67.9-26.3,81.5-41.7,102-60.5s9.3-22.7,5.9-30.9c-10.3-24.3-27.3-53.9-44.4-94.5l92.4-36.5c7.1,70.3,13.6,139.1,19.4,182.2,4.4,32.5,30.2,58.6,63.6,63.6,24.1,3.6,54.2,4.2,87.4-3.9,96.8-23.8,120.5-72.6,120.5-72.6,0,0,49.4-9.7-10.3-398.8h0Z"/>
  </g>
</svg>