<?xml version="1.0" encoding="UTF-8"?>
<svg id="Layer_2" xmlns="http://www.w3.org/2000/svg" version="1.1" viewBox="0 0 1080 1080">
  <!-- Generator: Adobe Illustrator 29.3.0, SVG Export Plug-In . SVG Version: 2.1.0 Build 146)  -->
  <ellipse cx="305.9" cy="230.7" rx="216.3" ry="173.2" transform="translate(-59.7 116) rotate(-19.6)"/>
  <path d="M418.9,387l-217.5,60.6c-12,3.4-20.7,13.4-22.6,25.5-8.8,59.4-29.4,237.1,19.3,368.6,43.7,118.1,123.1,198.7,244.9,182.1,202.6-27.8,145.6-226.2,145.6-226.2,0,0-108.3-60.2-129.8-182.1-16.3-91.9-13.7-178.4-21.2-214.6-3.4-16.8-9.4-16.3-18.5-13.7h-.2Z"/>
  <path d="M604.5,749.6s-123.4,32.2-155.6-182.4c-32.2-214.6-102-83.2-102-83.2l-169,88.5s-62.1,593.5,460.8,474.1c176.8-40.4,286.7-121.5,322.8-153.7,12-10.7,13.1-29,2.5-41l-141.2-160.6c-15.3-15.1-38.6-18.4-57.5-8.2-36.5,19.7-127.2,61.1-160.8,66.4Z"/>
</svg>