<?xml version="1.0" encoding="UTF-8"?>
<svg id="Layer_1" xmlns="http://www.w3.org/2000/svg" version="1.1" viewBox="0 0 1080 1080">
  <!-- Generator: Adobe Illustrator 29.3.1, SVG Export Plug-In . SVG Version: 2.1.0 Build 151)  -->
  <g id="Shadow_Effect" class="Shadow_Effect">
  <path id="SHADOW" d="M685.3,951.4c-118.4,133.6-267.8,93-267.8,93,0,0-65.4-65-113.3-198.6-48-133.6-47.3-333.4-47.3-333.4,0,0,87.3-11.8,132.1-16.6,45-4.8,162.2-31,162.2-31h-.2c0,0-14.9,57.2,21.3,210,37.1,155.9,111.7,274.5,113,276.6ZM410.4,481.2c115-15.6,208.3-110.6,208.3-212.2s-93.3-171.5-208.3-156c-115,15.6-208.3,110.6-208.3,212.2s93.3,171.5,208.3,156Z" class="shadow-effect" style="display:none;" fill="#000000" fill-opacity="1"/>
  </g>
  <path id="BASE" d="M656.9,458.7h0,0ZM656.9,458.7s-123.4,27.6-170.7,32.6c-47.2,5-139,17.5-139,17.5,0,0-.7,210.3,49.8,350.9,50.4,140.6,119.3,209.1,119.3,209.1,0,0,157.3,42.7,281.9-97.9-1.4-2.2-79.9-127-118.9-291.2-38.1-160.8-22.4-221-22.4-221ZM508.6,476c121.1-16.4,219.3-116.4,219.3-223.4s-98.2-180.5-219.3-164.2c-121.1,16.4-219.3,116.4-219.3,223.4s98.2,180.5,219.3,164.2Z"/>
</svg>