<?xml version="1.0" encoding="UTF-8"?>
<svg id="Layer_2" xmlns="http://www.w3.org/2000/svg" version="1.1" viewBox="0 0 1080 1080">
  <!-- Generator: Adobe Illustrator 29.3.0, SVG Export Plug-In . SVG Version: 2.1.0 Build 146)  -->
  <path d="M1065.3,353.7c6.7-.5,11.5-6.5,10.7-13.1-4-32.7-13.4-71.1-44.7-171-25-79.7-66.1-135.1-66.1-135.1,0,0-126.6-43.8-381.2,13.6-203.2,45.7-257.3,113.3-257.3,113.3,0,0-5.3,101.3,22.7,236,14,67.6,30.2,111.4,40.4,134.9,4.9,11.3,18.6,15.7,29.1,9.3,52.7-31.7,199.1-134.3,379.8-160.3,137-19.7,239.7-25.5,266.7-27.6h-.1Z"/>
  <path d="M853,314s353,348,121.1,648c-121.6,145.2-537,159.8-786.1-26-96.5-72-152.1-134-180-180-4.5-7.5-2.9-16.2,3.7-20l208.3-245.8c6.5-3.7,14.1.7,20.6,6.7,72.2,66.5,432.4,342.1,543.5,249.1,137.5-115.1-34.8-294.7-159-380-141.1-97,99.8-89,99.8-89l45.6,40,82.5-3Z"/>
  <path d="M325.3,164s-25.3,66.7,18.7,248c18.4,75.8,46.4,149.4,60,183.3,4.2,10.6,16.5,15.3,26.8,10.4l205.1-103.2c4.9-2.4,7.7-7.7,6.8-13.1-6.2-38.4-53.4-171.7-89.3-196-41.3-28-228-129.3-228-129.3h-.1Z"/>
</svg>