<?xml version="1.0" encoding="UTF-8"?>
<svg xmlns="http://www.w3.org/2000/svg" version="1.1" viewBox="0 0 1080 1080">
  <!-- Generator: Adobe Illustrator 29.3.1, SVG Export Plug-In . SVG Version: 2.1.0 Build 151)  -->
  <g id="Shadow_Effect" class="Shadow_Effect">
    <path d="M759.7,496c5.7,1.3,62.6-65.3,42.8-235.6-15.2-130.1-87.4-179.6-87.4-179.6,0,0-213.8-44.1-425.3,5C111.4,127.2,59.7,180.9,59.7,180.9c0,0-16.3,52.9,7.4,200.2,13.3,86.5,54.4,185.5,65.5,208.5,10.4,21.8,31.5,7.9,40.9,2.4,50.7-28.8,96.2-58.9,183.6-79.1,106.4,67.2,227.8,269.9,147,261.5-55.1-5.7-126.3-160.3-146.3-207.1-3-7-10.7-9.9-17-6.4l-261.2,139.3c-6.2,3.6-8.9,11.9-6.2,19,17.4,43.7,64.5,178.5,177.6,256.5,134.9,93,390.4,100.8,490.5-44.8,74.7-108.6,20-259.6-107.5-445,65.6,1.3,114.4,7.7,125.6,10.2h0Z" class="shadow-effect" style="display:none;" fill="#000000" fill-opacity="1"/>
  </g>
  <g id="BASE">
    <path d="M877,493c6,1.4,65.9-68.7,45-248-16-137-92-189-92-189,0,0-225.1-46.4-447.7,5.3-187.7,43.5-242.1,100-242.1,100,0,0-17.2,55.7,7.8,210.7,14,91,57.3,195.3,68.9,219.5,11,22.9,33.2,8.3,43.1,2.5,53.4-30.3,101.3-62,193.3-83.3,112,70.7,239.8,284.1,154.7,275.3-58-6-132.9-168.7-154-218-3.2-7.4-11.3-10.4-17.9-6.7l-274.9,146.6c-6.5,3.8-9.4,12.5-6.5,20,18.3,46,67.9,187.9,187,270,142,97.9,410.9,106.1,516.3-47.2,78.6-114.3,21.1-273.3-113.2-468.4,69.1,1.4,120.4,8.1,132.2,10.7h0Z"/>
  </g>
</svg>