<?xml version="1.0" encoding="UTF-8"?>
<svg id="k" xmlns="http://www.w3.org/2000/svg" version="1.1" viewBox="0 0 1080 1080">
  <!-- Generator: Adobe Illustrator 29.3.0, SVG Export Plug-In . SVG Version: 2.1.0 Build 146)  -->
  <path d="M430,646c73-32,246-109,305.7-261,49-142,17-244,17-244-12.7,9.5-107.1,46.5-146,56-45.7,12.9-89.9,21.3-136.1,32.1,0,0,0,.2-.2.2-13.7,3.2-27.3,6.6-41.2,8.4h0c11.3,96.7-75.1,278.3-139.5,354.2-4.5-8.3,5-50,36-128,23.2-58.4,142.7-346,116-358S146-3,124.7,34.3C14,310,31,348,120,430c-174,296,44,563,92,621,23.9-1.4,139.3-65.8,193.2-142.4,10.1-14.4,9.5-37.4.8-52.6-20-35-30-58-100-136,136.3,15,436,22,242,308l346,52s284-281,94-376-434-74-558-58Z"/>
</svg>