<?xml version="1.0" encoding="UTF-8"?>
<svg xmlns="http://www.w3.org/2000/svg" version="1.1" viewBox="0 0 1080 1080">
  <!-- Generator: Adobe Illustrator 29.3.1, SVG Export Plug-In . SVG Version: 2.1.0 Build 151)  -->
  <g id="Shadow_Effect" class="Shadow_Effect">
    <path d="M902.3,907h0c-21.9-91.6-87.4-324.1-382.6-306.5,57.7-35.6,144.4-88.6,196.4-173.6s8.5-243.8-12.2-285c-7.8-15.5-23.9-23.9-40.4-21.1l-233.2,39.9c-7.5,1.3-12.7,8.5-11.8,16.2,7.1,58.4,17,311.7-95.2,402-30.1-209.5,19.3-430.9,26.7-486.6,1.1-8.6-4.8-16.5-13-17.4-38.9-3.9-180.9-9.1-265.3,31-10.4,4.9-17.9,15.2-19.5,27.2-9.2,68.1-39.3,291.2-11.5,482.8,45.4,312.6,152.9,426.7,152.9,426.7,0,0,108.1,20.2,196.7-7.7,79.2-24.9,109.2-66.2,102.6-79.8-20.6-42.8-109-160.8-130.4-228,30.2,11,65.2,29.1,93.8,49.4,94,67,164.6,263.5,164.6,263.5,0,0,99.6,3.2,158.3-12.4,128.3-34.1,129.3-94,122.9-120.6h0Z" class="shadow-effect" style="display:none;" fill="#000000" fill-opacity="1"/>
  </g>
  <g id="BASE">
    <path d="M1025.2,925.2h0c-23.1-96.4-92-341.2-402.7-322.6,60.7-37.5,152-93.3,206.7-182.7s9-256.6-12.8-300c-8.2-16.3-25.2-25.2-42.5-22.2l-245.5,42c-7.9,1.4-13.4,8.9-12.4,17,7.5,61.5,17.9,328.1-100.2,423.2-31.7-220.5,20.3-453.6,28.1-512.2,1.2-9.1-5-17.4-13.7-18.3-40.9-4.1-190.4-9.6-279.3,32.6-11,5.2-18.8,16-20.5,28.6-9.7,71.7-41.4,306.5-12.1,508.2,47.8,329.1,161,449.2,161,449.2,0,0,113.8,21.3,207.1-8.1,83.4-26.2,114.9-69.7,108-84-21.7-45.1-114.7-169.3-137.3-240,31.8,11.6,68.6,30.6,98.7,52,99,70.5,173.3,277.4,173.3,277.4,0,0,104.8,3.4,166.6-13.1,135-35.9,136.1-99,129.4-127h0Z"/>
  </g>
</svg>