<?xml version="1.0" encoding="UTF-8"?>
<svg id="Layer_2" xmlns="http://www.w3.org/2000/svg" version="1.1" viewBox="0 0 1080 1080">
  <!-- Generator: Adobe Illustrator 29.3.0, SVG Export Plug-In . SVG Version: 2.1.0 Build 146)  -->
  <path d="M474.7,953.3c251-52,468.8.8,516.3-4.3,9.2-1,41.5-66.8,46.4-81,12.1-35,122-214.2-127.3-254-259.7-41.4-606,214-606,214,0,0,5.3-211,73.3-388,68-177,140.7-243.3,70.7-309.3-57.2-53.9-207.9-51.1-261.1-48.3-11.4.6-21.1,8.4-24.2,19.4-18.9,67.3-135.5,374.4-94.7,600.9,48,266,143.3,348.3,143.3,348.3,0,0,131.2-70.3,263.3-97.7Z"/>
  <path d="M153.3,314.7l-51.3,18.4c-16.5,5.9-34-6.4-33.9-23.9,0,0-17-85,.7-162.4s45.4-105,102.9-108.1c93.9-5,300,63.9,298.9,132-2.7,160-317.3,144-317.3,144Z"/>
</svg>