<?xml version="1.0" encoding="UTF-8"?>
<svg xmlns="http://www.w3.org/2000/svg" version="1.1" viewBox="0 0 1080 1080">
  <!-- Generator: Adobe Illustrator 29.3.1, SVG Export Plug-In . SVG Version: 2.1.0 Build 151)  -->
  <g id="Shadow_Effect" class="Shadow_Effect">
    <path d="M197,95.4c-101.4,92.4-98.8,378.8-82.4,544.6,24.2,244.6,95.9,402.1,95.9,402.1,0,0,128.3.7,303.1-9.5,157.4-9.1,294.8-64.3,314.8-83.1,20-18.9-58-159.5-89.1-192.4-22.4-23.7-52.9-35.4-94-30.9-31.2,3.4-59.6,8.4-128,31.1-43.7,14.5-112.9,45.4-112.9,45.4,0,0-13.8-46.2,1.4-200.7,15.2-154.6,64.6-302.8,92.4-410.4,5.8-22.2-50.6-57-117.8-78.6-79.4-25.5-164.1-35.6-183.6-17.8h0Z" class="shadow-effect" style="display:none;" fill="#000000" fill-opacity="1"/>
  </g>
  <g id="BASE">
    <path d="M282.7,70.7c-106.7,97.3-104,398.7-86.7,573.3,25.5,257.5,100.9,423.3,100.9,423.3,0,0,135.1.7,319.1-10,165.7-9.6,310.3-67.7,331.4-87.5,21.1-19.9-61.1-167.9-93.8-202.5-23.6-24.9-55.7-37.3-98.9-32.5-32.8,3.6-62.7,8.8-134.7,32.7-46,15.3-118.8,47.8-118.8,47.8,0,0-14.5-48.6,1.5-211.3s68-318.7,97.3-432c6.1-23.4-53.3-60-124-82.7-83.6-26.8-172.7-37.5-193.3-18.7h0Z"/>
  </g>
</svg>