<?xml version="1.0" encoding="UTF-8"?>
<svg xmlns="http://www.w3.org/2000/svg" version="1.1" viewBox="0 0 1080 1080">
  <!-- Generator: Adobe Illustrator 29.3.1, SVG Export Plug-In . SVG Version: 2.1.0 Build 151)  -->
  <g id="Shadow_Effect" class="Shadow_Effect">
    <path d="M917.2,883.9s-112.4-165.7-135.6-252c-31-115.4-32.9-182.2-31.6-340.8,0-2,0-3.9,0-5.9.3-11.4.4-21.8,0-30.7-.2-23.1-.8-41.5-1.6-56.2-.7-40.6-.6-64.6-6-63.1-39.6-15.8-271.2-80.6-306.3-47.8-31.9,29.8-55.5,174.6-68.9,280.4-4.1-28.1-7.6-61.7-10.2-101.9-3.5-69.7,1.1-103.6.2-121.1,0,0,0-.1,0-.2,1.5-8-2.5-16.1-9.4-19.4-90.7-43.4-234.4-66-243.8-61.7-1.8.5-83.9,117.7-90.2,385.1-5.7,246,28.6,430.3,107.8,590.6,1,2.1,5.7,2.8,11.5,3.1v.2s199.8,10,263.9-95.1c1.4-2.3,1.9-5.6,1.5-8.5v-.2h0c0-1.5-.6-3.1-1.2-4.4-74.8-128.4-120.8-281.3-128.1-404.8,18,71,47.8,176.9,78.2,233.7,14.9,27.8,38,31.6,60.3,36.5,22.3,4.8,41.4,5.5,51.3,1.9,9.8-3.5,6-109.7,7.8-181.9.6-25.4,5.3-81.7,8.8-122.3-2.6,326.2,187.7,543.3,187.7,543.3,0,0,86.7,12.7,168.7-37.9,87-53.7,84.8-119,84.8-119Z" class="shadow-effect" style="display:none;" fill="#000000" fill-opacity="1"/>
  </g>
  <g id="BASE">
    <path d="M1041,901.3s-118.3-174.4-142.7-265.3c-32.6-121.5-34.6-191.8-33.3-358.7,0-2.1,0-4.1,0-6.2.4-12,.4-22.9,0-32.3-.2-24.3-.8-43.7-1.7-59.1-.7-42.8-.6-68-6.3-66.4-41.7-16.6-285.5-84.8-322.4-50.3-33.6,31.4-58.4,183.8-72.5,295.2-4.3-29.5-8-65-10.7-107.3-3.7-73.3,1.2-109,.2-127.4,0,0,0-.1,0-.2,1.6-8.4-2.6-16.9-9.9-20.4C346.2,57.2,195,33.4,185.1,37.9c-1.9.5-88.3,123.9-94.9,405.4-6,258.9,30.1,453,113.5,621.7,1.1,2.2,6,2.9,12.1,3.3v.2s210.3,10.5,277.8-100.1c1.5-2.4,2-5.9,1.6-9v-.2h0c0-1.6-.6-3.3-1.3-4.6-78.8-135.2-127.1-296.2-134.8-426.1,18.9,74.8,50.3,186.3,82.3,246,15.7,29.3,40,33.3,63.5,38.4,23.5,5,43.6,5.8,54,2,10.3-3.7,6.3-115.5,8.2-191.5.7-26.8,5.5-86,9.3-128.8-2.8,343.4,197.6,571.9,197.6,571.9,0,0,91.3,13.4,177.6-39.9,91.6-56.5,89.3-125.3,89.3-125.3Z"/>
  </g>
</svg>