<?xml version="1.0" encoding="UTF-8"?>
<svg xmlns="http://www.w3.org/2000/svg" version="1.1" viewBox="0 0 1080 1080">
  <!-- Generator: Adobe Illustrator 29.3.1, SVG Export Plug-In . SVG Version: 2.1.0 Build 151)  -->
  <g id="Shadow_Effect" class="Shadow_Effect">
    <path d="M646.4,55.1c-16.6-20.2-102.1,6.4-152,40.6-49.9,34.2-105.7,82.4-102.1,134.2,3.6,52,90.7,256.2,122.1,404.4-53.2-121.6-120.6-287.9-140.6-348.7-16.3-49.7-56.1-168.1-84.6-185.2-28.5-17.1-56.1-6.6-112.1,13.3-56.1,19.9-103.2,51.7-103.2,51.7,0,0-92.5,487.6,85.6,809.6,2.2,4.8,4.5,8.6,6.7,11.2,20.7,37.5,37.3,56.8,37.3,56.8,0,0,49.6,7,110.2-17.4,60.6-24.4,90.3-50.6,105.2-70.2,16.1-16.2,16-38.5,11.6-47.8-8.7-18.4-37.3-65-62.3-115-25-49.9-32.1-99.8-32.1-99.8,0,0,58.1,83.8,141.3,176,69.9,77.6,157.7,156.9,191.7,170.8.4.2,1,0,1.8,0,.8.9,1.1,1.2,1.1,1.2,0,0,165.5-51,167.3-170.8,1.8-119.8-4.8-236.8-48.5-450.6s-119.4-334-144.4-364.5Z" class="shadow-effect" style="display:none;" fill="#000000" fill-opacity="1"/>
  </g>
  <g id="BASE">
    <path d="M757,29.3c-17.5-21.3-107.5,6.7-160,42.7s-111.3,86.7-107.5,141.3c3.8,54.7,95.5,269.7,128.5,425.7-56-128-127-303-148-367-17.2-52.3-59-177-89-195s-59-7-118,14-108.6,54.4-108.6,54.4c0,0-97.4,513.3,90.1,852.2,2.3,5.1,4.7,9,7,11.8,21.8,39.5,39.3,59.8,39.3,59.8,0,0,52.2,7.4,116-18.3,63.8-25.7,95.1-53.3,110.7-73.9,16.9-17.1,16.8-40.5,12.2-50.3-9.2-19.4-39.3-68.4-65.6-121-26.3-52.5-33.8-105-33.8-105,0,0,61.2,88.2,148.7,185.3,73.6,81.7,166,165.2,201.8,179.8.4.2,1,0,1.9,0,.8.9,1.2,1.3,1.2,1.3,0,0,174.2-53.7,176.1-179.8s-5-249.3-51-474.3S783.3,61.4,757,29.3Z"/>
  </g>
</svg>