<?xml version="1.0" encoding="UTF-8"?>
<svg id="Layer_2" xmlns="http://www.w3.org/2000/svg" version="1.1" viewBox="0 0 1080 1080">
  <!-- Generator: Adobe Illustrator 29.3.0, SVG Export Plug-In . SVG Version: 2.1.0 Build 146)  -->
  <path d="M49,298s-23,118,19,223,102,121,102,121c-5.8,11.9,182.6-59.5,221-123,72.1-119.2,135-304,133-354s-25-123-25-123c0,0-88.4,14.5-142,66-78,75-184,148-308,190Z"/>
  <path d="M861,275C736.6,38.1,533-9,392,85s-136,421-130,470c0,0,4.1,221.6,117,353,122,142,334,208,456,24s141-438,26-657ZM659,835c-61,12-100-106-112-151s-38.8-234.9,47-250c91-16,113,181,113,181,10,68,13,208-48,220Z"/>
</svg>