<?xml version="1.0" encoding="UTF-8"?>
<svg id="o" xmlns="http://www.w3.org/2000/svg" version="1.1" viewBox="0 0 1080 1080">
  <!-- Generator: Adobe Illustrator 29.3.0, SVG Export Plug-In . SVG Version: 2.1.0 Build 146)  -->
  <path d="M180.1,223.1S272.4-24.7,535.9,38.2c215.7,51.5,300.3,79.2,300.3,79.2,0,0,23.3,49.4,32.8,124.1s2,134.9-2.5,142.6c-10.1,17.2-46.7,81.9-267.5-39.6-292.8-161.1-418.9-121.5-418.9-121.5Z"/>
  <path d="M551,419.8s157.7-25.1,100.9-85.8c-56.8-60.7-95.9-307.6-294-270.7S51.4,470,152.4,735.3c100.9,265.4,258.6-25.1,243.5-203.3-15.1-178.2,155.2-112.2,155.2-112.2Z"/>
  <path d="M592.7,337.9C227.5,189.9,32.5,310.2,147.7,713.2c122.7,429.1,689.3,443.1,803.9,214.2,82-163.7-3.8-445.6-358.9-589.5ZM702,825.2c-18.3,87.7-169.2,35.4-218-61.7-39.5-78.6-10-201.5,30-241.5,84.9,21.8,206.3,215.5,188,303.2Z"/>
</svg>