<?xml version="1.0" encoding="UTF-8"?>
<svg xmlns="http://www.w3.org/2000/svg" version="1.1" viewBox="0 0 1080 1080">
  <!-- Generator: Adobe Illustrator 29.3.1, SVG Export Plug-In . SVG Version: 2.1.0 Build 151)  -->
  <g id="Shadow_Effect" class="Shadow_Effect">
    <path d="M368.2,83.7C226.2,92.4,50,221.8,94.9,588.7c44.9,367,296.5,464.9,421.1,448.3,124.6-16.6,284.2-149.8,243.8-496.9-40.2-347-222.9-466.6-391.6-456.4ZM476.6,814.6c-32.7,4.3-61.7-62.6-73.2-112.1-9.4-36.5-24.9-166,15.5-190.8,40.4-24.8,74.5,64.2,88.2,134.1,13,82.6,5.2,164-30.5,168.5h0v.2h0Z" class="shadow-effect" style="display:none;" fill="#000000" fill-opacity="1"/>
  </g>
  <g id="BASE">
    <path d="M465.1,58.6c-149.5,9.1-334.9,145.3-287.7,531.6,47.3,386.3,312.1,489.4,443.3,471.9,131.2-17.5,299.2-157.7,256.6-523.1C835,173.7,642.7,47.8,465.1,58.6ZM579.2,828c-34.4,4.5-64.9-65.9-77.1-118-9.9-38.4-26.2-174.7,16.3-200.8,42.5-26.1,78.4,67.6,92.8,141.2,13.7,87,5.5,172.6-32.1,177.4h0v.2h0Z"/>
  </g>
</svg>