<?xml version="1.0" encoding="UTF-8"?>
<svg id="Layer_2" xmlns="http://www.w3.org/2000/svg" version="1.1" viewBox="0 0 1080 1080">
  <!-- Generator: Adobe Illustrator 29.3.0, SVG Export Plug-In . SVG Version: 2.1.0 Build 146)  -->
  <path d="M78.7,161.3s-49.8,70.1-24.7,222c19.3,116.7,78.1,165.2,98,190,6.2,7.7,17.1,9.4,25.3,4,40.7-26.6,170.7-100.8,320-130.7,126.4-25.3,187.7-18.3,194.7,26.7,5.4,34.6-50.7,103.7-186.7,110.7s-52,157-52,157c0,0,534.6,26.6,508-403.7C948,121.3,714.8,2.6,486.7,20,241.3,38.7,78.7,161.3,78.7,161.3Z"/>
  <path d="M521.3,388s-53.3,133.3,45.3,304c70.3,121.6,135.2,183.6,166.7,209.3,15.5,12.6,21.4,33.6,14.4,52.3-10.2,27.3-37.1,64.8-106.4,95.7-99.3,44.4-181.3,10.7-181.3,10.7,0,0-200-384-141.3-632,58.7-248,202.7-40,202.7-40Z"/>
</svg>