<?xml version="1.0" encoding="UTF-8"?>
<svg xmlns="http://www.w3.org/2000/svg" version="1.1" viewBox="0 0 1080 1080">
  <!-- Generator: Adobe Illustrator 29.3.1, SVG Export Plug-In . SVG Version: 2.1.0 Build 151)  -->
  <g id="Shadow_Effect" class="Shadow_Effect">
    <path d="M351.2,73C126.7,64.4,25.5,125.4,25.5,125.4c-14.2,8.5-28.9,133.2-4.2,266,27.1,145.1,42,186.5,83.3,181.5-18.1,228.5,60,387.9,107.8,466.6,0,0,92.8,9.6,171.8-3,54.4-8.7,116.1-39.2,100.3-87.9-9.8-19.1-63.3-73.1-82.7-130.5,228.9-52.7,296.7-119.3,368.5-211.3,133.8-171.2-41.3-519.2-419.2-533.8h0ZM465.2,580.7c-7.4,39.3-35.2,73.6-115.4,78.2-10.6-62.8-10.5-103.4-1.7-151.6,3.5-.3,19.1-.8,22.4-1.1,68.8.6,99.8,48,94.7,74.6Z" class="shadow-effect" style="display:none;" fill="#000000" fill-opacity="1"/>
  </g>
  <g id="BASE">
    <path d="M448,47.5c-236.3-9.1-342.8,55.2-342.8,55.2-15,8.9-30.4,140.2-4.4,280,28.5,152.7,44.2,196.3,87.7,191.1-19.1,240.5,63.2,408.3,113.5,491.2,0,0,97.7,10.1,180.8-3.2,57.3-9.2,122.2-41.3,105.6-92.5-10.3-20.1-66.6-77-87.1-137.4,241-55.5,312.3-125.6,387.9-222.4,140.8-180.2-43.5-546.5-441.3-561.9h.1ZM568,581.9c-7.8,41.4-37,77.5-121.5,82.3-11.2-66.1-11.1-108.8-1.8-159.6,3.7-.3,20.1-.8,23.6-1.2,72.4.6,105,50.5,99.7,78.5Z"/>
  </g>
</svg>