<?xml version="1.0" encoding="UTF-8"?>
<svg xmlns="http://www.w3.org/2000/svg" version="1.1" viewBox="0 0 1080 1080">
  <!-- Generator: Adobe Illustrator 29.3.1, SVG Export Plug-In . SVG Version: 2.1.0 Build 151)  -->
  <g id="Shadow_Effect" class="Shadow_Effect">
    <path d="M771.1,790.7c-22.8-15.3-33.1-25.6-68.6-47,35.1-63.7,51.5-161.4,55.4-294.2,3.9-132.8-39.6-317.2-171-366.7-124.3-46.7-291.5-50.4-444.7,157.7C-11.7,449.5,58.2,783,58.2,783c0,0,20.5,101.8,106.7,172.8,122.9,101.3,275.6,95.2,309,93.3,2.6,0,4.9,0,7.2-.2,11.7-1.5,47-24.9,86.5-69.1,22.3,20.4,42.8,39.1,58.9,53.1,14.5,12.5,31.3,16.1,52.5-4.8,21.3-20.9,42.8-46.9,56.8-70,25.1-41.2,35.8-71,41.3-91.8,2.8-10.5,13.1-62.8-6.2-75.6h0,0ZM293.5,805.5s-2.9-130,54.6-228.6c42.4-72.6,135.8-131.1,146.1,5.1,1.9,23.9-.5,49-5.5,74.3-22.7-2.9-68.7-6.9-103.8,6.5-54.6,20.8-72.3,159.2-72.3,159.2,0,0,49.1.9,97,28.5-5.9,10.2-10.9,18.4-14.7,24.4-86.8-21.5-101.5-69.6-101.5-69.6h0v.2Z" class="shadow-effect" style="display:none;" fill="#000000" fill-opacity="1"/>
  </g>
  <g id="BASE">
    <path d="M890,803.2c-24-16.1-34.8-26.9-72.2-49.5,37-67.1,54.2-169.9,58.3-309.7,4.1-139.8-41.7-333.9-180-386C565.3,8.8,389.3,4.9,228,224c-162,220-88.4,571.1-88.4,571.1,0,0,21.6,107.2,112.3,181.9,129.4,106.6,290.1,100.2,325.3,98.2,2.7,0,5.2,0,7.6-.2,12.3-1.6,49.5-26.2,91.1-72.7,23.5,21.5,45,41.2,62,55.9,15.3,13.2,32.9,16.9,55.3-5.1,22.4-22,45-49.4,59.8-73.7,26.4-43.4,37.7-74.7,43.5-96.6,2.9-11,13.8-66.1-6.5-79.6h0,.1ZM387.2,818.8s-3.1-136.8,57.5-240.6c44.6-76.4,142.9-138,153.8,5.4,2,25.2-.5,51.6-5.8,78.2-23.9-3.1-72.3-7.3-109.3,6.8-57.5,21.9-76.1,167.6-76.1,167.6,0,0,51.7.9,102.1,30-6.2,10.7-11.5,19.4-15.5,25.7-91.4-22.6-106.8-73.3-106.8-73.3h0v.2Z"/>
  </g>
</svg>