<?xml version="1.0" encoding="UTF-8"?>
<svg xmlns="http://www.w3.org/2000/svg" version="1.1" viewBox="0 0 1080 1080">
  <!-- Generator: Adobe Illustrator 29.3.1, SVG Export Plug-In . SVG Version: 2.1.0 Build 151)  -->
  <g id="Shadow_Effect" class="Shadow_Effect">
    <path d="M686.6,664.6c-24.8-6.6-49.5-11.4-73.8-14.6,44.6-24,185.4-110.7,182.3-242.5-11.6-159.1-124.1-300.4-340.1-324.8-188.1-21.3-300.2,31-300.2,31,0,0-57.1,119.9-60.8,384.8-4.8,334.6,120.8,538.5,120.8,538.5,0,0,67.3,18.3,149,6.7,68.6-9.8,122.3-40.4,142.5-75,5.4-9.3,5.7-21.9-1.9-29.4-76-75.4-114-131.5-142.5-195.3h-.2c7.3-.5,15.4-.4,23.9.4,0-.2,0-.4.2-.7,36.3,10.4,82.7,32.1,120.3,77.6,91.2,110.2,142.5,222.4,142.5,222.4,0,0,119.7,17.4,195.7-38.7,65.6-48.5,76-96.7,76-96.7,0,0-60.8-197.2-233.7-243.7h0ZM333.2,484.8h0c79.8-32.9,146.2,11.9,129.4,72.9v.2c-15.8,57.6-86.3,82.4-116.1,100.9-12.2-65.7-17.1-116-13.3-174h0Z" class="shadow-effect" style="display:none;" fill="#000000" fill-opacity="1"/>
  </g>
  <g id="BASE">
    <path d="M796,670c-26.1-7-52.1-12-77.7-15.4,46.9-25.3,195.2-116.5,191.9-255.3-12.2-167.5-130.6-316.2-358-341.9-198-22.4-316,32.6-316,32.6,0,0-60.1,126.2-64,405-5,352.2,127.2,566.8,127.2,566.8,0,0,70.8,19.3,156.8,7.1,72.2-10.3,128.7-42.5,150-79,5.7-9.8,6-23.1-2-30.9-80-79.4-120-138.4-150-205.6h-.2c7.7-.5,16.2-.4,25.2.4,0-.2.1-.4.2-.7,38.2,10.9,87,33.8,126.6,81.7,96,116,150,234.1,150,234.1,0,0,126,18.3,206-40.7,69-51,80-101.8,80-101.8,0,0-64-207.6-246-256.5h0ZM424,480.7h0c84-34.6,153.9,12.5,136.2,76.7v.2c-16.6,60.6-90.8,86.7-122.2,106.2-12.8-69.2-18-122.1-14-183.2h0Z"/>
  </g>
</svg>