<?xml version="1.0" encoding="UTF-8"?>
<svg xmlns="http://www.w3.org/2000/svg" version="1.1" viewBox="0 0 1080 1080">
  <!-- Generator: Adobe Illustrator 29.3.1, SVG Export Plug-In . SVG Version: 2.1.0 Build 151)  -->
  <g id="Shadow_Effect" class="Shadow_Effect">
    <path d="M542,611.3s230.9-216.6,238.6-230.2c7.8-13.6,6.1-37.1,0-48.5C703,104.4,536.4,52.1,388.6,53c-172.8.9-308.7,137.8-313.3,330-5.1,212.8,155.1,308.5,247.7,337.7,162.2,51.3,246.1,50.5,248,89.4.9,21.4-45.6,28.8-129.2-5.4-57.5-23.5-176.4-94-213.4-119.6-6.3-4.4-15-2.4-18.7,4.5-9.2,15.1-25.9,59.4-36.6,102.1s-19.2,111.4-18.7,127.7c0,4.4.9,7.5,5.1,11.1,27.2,23.4,117.3,102.5,324.3,119.4,207,16.8,318.2-112,315.4-212.8-2.9-100.8-59.4-185.1-257.1-225.7h-.2,0ZM377.5,519.2c7.2-19.9,44-22.2,76.2,7.6,24.8,22.9,46.6,56.9,59.4,78.8-125.2-25.9-142.6-67-135.6-86.3h0Z" class="shadow-effect" style="display:none;" fill="#000000" fill-opacity="1"/>
  </g>
  <g id="BASE">
    <path d="M647.5,614.4s243.1-228,251.2-242.3c8.2-14.3,6.4-39,0-51.1C817,80.8,641.6,25.8,486,26.7c-181.9,1-324.9,145.1-329.8,347.4-5.4,224,163.3,324.7,260.7,355.5,170.7,54,259.1,53.2,261.1,94.1,1,22.5-48,30.3-136-5.7-60.5-24.7-185.7-99-224.6-125.9-6.6-4.6-15.8-2.5-19.7,4.7-9.7,15.9-27.3,62.5-38.5,107.5s-20.2,117.3-19.7,134.4c.1,4.6.9,7.9,5.4,11.7,28.6,24.6,123.5,107.9,341.4,125.7,217.9,17.7,335-117.9,332-224-3.1-106.1-62.5-194.8-270.6-237.6h-.2,0ZM474.4,517.5c7.6-20.9,46.3-23.4,80.2,8,26.1,24.1,49.1,59.9,62.5,82.9-131.8-27.3-150.1-70.5-142.7-90.8h0Z"/>
  </g>
</svg>