<?xml version="1.0" encoding="UTF-8"?>
<svg id="Layer_2" xmlns="http://www.w3.org/2000/svg" version="1.1" viewBox="0 0 1080 1080">
  <!-- Generator: Adobe Illustrator 29.3.0, SVG Export Plug-In . SVG Version: 2.1.0 Build 146)  -->
  <path d="M492,373s-9,127,48,287,123,274,123,274l-239.2,123.3c-8.3,4.3-18.4.8-22.4-7.6-31.2-65.5-144.4-333.2-65.4-625.8,91-337,156-51,156-51Z"/>
  <path d="M434,883s318-282.3,454-300.3,120,298.7,120,298.7c0,0-158,4.7-331,65.7-108.4,38.2-216.7,91.8-254.2,110.9-5.8,3-12.5-1.8-11.7-8.3l22.9-166.6h0Z"/>
  <path d="M725.7,399.9c10.9,0,20-8,21-18.4,2.9-32.5,7.6-102.1.8-162.5-11.9-106.9-42.7-146.1-42.7-146.1,0,0-110.4-29.3-329.5,0-219.1,29.4-281.3,77.2-281.3,77.2,0,0-38.4,73.9-22.6,258.9,7.5,87.7,26.7,139.8,41.3,167.9,7.8,15,27.9,19.7,42.1,9.9,71.5-49,294.3-184.7,571.2-186.9h-.1Z"/>
</svg>