<?xml version="1.0" encoding="UTF-8"?>
<svg xmlns="http://www.w3.org/2000/svg" version="1.1" viewBox="0 0 1080 1080">
  <!-- Generator: Adobe Illustrator 29.3.1, SVG Export Plug-In . SVG Version: 2.1.0 Build 151)  -->
  <g id="Shadow_Effect" class="Shadow_Effect">
    <path d="M723.9,100.8s-35.5-54.2-322.4-42.8c-159.9,6.4-291.3,73.2-291.3,73.2,0,0-48.2,85.4-46.6,202.8,1.5,117.4,49.7,217.4,95.7,244.5,42.7-9.2,113-35.1,175.4-41.3-19.4,183,17.5,429.1,40.7,481,18.9,36.2,122.2,28.2,194.8,16.1,72.7-12.2,113.1-40.3,113.3-54.1-42.6-92.1-75.1-172.2-101.3-260.4-20.9-70.2-31.2-145.8-20.1-196.3,39.1-.9,91.8,6.3,154.8,8.9,18.1.9,82.3-97.3,78.9-219.1-4.1-146.8-71.7-212.3-71.7-212.3h0v-.2h0Z" class="shadow-effect" style="display:none;" fill="#000000" fill-opacity="1"/>
  </g>
  <g id="BASE">
    <path d="M839.4,77.1s-37.4-57.1-339.4-45.1c-168.3,6.7-306.6,77-306.6,77,0,0-50.7,89.9-49.1,213.5,1.6,123.6,52.3,228.8,100.7,257.4,44.9-9.7,119-36.9,184.6-43.5-20.4,192.6,18.4,451.7,42.8,506.3,19.9,38.1,128.6,29.7,205.1,16.9,76.5-12.8,119-42.4,119.3-56.9-44.8-96.9-79-181.3-106.6-274.1-22-73.9-32.8-153.5-21.2-206.6,41.2-.9,96.6,6.6,162.9,9.4,19.1.9,86.6-102.4,83.1-230.6-4.3-154.5-75.5-223.5-75.5-223.5h0v-.2h0Z"/>
  </g>
</svg>