<?xml version="1.0" encoding="UTF-8"?>
<svg id="Layer_1" xmlns="http://www.w3.org/2000/svg" version="1.1" viewBox="0 0 1080 1080">
  <!-- Generator: Adobe Illustrator 29.3.1, SVG Export Plug-In . SVG Version: 2.1.0 Build 151)  -->
  <g id="Shadow_Effect" class="Shadow_Effect">
    <path d="M381.5,267c-5.1,116.5-11.9,206.2,8.8,369.2,19.1,150.2,80.1,208.4,91.9,148.5,29.3-118.5-78.7-460.3-98.6-595.2-7.9-53.7,204.8-112.6,262.3-84.7,117.4,103.6,273.2,911.7-157.4,935.8-148.3,8.3-358.4-93.8-400.2-386.4-43.5-304.7,2.6-394.9,111.4-428.2,108.9-33.2,186.2-10.2,181.8,40.9h0Z" class="shadow-effect" style="display:none;" fill="#000000" fill-opacity="1"/>
  </g>
  <g id="BASE">
    <path d="M479.4,251.1c-5.4,122.6-12.5,217.1,9.3,388.6,20.1,158.1,84.3,219.4,96.7,156.3,30.8-124.7-82.8-484.5-103.8-626.5-8.3-56.5,215.6-118.5,276.1-89.2,123.6,109.1,287.6,959.7-165.7,985.1-156.1,8.7-377.3-98.7-421.3-406.7-45.8-320.7,2.7-415.7,117.3-450.7,114.6-35,196-10.7,191.4,43.1h0Z"/>
  </g>
</svg>