<?xml version="1.0" encoding="UTF-8"?>
<svg id="Layer_1" xmlns="http://www.w3.org/2000/svg" version="1.1" viewBox="0 0 1080 1080">
  <g id="SHADOW">
    
      <path  class="shadow-effect" style="display:none;" fill="#000000" fill-opacity="1" d="M383.7,186.5c-9.6,116.2-5.3,350.2,6.7,452.5,20.6,176.1,68.8,207.3,82.9,147.8,33.8-117.2-60.9-463-75.6-598.5-5.8-53.9,209-104.6,265.4-74.6,145.3,202.3,192.2,895.1-181.5,934.4-193.9,20.4-372-86.1-410-392.7-38.8-313.1,18-471.6,100.4-500.7,106.4-36.7,218.1-19,211.7,31.9h0Z"/>
    
  </g>
  <g id="BASE1">
    
      <path d="M482.6,164c-10.1,122.3-5.9,370.9,6.7,478.7,21.7,185.3,72.5,218.2,87.3,155.6,35.6-123.4-64.1-487.3-79.6-630-6.1-56.8,220-110.1,279.3-78.5,153,212.9,202.3,942.3-191,983.6-188,23.9-392-121.4-432-413.4-40.9-329.9,10.7-489.3,105.9-529.5,112-38.7,230.1-20,223.5,33.5h-.1Z"/>
    
  </g>
</svg>