<?xml version="1.0" encoding="UTF-8"?>
<svg xmlns="http://www.w3.org/2000/svg" version="1.1" viewBox="0 0 1080 1080">
  <!-- Generator: Adobe Illustrator 29.3.1, SVG Export Plug-In . SVG Version: 2.1.0 Build 151)  -->
  <g id="Shadow_Effect" class="Shadow_Effect">
    <path d="M154,125.8l204.2-33.9c21.5-3.5,39.9,16,37,38.9-9.2,71.5-5.3,175.6,3,324,9.4,166.4,88.7,376.9,88.7,376.9,0,0,20.9-145-26-342.7-17.7-80.9-45.4-172.2-60.7-225.1-15.3-52.9-6.2-60.1,6.6-65l216.1-78.5c25.5-10.1,53-15.5,73.2,3.8,37,35.2,88.5,83.7,101.1,302.1,13.9,241.3-52,395.2-118.8,475.9-68.9,83.2-152.8,135.9-152.8,135.9,0,0-424.1-164.1-447.4-513-17.9-268,28.1-391.4,28.1-391.4l47.6-7.9h0Z" class="shadow-effect" style="display:none;" fill="#000000" fill-opacity="1"/>
  </g>
  <g id="BASE">
    <path d="M239.1,102.7l214.9-35.7c22.6-3.7,42,16.8,38.9,40.9-9.7,75.3-5.6,184.8,3.2,341.1,9.9,175.2,93.4,396.7,93.4,396.7,0,0,22-152.6-27.4-360.7-18.6-85.2-47.8-181.3-63.9-237-16.1-55.7-6.5-63.3,6.9-68.4l227.5-82.6c26.8-10.6,55.8-16.3,77.1,4,38.9,37.1,93.2,88.1,106.4,318,14.6,254-54.7,416-125,501-72.5,87.6-160.8,143-160.8,143,0,0-446.4-172.7-470.9-540-18.8-282.1,29.6-412,29.6-412l50.1-8.3h0Z"/>
  </g>
</svg>