<?xml version="1.0" encoding="UTF-8"?>
<svg xmlns="http://www.w3.org/2000/svg" version="1.1" viewBox="0 0 1080 1080">
  <!-- Generator: Adobe Illustrator 29.3.1, SVG Export Plug-In . SVG Version: 2.1.0 Build 151)  -->
  <g id="Shadow_Effect" class="Shadow_Effect">
    <path d="M809.9,468.8c-31.8-144.6-82.7-263.2-124.7-325.3h0c-5.8-8.5-16.3-12.9-26.3-10.9-75.8,3.5-205.1,82-239.2,146.7-4.7,6.4-5,14.9-1,22.1,43,52.2,147.9,337,147.6,420.4-38.2-60.3-73.1-193.4-87-215.9-15.2-24.7-107.5,62.2-107.5,62.2-15.4,7.2-9.4,110.6-17.3,147.4-13.9-66.9-12.2-192.8,2.6-273.2,40.1-220.5,69-249.3,44.1-269.8C340.5,122.5,131,41.7,118.5,77.5,6.8,373.8,55.7,830.4,230.7,1044.2c52.3,16.1,173.9-43.4,217.7-97,8.7-12.3,6.6-57,7.6-122.8,30.4,88,181.3,203.3,224.8,215.2,5.5,2.9,12.2,2.1,17.1-1.6,20.4-8,85.7-35.1,123.9-70.3,45.7-42.2,30.8-305.3-11.9-498.8h0Z" class="shadow-effect" style="display:none;" fill="#000000" fill-opacity="1"/>
  </g>
  <g id="BASE">
    <path d="M928.6,464.1c-33.5-152.2-87-277.1-131.3-342.4h0c-6.1-9-17.2-13.6-27.7-11.5-79.8,3.7-215.9,86.3-251.8,154.4-4.9,6.7-5.3,15.7-1,23.3,45.3,55,155.7,354.7,155.4,442.5-40.2-63.5-77-203.6-91.6-227.3-16-26-113.2,65.5-113.2,65.5-16.2,7.6-9.9,116.4-18.2,155.2-14.6-70.4-12.8-202.9,2.7-287.6,42.2-232.1,72.6-262.4,46.4-284C434.5,99.6,214,14.5,200.8,52.2c-117.5,311.9-66.1,792.6,118.1,1017.6,55.1,17,183-45.7,229.2-102.1,9.2-12.9,6.9-60,8-129.3,32,92.6,190.8,214,236.6,226.5,5.8,3,12.8,2.2,18-1.7,21.5-8.4,90.2-36.9,130.4-74,48.1-44.4,32.4-321.4-12.5-525.1h0Z"/>
  </g>
</svg>