<?xml version="1.0" encoding="UTF-8"?>
<svg id="Layer_2" xmlns="http://www.w3.org/2000/svg" version="1.1" viewBox="0 0 1080 1080">
  <!-- Generator: Adobe Illustrator 29.3.0, SVG Export Plug-In . SVG Version: 2.1.0 Build 146)  -->
  <path d="M369,587c10.1-8.9,20.3-25.7,31-35-6-6.8.9-5.6-6-12-100.5-94-25.5-473.1-25.5-473.1-20.1-14.5-65.5-29.9-149.5-16.9s-101.2,33.4-109,69c-8.8,40.1-20.7,132.9,6,255,40,182.6,208,230,208,230l45-17Z"/>
  <path d="M341,570c-56.5,31.9-181.8,108.8-224,197s-13,226,2,232c97.8,34.1,229-7,229-7,0,0-66-271,97-358,246-116,309-297.4,309-417s-49-115-130-118c-60-2.2-153,12-153,12,0,0,37.8,352.8-130,459Z"/>
  <path d="M724.2,592.8l136-24.7,161.6,291.9s15.3,231.9-270,181.5c-151.6-26.8-290.5-176.7-363.1-312.2-72.6-135.4,2-184.9,2-184.9,0,0,83.9,100.1,162.6,144.9,61.7,35.1,134,46.2,134,46.2l-39.9-131.4,76.7-11.3Z"/>
</svg>