<?xml version="1.0" encoding="UTF-8"?>
<svg xmlns="http://www.w3.org/2000/svg" version="1.1" viewBox="0 0 1080 1080">
  <!-- Generator: Adobe Illustrator 29.3.1, SVG Export Plug-In . SVG Version: 2.1.0 Build 151)  -->
  <g id="Shadow_Effect" class="Shadow_Effect">
    <path d="M878.2,897.4c-19-136.6-116.8-205.2-350.5-279.3,94-57.2,179.9-124.9,201.4-239.4,24-128.5-32.3-288.8-32.3-288.8,0,0-98.8-5.6-180.5,13.3-90.2,20.9-155.8,56.1-152,87.4,16,57.7,70.3,230.8,26.6,388.5-39.9-85.5-41.1-452.3-30.9-504.4,2.9-15-9.5-28.5-24.6-26.9l-260.4,28.2c-7.5.9-13.5,6.6-14.7,14-8.6,53.8-38.6,267.5,44.6,416.9,34.6,56.8,79.8,96,129.9,119-77.1,36.5-142.2,77.9-149.6,208-7.6,134.2,99.6,205,99.6,205,0,0,50.2,10.5,125.4-12.3,62.7-19,103-55.9,115-70.3,4.4-5.3,4.1-13.1-.8-18.1-27-27.4-93.8-126.2-36.5-207.4,12.5,6,23.2,11.5,30.6,16.4,114,76,147.9,237.2,162.4,280.4,2.2,6.7,8.8,10.9,15.9,10.1,58.2-6.9,295.5-40.7,281.7-140.5h0Z" class="shadow-effect" style="display:none;" fill="#000000" fill-opacity="1"/>
  </g>
  <g id="BASE">
    <path d="M1000,916c-20-143.8-123-216-369-294,99-60.2,189.4-131.5,212-252,25.3-135.3-34-304-34-304,0,0-104-5.9-190,14-95,22-164,59-160,92,16.8,60.7,74,243,28,409-42-90-43.3-476.1-32.5-530.9,3.1-15.8-10-30-25.9-28.3l-274.1,29.7c-7.9.9-14.2,6.9-15.5,14.7-9.1,56.6-40.6,281.6,47,438.8,36.4,59.8,84,101,136.7,125.3-81.2,38.4-149.7,82-157.5,218.9-8,141.3,104.8,215.8,104.8,215.8,0,0,52.8,11,132-13,66-20,108.4-58.8,121-74,4.6-5.6,4.3-13.8-.8-19-28.4-28.8-98.7-132.8-38.4-218.3,13.2,6.3,24.4,12.1,32.2,17.3,120,80,155.7,249.7,170.9,295.2,2.3,7.1,9.3,11.5,16.7,10.6,61.3-7.3,311.1-42.8,296.5-147.9h-.1Z"/>
  </g>
</svg>