<?xml version="1.0" encoding="UTF-8"?>
<svg id="Layer_2" xmlns="http://www.w3.org/2000/svg" version="1.1" viewBox="0 0 1080 1080">
  <!-- Generator: Adobe Illustrator 29.3.0, SVG Export Plug-In . SVG Version: 2.1.0 Build 146)  -->
  <path d="M649.9,202.2c-4.4-6.8-2.9-16.4,2.4-24.2,14.2-20.6,46.6-61.4,98.4-92.1,50.9-30.2,111-38.1,141.9-40.2,12.9-.9,22.6,6,30.4,15,70.4,80.9,151.2,283.9,92.6,571.9-57.8,283.5-198.9,438.3-412.3,438.5-368.7.3-576.4-256.1-558-377.1s211.7-207.8,211.7-207.8c0,0,289.2,451.1,423.4,398.4,144-56.5,143.2-377.1,101.3-469.4-39.4-86.8-105.2-172.3-131.8-212.9Z"/>
  <path d="M885.6,595s-151.4,63.2-244.5-80.6c-76.1-117.6-9.9-300.6,16.8-363.6,5.4-12.7.9-26.2-10-29.9-22.3-7.7-61.1-18.3-105.8-18.3s-88.5,9.9-110.4,16.4c-10.4,3.1-19.6,11.6-24.4,22.5-24.1,54.8-93.7,231.2-67,383.9,33.5,191.8,285.3,302.9,452.3,233.2,167-69.7,92.9-163.4,92.9-163.4Z"/>
</svg>