<?xml version="1.0" encoding="UTF-8"?>
<svg id="Layer_2" xmlns="http://www.w3.org/2000/svg" version="1.1" viewBox="0 0 1080 1080">
  <!-- Generator: Adobe Illustrator 29.3.0, SVG Export Plug-In . SVG Version: 2.1.0 Build 146)  -->
  <path d="M274,139.7c-4.4-6.7-2.9-16.2,2.4-24,14.2-20.4,24.8-37.7,76.6-68.1,50.9-29.9,101-30.7,132.2-27,12.9-.9,22.6,5.9,30.4,14.8,70.4,80.1,233.6,409.1,315.4,672.3,64,205.9-89,384-376,366.2-181-11.3-320-45.5-421-131.6-46.1-185.7,29.1-311.3,68.2-342,10.3-8.1,25.1-6.9,34.1,2.7,49.1,52.5,254.4,217.4,483.8,200.8,128.9-9.8-41.7-247.9-127.1-358.8-84.2-109.4-192.3-265-218.9-305.3h0Z"/>
  <path d="M563.4,454.3s-84.5,102.8-209-11.8c-101.8-93.7-98.9-287.3-95-353.3.8-13.4-7.2-25-17.8-26-21.6-2.1-199.5,34.5-216.3,45.7-16.8,11.2-13.4,15.5-14.1,27.1-4,57.6-10.1,241.4,59.6,380.1,87.6,174.2,390.2,219.2,513.2,113.9,123-105.3-20.5-175.5-20.5-175.5v-.2h0Z"/>
  <path d="M1050,139.7C807.7,193.9,688-12.7,424,21.9c-78.9,33.8,119,272.2,119,272.2,0,0,80,109.9,324,166.3,245.8,56.8,214-327.6,183-320.7h0Z"/>
</svg>