<?xml version="1.0" encoding="UTF-8"?>
<svg xmlns="http://www.w3.org/2000/svg" version="1.1" viewBox="0 0 1080 1080">
  <!-- Generator: Adobe Illustrator 29.3.1, SVG Export Plug-In . SVG Version: 2.1.0 Build 151)  -->
  <g id="Shadow_Effect" class="Shadow_Effect">
    <path d="M805.4,491.8h0c-18.6-317.5-104.3-416.8-121.6-420.7-17.3-3.9-96-2.1-156,16.3-69.7,21.5-140.7,61.5-142.5,87.3,47.9,116.2,88.3,206,134.4,346.4,3.8,11.5,7.5,23.6,10.9,35.8-15.3,4.8-69.5,15.5-120.1-56.5-59.7-85-18.7-278.7-18.7-278.7,0,0-46.5-40.4-124.7-70.4-61.2-23.5-108.4-28.5-127.9-29.9-6.7-.5-13,3.7-15.2,10.3h0c-19.9,58.9-105.7,344.5,60.7,477.8,148.8,119.1,313,100.8,373,88.6,3.9,56-5.4,97.1-39.1,94.2-101.4-13.3-239.6-103.1-334.3-177-3.9-2.9-19.7-4.1-31.9,24-9.7,22-42.6,131.5-41.8,226.9,1.8,72,161,169.1,326.3,180.1,249.6,16.6,390.7-178.2,368.7-554.5h-.2Z" class="shadow-effect" style="display:none;" fill="#000000" fill-opacity="1"/>
  </g>
  <g id="BASE">
    <path d="M924.3,488.3h0c-19.6-334.2-109.8-438.7-128-442.8-18.2-4.1-101.1-2.2-164.2,17.2-73.4,22.6-148.1,64.7-150,91.9,50.4,122.3,93,216.8,141.5,364.6,4,12.1,7.9,24.8,11.5,37.7-16.1,5.1-73.2,16.3-126.4-59.5-62.8-89.5-19.7-293.4-19.7-293.4,0,0-49-42.5-131.3-74.1-64.4-24.7-114.1-30-134.6-31.5-7.1-.5-13.7,3.9-16,10.8h0c-21,62-111.3,362.6,63.9,502.9,156.6,125.4,329.5,106.1,392.6,93.3,4.1,58.9-5.7,102.2-41.2,99.2-106.7-14-252.2-108.5-351.9-186.3-4.1-3-20.7-4.3-33.6,25.3-10.2,23.2-44.8,138.4-44,238.8,1.9,75.8,169.5,178,343.5,189.6,262.7,17.5,411.3-187.6,388.1-583.7h-.2Z"/>
  </g>
</svg>