<?xml version="1.0" encoding="UTF-8"?>
<svg id="Layer_2" xmlns="http://www.w3.org/2000/svg" version="1.1" viewBox="0 0 1080 1080">
  <!-- Generator: Adobe Illustrator 29.3.0, SVG Export Plug-In . SVG Version: 2.1.0 Build 146)  -->
  <path d="M274,130c-4.4-6.8-2.9-16.4,2.4-24.2,14.2-20.6,24.8-38.1,76.6-68.8,50.9-30.2,101-31,132.2-27.3,12.9-.9,22.6,6,30.4,15,70.4,80.9,233.6,413.4,315.4,679.3,64,208-89,388-376,370-181-11.4-320-46-421-133-46.1-187.6,29.1-314.5,68.2-345.6,10.3-8.2,25.1-7,34.1,2.7,49.1,53,254.4,219.7,483.8,202.9,154.3-10.5-65.6-321.6-151-433.7-84.2-110.5-168.4-196.6-195-237.3h0Z"/>
  <path d="M567.4,445.9s-84.5,103.9-209-11.9c-101.8-94.7-98.9-290.3-95-357,.8-13.5-7.2-25.3-17.8-26.3-21.6-2.1-199.5,34.9-216.3,46.2-16.8,11.3-13.4,15.7-14.1,27.4-4,58.2-10.1,243.9,59.6,384,87.6,176,339.4,222.9,462.4,116.5,123-106.4,30.3-178.7,30.3-178.7v-.2h0Z"/>
  <path d="M784,213s130.4,457.8,27.2,231.9S688-24,424,11c-78.9,34.2,88.4,136.7,88.4,136.7,0,0,175.6,412.7,295.6,505.3,127,98,339,150,241-418-23-102-265-22-265-22Z"/>
</svg>