<?xml version="1.0" encoding="UTF-8"?>
<svg id="Layer_1" xmlns="http://www.w3.org/2000/svg" version="1.1" viewBox="0 0 1080 1080">
  <!-- Generator: Adobe Illustrator 29.3.1, SVG Export Plug-In . SVG Version: 2.1.0 Build 151)  -->
  <g id="Shadow_Effect" class="Shadow_Effect">
    <path d="M850.2,774.4c-18.7-59.8-109.3-92.8-274-74.8-93.2,10.2-174.4,52-174.4,52,0,0,91.7-95.6,193.4-159.5,111.9-70.3,160-97,160-97l-.4-.5c13.4-10.6,60.3-79.8,41.6-234.2-15.9-130.2-91.1-179.6-91.1-179.6,0,0-222.9-44.1-443.4,5C76,127.2,22.2,180.9,22.2,180.9c0,0-17,52.9,7.7,200.2,13.9,86.4,56.7,185.5,68.2,208.5,10.9,21.8,32.9,7.9,42.7,2.4,40.9-22.3,147.5-67.5,273.3-84.6,9.3-1.2,19-2.4,29.1-3.5-29.1,14-60.5,30.5-94.6,50.1-88.5,50.7-228,159.5-276.7,227-17,23.6-57.7,73-34.9,130.1s181,133.1,181,133.1c0,0,119.7-33.6,248.4-50.6,193.8-25.5,342,20.1,342,20.1,0,0,65.8-162.4,41.8-239.4h0Z" class="shadow-effect" style="display:none;" fill="#000000" fill-opacity="1"/>
  </g>
  <g id="BASE">
    <path d="M972,786c-19.7-63-115.1-97.7-288.4-78.7-98.1,10.7-183.6,54.7-183.6,54.7,0,0,96.5-100.6,203.6-167.9,117.8-74,168.4-102.1,168.4-102.1l-.4-.5c14.1-11.2,63.5-84,43.8-246.5-16.7-137-95.9-189-95.9-189,0,0-234.6-46.4-466.7,5.3-195.7,43.5-252.4,100-252.4,100,0,0-17.9,55.7,8.1,210.7,14.6,91,59.7,195.3,71.8,219.5,11.5,22.9,34.6,8.3,44.9,2.5,43.1-23.5,155.3-71,287.7-89,9.8-1.3,20-2.5,30.6-3.7-30.6,14.7-63.7,32.1-99.6,52.7-93.2,53.4-240,167.9-291.3,239-17.9,24.8-60.7,76.8-36.7,137s190.5,140.1,190.5,140.1c0,0,126-35.4,261.5-53.3,204-26.8,360,21.2,360,21.2,0,0,69.3-170.9,44-252h.1Z"/>
  </g>
</svg>